STARTFONT 2.1
FONT -FontForge-STIX Two Math-Book-R-Normal--11-110-72-72-P-75-ISO10646-1
SIZE 11 72 72
FONTBOUNDINGBOX 45 47 -11 -18
COMMENT "Generated by fontforge, http://fontforge.sourceforge.net"
COMMENT "Copyright 2001-2021 The STIX Fonts Project Authors (https://github.com/stipub/stixfonts)"
STARTPROPERTIES 40
FOUNDRY "FontForge"
FAMILY_NAME "STIX Two Math"
WEIGHT_NAME "Book"
SLANT "R"
SETWIDTH_NAME "Normal"
ADD_STYLE_NAME ""
PIXEL_SIZE 11
POINT_SIZE 110
RESOLUTION_X 72
RESOLUTION_Y 72
SPACING "P"
AVERAGE_WIDTH 75
CHARSET_REGISTRY "ISO10646"
CHARSET_ENCODING "1"
FONTNAME_REGISTRY ""
CHARSET_COLLECTIONS "ASCII ISOLatin1Encoding ISO8859-2 ISO8859-5 ISO8859-7 ISO8859-9 ISO8859-4 ISO10646-1"
FONT_NAME "STIXTwoMath-Regular"
FACE_NAME "STIX Two Math Regular"
COPYRIGHT "Copyright 2001-2021 The STIX Fonts Project Authors (https://github.com/stipub/stixfonts)"
FONT_VERSION "2.12 b168a"
FONT_ASCENT 8
FONT_DESCENT 3
UNDERLINE_POSITION -1
UNDERLINE_THICKNESS 1
X_HEIGHT 5
CAP_HEIGHT 7
RAW_ASCENT 762
RAW_DESCENT 238
NORM_SPACE 3
RELATIVE_WEIGHT 40
RELATIVE_SETWIDTH 50
SUPERSCRIPT_X 0
SUPERSCRIPT_Y 5
SUPERSCRIPT_SIZE 5
SUBSCRIPT_X 0
SUBSCRIPT_Y 2
SUBSCRIPT_SIZE 5
FIGURE_WIDTH 5
AVG_LOWERCASE_WIDTH 53
AVG_UPPERCASE_WIDTH 74
ENDPROPERTIES
CHARS 6611
STARTCHAR space
ENCODING 32
SWIDTH 235 0
DWIDTH 3 0
BBX 1 1 0 0
BITMAP
00
ENDCHAR
STARTCHAR exclam
ENCODING 33
SWIDTH 283 0
DWIDTH 3 0
BBX 1 8 1 0
BITMAP
80
80
80
80
80
80
00
80
ENDCHAR
STARTCHAR quotedbl
ENCODING 34
SWIDTH 334 0
DWIDTH 4 0
BBX 2 3 1 6
BITMAP
C0
C0
C0
ENDCHAR
STARTCHAR numbersign
ENCODING 35
SWIDTH 702 0
DWIDTH 8 0
BBX 6 8 1 0
BITMAP
28
48
FC
48
48
FC
50
50
ENDCHAR
STARTCHAR dollar
ENCODING 36
SWIDTH 495 0
DWIDTH 5 0
BBX 5 10 0 -1
BITMAP
20
78
A8
60
60
38
28
A8
F0
20
ENDCHAR
STARTCHAR percent
ENCODING 37
SWIDTH 692 0
DWIDTH 8 0
BBX 7 8 0 0
BITMAP
7C
94
98
68
16
1A
2A
4E
ENDCHAR
STARTCHAR ampersand
ENCODING 38
SWIDTH 736 0
DWIDTH 8 0
BBX 8 8 0 0
BITMAP
38
28
36
52
54
88
89
76
ENDCHAR
STARTCHAR quotesingle
ENCODING 39
SWIDTH 187 0
DWIDTH 2 0
BBX 1 2 1 7
BITMAP
80
80
ENDCHAR
STARTCHAR parenleft
ENCODING 40
SWIDTH 357 0
DWIDTH 4 0
BBX 4 10 0 -2
BITMAP
30
40
40
40
80
80
40
40
40
30
ENDCHAR
STARTCHAR parenright
ENCODING 41
SWIDTH 357 0
DWIDTH 4 0
BBX 3 10 0 -2
BITMAP
C0
20
20
20
20
20
20
20
20
C0
ENDCHAR
STARTCHAR asterisk
ENCODING 42
SWIDTH 410 0
DWIDTH 5 0
BBX 4 5 0 4
BITMAP
20
B0
60
B0
20
ENDCHAR
STARTCHAR plus
ENCODING 43
SWIDTH 720 0
DWIDTH 8 0
BBX 6 7 1 0
BITMAP
20
20
20
FC
20
20
20
ENDCHAR
STARTCHAR comma
ENCODING 44
SWIDTH 245 0
DWIDTH 3 0
BBX 1 3 1 -2
BITMAP
80
80
80
ENDCHAR
STARTCHAR hyphen
ENCODING 45
SWIDTH 315 0
DWIDTH 3 0
BBX 3 1 0 3
BITMAP
E0
ENDCHAR
STARTCHAR period
ENCODING 46
SWIDTH 245 0
DWIDTH 3 0
BBX 1 1 1 0
BITMAP
80
ENDCHAR
STARTCHAR slash
ENCODING 47
SWIDTH 386 0
DWIDTH 4 0
BBX 4 10 0 -1
BITMAP
10
10
20
20
20
40
40
40
40
80
ENDCHAR
STARTCHAR zero
ENCODING 48
SWIDTH 495 0
DWIDTH 5 0
BBX 5 8 0 0
BITMAP
70
48
88
88
88
88
48
70
ENDCHAR
STARTCHAR one
ENCODING 49
SWIDTH 495 0
DWIDTH 5 0
BBX 4 8 1 0
BITMAP
C0
40
40
40
40
40
40
F0
ENDCHAR
STARTCHAR two
ENCODING 50
SWIDTH 495 0
DWIDTH 5 0
BBX 5 8 0 0
BITMAP
70
88
08
10
10
20
48
F8
ENDCHAR
STARTCHAR three
ENCODING 51
SWIDTH 495 0
DWIDTH 5 0
BBX 4 8 1 0
BITMAP
E0
A0
20
60
10
10
10
E0
ENDCHAR
STARTCHAR four
ENCODING 52
SWIDTH 495 0
DWIDTH 5 0
BBX 5 8 0 0
BITMAP
10
10
30
50
90
F8
10
10
ENDCHAR
STARTCHAR five
ENCODING 53
SWIDTH 495 0
DWIDTH 5 0
BBX 4 8 1 0
BITMAP
70
80
E0
30
10
10
10
E0
ENDCHAR
STARTCHAR six
ENCODING 54
SWIDTH 495 0
DWIDTH 5 0
BBX 5 8 0 0
BITMAP
18
60
40
70
C8
48
48
70
ENDCHAR
STARTCHAR seven
ENCODING 55
SWIDTH 495 0
DWIDTH 5 0
BBX 5 8 0 0
BITMAP
78
88
08
10
10
20
20
20
ENDCHAR
STARTCHAR eight
ENCODING 56
SWIDTH 495 0
DWIDTH 5 0
BBX 5 8 0 0
BITMAP
70
48
48
70
70
48
88
70
ENDCHAR
STARTCHAR nine
ENCODING 57
SWIDTH 495 0
DWIDTH 5 0
BBX 5 8 0 0
BITMAP
70
88
88
48
78
08
10
60
ENDCHAR
STARTCHAR colon
ENCODING 58
SWIDTH 245 0
DWIDTH 3 0
BBX 1 5 1 0
BITMAP
80
00
00
00
80
ENDCHAR
STARTCHAR semicolon
ENCODING 59
SWIDTH 245 0
DWIDTH 3 0
BBX 1 7 1 -2
BITMAP
80
00
00
00
80
80
80
ENDCHAR
STARTCHAR less
ENCODING 60
SWIDTH 720 0
DWIDTH 8 0
BBX 6 6 1 0
BITMAP
04
18
60
C0
30
0C
ENDCHAR
STARTCHAR equal
ENCODING 61
SWIDTH 720 0
DWIDTH 8 0
BBX 6 4 1 1
BITMAP
FC
00
00
FC
ENDCHAR
STARTCHAR greater
ENCODING 62
SWIDTH 720 0
DWIDTH 8 0
BBX 6 6 1 0
BITMAP
80
60
18
0C
30
C0
ENDCHAR
STARTCHAR question
ENCODING 63
SWIDTH 411 0
DWIDTH 5 0
BBX 4 8 0 0
BITMAP
70
90
10
10
20
20
00
20
ENDCHAR
STARTCHAR at
ENCODING 64
SWIDTH 905 0
DWIDTH 10 0
BBX 8 10 1 -2
BITMAP
3C
42
9D
A5
A5
A5
A5
BE
40
3E
ENDCHAR
STARTCHAR A
ENCODING 65
SWIDTH 718 0
DWIDTH 8 0
BBX 8 8 0 0
BITMAP
10
18
18
2C
24
3C
46
C7
ENDCHAR
STARTCHAR B
ENCODING 66
SWIDTH 618 0
DWIDTH 7 0
BBX 6 8 0 0
BITMAP
F8
44
44
78
44
44
44
FC
ENDCHAR
STARTCHAR C
ENCODING 67
SWIDTH 670 0
DWIDTH 7 0
BBX 6 8 1 0
BITMAP
7C
84
84
80
80
80
84
78
ENDCHAR
STARTCHAR D
ENCODING 68
SWIDTH 730 0
DWIDTH 8 0
BBX 7 8 0 0
BITMAP
FC
42
42
42
42
42
42
FC
ENDCHAR
STARTCHAR E
ENCODING 69
SWIDTH 626 0
DWIDTH 7 0
BBX 7 8 0 0
BITMAP
FC
42
44
78
44
42
42
FC
ENDCHAR
STARTCHAR F
ENCODING 70
SWIDTH 588 0
DWIDTH 6 0
BBX 6 8 0 0
BITMAP
FC
44
44
78
44
40
40
F0
ENDCHAR
STARTCHAR G
ENCODING 71
SWIDTH 720 0
DWIDTH 8 0
BBX 7 8 1 0
BITMAP
7C
84
84
80
8E
84
84
78
ENDCHAR
STARTCHAR H
ENCODING 72
SWIDTH 777 0
DWIDTH 9 0
BBX 7 8 1 0
BITMAP
EE
44
44
7C
44
44
44
EE
ENDCHAR
STARTCHAR I
ENCODING 73
SWIDTH 357 0
DWIDTH 4 0
BBX 4 8 0 0
BITMAP
F0
40
40
40
40
40
40
F0
ENDCHAR
STARTCHAR J
ENCODING 74
SWIDTH 396 0
DWIDTH 4 0
BBX 4 8 0 0
BITMAP
70
20
20
20
20
20
A0
E0
ENDCHAR
STARTCHAR K
ENCODING 75
SWIDTH 702 0
DWIDTH 8 0
BBX 8 8 0 0
BITMAP
FE
44
48
50
70
48
44
FF
ENDCHAR
STARTCHAR L
ENCODING 76
SWIDTH 585 0
DWIDTH 6 0
BBX 6 8 0 0
BITMAP
F0
40
40
40
40
40
44
FC
ENDCHAR
STARTCHAR M
ENCODING 77
SWIDTH 895 0
DWIDTH 10 0
BBX 9 8 0 0
BITMAP
E180
6100
7300
5300
5500
4D00
4900
EB80
ENDCHAR
STARTCHAR N
ENCODING 78
SWIDTH 742 0
DWIDTH 8 0
BBX 8 8 0 0
BITMAP
E7
62
52
5A
4A
46
46
E2
ENDCHAR
STARTCHAR O
ENCODING 79
SWIDTH 738 0
DWIDTH 8 0
BBX 7 8 1 0
BITMAP
78
84
84
86
86
84
84
78
ENDCHAR
STARTCHAR P
ENCODING 80
SWIDTH 569 0
DWIDTH 6 0
BBX 6 8 0 0
BITMAP
78
44
44
44
78
40
40
F0
ENDCHAR
STARTCHAR Q
ENCODING 81
SWIDTH 737 0
DWIDTH 8 0
BBX 7 10 1 -2
BITMAP
78
84
84
86
86
84
84
68
18
0E
ENDCHAR
STARTCHAR R
ENCODING 82
SWIDTH 659 0
DWIDTH 7 0
BBX 7 8 0 0
BITMAP
F8
44
44
44
78
48
4C
F6
ENDCHAR
STARTCHAR S
ENCODING 83
SWIDTH 504 0
DWIDTH 6 0
BBX 5 8 0 0
BITMAP
78
48
48
60
18
88
88
F0
ENDCHAR
STARTCHAR T
ENCODING 84
SWIDTH 603 0
DWIDTH 7 0
BBX 6 8 0 0
BITMAP
FC
94
10
10
10
10
10
38
ENDCHAR
STARTCHAR U
ENCODING 85
SWIDTH 752 0
DWIDTH 8 0
BBX 8 8 0 0
BITMAP
E7
42
42
42
42
42
22
3C
ENDCHAR
STARTCHAR V
ENCODING 86
SWIDTH 680 0
DWIDTH 7 0
BBX 8 8 0 0
BITMAP
E7
42
64
24
24
18
18
10
ENDCHAR
STARTCHAR W
ENCODING 87
SWIDTH 944 0
DWIDTH 10 0
BBX 10 8 0 0
BITMAP
ECC0
4440
6480
2680
2A80
3B00
1300
1100
ENDCHAR
STARTCHAR X
ENCODING 88
SWIDTH 664 0
DWIDTH 7 0
BBX 7 8 0 0
BITMAP
E6
24
28
10
18
28
44
CE
ENDCHAR
STARTCHAR Y
ENCODING 89
SWIDTH 647 0
DWIDTH 7 0
BBX 7 8 0 0
BITMAP
E6
64
28
38
10
10
10
38
ENDCHAR
STARTCHAR Z
ENCODING 90
SWIDTH 594 0
DWIDTH 7 0
BBX 6 8 0 0
BITMAP
7C
88
08
10
30
20
44
FC
ENDCHAR
STARTCHAR bracketleft
ENCODING 91
SWIDTH 349 0
DWIDTH 4 0
BBX 2 12 1 -3
BITMAP
C0
80
80
80
80
80
80
80
80
80
80
C0
ENDCHAR
STARTCHAR backslash
ENCODING 92
SWIDTH 385 0
DWIDTH 4 0
BBX 4 10 0 -1
BITMAP
80
40
40
40
40
20
20
20
10
10
ENDCHAR
STARTCHAR bracketright
ENCODING 93
SWIDTH 349 0
DWIDTH 4 0
BBX 2 12 1 -3
BITMAP
C0
40
40
40
40
40
40
40
40
40
40
C0
ENDCHAR
STARTCHAR asciicircum
ENCODING 94
SWIDTH 480 0
DWIDTH 5 0
BBX 5 5 0 4
BITMAP
20
20
50
50
88
ENDCHAR
STARTCHAR underscore
ENCODING 95
SWIDTH 512 0
DWIDTH 6 0
BBX 6 1 0 -2
BITMAP
FC
ENDCHAR
STARTCHAR grave
ENCODING 96
SWIDTH 222 0
DWIDTH 2 0
BBX 2 2 0 6
BITMAP
C0
40
ENDCHAR
STARTCHAR a
ENCODING 97
SWIDTH 480 0
DWIDTH 5 0
BBX 5 6 0 0
BITMAP
70
50
30
50
90
78
ENDCHAR
STARTCHAR b
ENCODING 98
SWIDTH 522 0
DWIDTH 6 0
BBX 5 9 0 0
BITMAP
C0
40
40
78
48
48
48
48
70
ENDCHAR
STARTCHAR c
ENCODING 99
SWIDTH 446 0
DWIDTH 5 0
BBX 5 6 0 0
BITMAP
70
48
80
80
48
70
ENDCHAR
STARTCHAR d
ENCODING 100
SWIDTH 539 0
DWIDTH 6 0
BBX 6 9 0 0
BITMAP
18
08
08
78
48
88
88
48
7C
ENDCHAR
STARTCHAR e
ENCODING 101
SWIDTH 464 0
DWIDTH 5 0
BBX 5 6 0 0
BITMAP
70
88
F8
80
48
70
ENDCHAR
STARTCHAR f
ENCODING 102
SWIDTH 307 0
DWIDTH 3 0
BBX 4 9 0 0
BITMAP
30
40
40
E0
40
40
40
40
E0
ENDCHAR
STARTCHAR g
ENCODING 103
SWIDTH 484 0
DWIDTH 5 0
BBX 5 9 0 -3
BITMAP
78
48
50
70
40
F8
88
88
70
ENDCHAR
STARTCHAR h
ENCODING 104
SWIDTH 577 0
DWIDTH 6 0
BBX 6 9 0 0
BITMAP
C0
40
40
78
48
48
48
48
EC
ENDCHAR
STARTCHAR i
ENCODING 105
SWIDTH 285 0
DWIDTH 3 0
BBX 3 8 0 0
BITMAP
40
00
C0
40
40
40
40
E0
ENDCHAR
STARTCHAR j
ENCODING 106
SWIDTH 263 0
DWIDTH 3 0
BBX 3 11 -1 -3
BITMAP
20
00
60
20
20
20
20
20
20
20
C0
ENDCHAR
STARTCHAR k
ENCODING 107
SWIDTH 542 0
DWIDTH 6 0
BBX 6 9 0 0
BITMAP
C0
40
40
5C
50
60
50
50
FC
ENDCHAR
STARTCHAR l
ENCODING 108
SWIDTH 283 0
DWIDTH 3 0
BBX 3 9 0 0
BITMAP
C0
40
40
40
40
40
40
40
E0
ENDCHAR
STARTCHAR m
ENCODING 109
SWIDTH 852 0
DWIDTH 9 0
BBX 9 6 0 0
BITMAP
FF00
4900
4900
4900
4900
FD80
ENDCHAR
STARTCHAR n
ENCODING 110
SWIDTH 576 0
DWIDTH 6 0
BBX 6 6 0 0
BITMAP
F8
48
48
48
48
EC
ENDCHAR
STARTCHAR o
ENCODING 111
SWIDTH 514 0
DWIDTH 6 0
BBX 5 6 0 0
BITMAP
70
48
88
88
48
70
ENDCHAR
STARTCHAR p
ENCODING 112
SWIDTH 537 0
DWIDTH 6 0
BBX 6 9 0 -3
BITMAP
F8
48
4C
48
48
70
40
40
E0
ENDCHAR
STARTCHAR q
ENCODING 113
SWIDTH 521 0
DWIDTH 6 0
BBX 6 9 0 -3
BITMAP
78
48
88
88
48
78
08
08
1C
ENDCHAR
STARTCHAR r
ENCODING 114
SWIDTH 380 0
DWIDTH 4 0
BBX 4 6 0 0
BITMAP
F0
40
40
40
40
E0
ENDCHAR
STARTCHAR s
ENCODING 115
SWIDTH 395 0
DWIDTH 4 0
BBX 4 6 0 0
BITMAP
70
90
40
30
90
F0
ENDCHAR
STARTCHAR t
ENCODING 116
SWIDTH 315 0
DWIDTH 3 0
BBX 3 8 0 0
BITMAP
40
40
E0
40
40
40
40
60
ENDCHAR
STARTCHAR u
ENCODING 117
SWIDTH 570 0
DWIDTH 6 0
BBX 6 6 0 0
BITMAP
D8
48
48
48
48
7C
ENDCHAR
STARTCHAR v
ENCODING 118
SWIDTH 481 0
DWIDTH 5 0
BBX 5 6 0 0
BITMAP
C8
48
50
30
20
20
ENDCHAR
STARTCHAR w
ENCODING 119
SWIDTH 749 0
DWIDTH 8 0
BBX 8 6 0 0
BITMAP
DB
49
4A
36
24
24
ENDCHAR
STARTCHAR x
ENCODING 120
SWIDTH 479 0
DWIDTH 5 0
BBX 5 6 0 0
BITMAP
D8
50
20
30
50
D8
ENDCHAR
STARTCHAR y
ENCODING 121
SWIDTH 483 0
DWIDTH 5 0
BBX 5 9 0 -3
BITMAP
C8
48
50
30
30
20
20
20
C0
ENDCHAR
STARTCHAR z
ENCODING 122
SWIDTH 458 0
DWIDTH 5 0
BBX 5 6 0 0
BITMAP
78
90
20
20
48
F8
ENDCHAR
STARTCHAR braceleft
ENCODING 123
SWIDTH 327 0
DWIDTH 4 0
BBX 3 12 0 -3
BITMAP
20
40
40
40
40
40
80
40
40
40
40
20
ENDCHAR
STARTCHAR bar
ENCODING 124
SWIDTH 267 0
DWIDTH 3 0
BBX 1 12 1 -3
BITMAP
80
80
80
80
80
80
80
80
80
80
80
80
ENDCHAR
STARTCHAR braceright
ENCODING 125
SWIDTH 327 0
DWIDTH 4 0
BBX 3 12 0 -3
BITMAP
C0
20
20
20
40
20
20
40
40
20
20
C0
ENDCHAR
STARTCHAR asciitilde
ENCODING 126
SWIDTH 557 0
DWIDTH 6 0
BBX 6 2 0 2
BITMAP
64
98
ENDCHAR
STARTCHAR uni00A0
ENCODING 160
SWIDTH 235 0
DWIDTH 3 0
BBX 1 1 0 0
BITMAP
00
ENDCHAR
STARTCHAR exclamdown
ENCODING 161
SWIDTH 282 0
DWIDTH 3 0
BBX 1 9 1 -3
BITMAP
80
00
80
80
80
80
80
80
80
ENDCHAR
STARTCHAR cent
ENCODING 162
SWIDTH 495 0
DWIDTH 5 0
BBX 5 8 0 0
BITMAP
20
30
68
A0
A0
68
70
20
ENDCHAR
STARTCHAR sterling
ENCODING 163
SWIDTH 495 0
DWIDTH 5 0
BBX 5 8 0 0
BITMAP
38
20
40
70
20
20
C8
F8
ENDCHAR
STARTCHAR currency
ENCODING 164
SWIDTH 617 0
DWIDTH 7 0
BBX 6 6 0 1
BITMAP
84
7C
44
44
44
FC
ENDCHAR
STARTCHAR yen
ENCODING 165
SWIDTH 495 0
DWIDTH 5 0
BBX 5 8 0 0
BITMAP
C8
48
50
30
78
78
20
70
ENDCHAR
STARTCHAR brokenbar
ENCODING 166
SWIDTH 267 0
DWIDTH 3 0
BBX 1 9 1 0
BITMAP
80
80
80
80
00
80
80
80
80
ENDCHAR
STARTCHAR section
ENCODING 167
SWIDTH 491 0
DWIDTH 5 0
BBX 4 11 1 -3
BITMAP
E0
A0
80
40
A0
90
90
60
20
A0
E0
ENDCHAR
STARTCHAR dieresis
ENCODING 168
SWIDTH 392 0
DWIDTH 4 0
BBX 4 1 0 7
BITMAP
D0
ENDCHAR
STARTCHAR copyright
ENCODING 169
SWIDTH 781 0
DWIDTH 9 0
BBX 7 9 1 0
BITMAP
38
C4
BA
CA
C2
C2
BA
84
78
ENDCHAR
STARTCHAR ordfeminine
ENCODING 170
SWIDTH 410 0
DWIDTH 5 0
BBX 4 4 0 3
BITMAP
60
30
D0
F0
ENDCHAR
STARTCHAR guillemotleft
ENCODING 171
SWIDTH 517 0
DWIDTH 6 0
BBX 5 5 0 0
BITMAP
28
50
90
48
28
ENDCHAR
STARTCHAR logicalnot
ENCODING 172
SWIDTH 720 0
DWIDTH 8 0
BBX 6 4 1 1
BITMAP
FC
04
04
04
ENDCHAR
STARTCHAR uni00AD
ENCODING 173
SWIDTH 315 0
DWIDTH 3 0
BBX 3 1 0 3
BITMAP
E0
ENDCHAR
STARTCHAR registered
ENCODING 174
SWIDTH 413 0
DWIDTH 5 0
BBX 4 5 0 4
BITMAP
20
70
B0
50
20
ENDCHAR
STARTCHAR macron
ENCODING 175
SWIDTH 350 0
DWIDTH 4 0
BBX 4 1 0 7
BITMAP
F0
ENDCHAR
STARTCHAR degree
ENCODING 176
SWIDTH 409 0
DWIDTH 5 0
BBX 3 4 1 5
BITMAP
C0
A0
A0
C0
ENDCHAR
STARTCHAR plusminus
ENCODING 177
SWIDTH 720 0
DWIDTH 8 0
BBX 6 8 1 0
BITMAP
20
20
20
FC
20
20
00
FC
ENDCHAR
STARTCHAR twosuperior
ENCODING 178
SWIDTH 373 0
DWIDTH 4 0
BBX 4 5 0 3
BITMAP
60
90
20
40
F0
ENDCHAR
STARTCHAR threesuperior
ENCODING 179
SWIDTH 374 0
DWIDTH 4 0
BBX 4 5 0 3
BITMAP
E0
20
60
10
E0
ENDCHAR
STARTCHAR acute
ENCODING 180
SWIDTH 222 0
DWIDTH 2 0
BBX 2 2 0 6
BITMAP
40
80
ENDCHAR
STARTCHAR uni00B5
ENCODING 181
SWIDTH 556 0
DWIDTH 6 0
BBX 6 9 0 -3
BITMAP
48
48
48
48
58
AC
80
80
C0
ENDCHAR
STARTCHAR paragraph
ENCODING 182
SWIDTH 605 0
DWIDTH 7 0
BBX 5 10 1 -2
BITMAP
F8
B0
B0
B0
F0
30
30
30
30
78
ENDCHAR
STARTCHAR periodcentered
ENCODING 183
SWIDTH 282 0
DWIDTH 3 0
BBX 1 1 1 3
BITMAP
80
ENDCHAR
STARTCHAR cedilla
ENCODING 184
SWIDTH 247 0
DWIDTH 3 0
BBX 2 3 0 -3
BITMAP
40
40
C0
ENDCHAR
STARTCHAR onesuperior
ENCODING 185
SWIDTH 343 0
DWIDTH 4 0
BBX 3 5 0 3
BITMAP
C0
40
40
40
60
ENDCHAR
STARTCHAR ordmasculine
ENCODING 186
SWIDTH 432 0
DWIDTH 5 0
BBX 4 4 0 3
BITMAP
70
90
90
70
ENDCHAR
STARTCHAR guillemotright
ENCODING 187
SWIDTH 517 0
DWIDTH 6 0
BBX 4 5 1 0
BITMAP
A0
90
50
A0
A0
ENDCHAR
STARTCHAR onequarter
ENCODING 188
SWIDTH 861 0
DWIDTH 9 0
BBX 9 9 0 0
BITMAP
0200
C200
4400
4400
4900
6A80
1280
1780
2080
ENDCHAR
STARTCHAR onehalf
ENCODING 189
SWIDTH 889 0
DWIDTH 10 0
BBX 10 9 0 0
BITMAP
0200
C200
4400
4400
4B80
6880
1080
1140
2380
ENDCHAR
STARTCHAR threequarters
ENCODING 190
SWIDTH 861 0
DWIDTH 9 0
BBX 9 9 0 0
BITMAP
0200
6200
A400
6400
1900
EA80
1280
1780
2080
ENDCHAR
STARTCHAR questiondown
ENCODING 191
SWIDTH 411 0
DWIDTH 5 0
BBX 4 9 0 -3
BITMAP
20
00
20
20
40
40
90
90
70
ENDCHAR
STARTCHAR Agrave
ENCODING 192
SWIDTH 718 0
DWIDTH 8 0
BBX 8 11 0 0
BITMAP
10
08
00
10
18
18
2C
24
3C
46
C7
ENDCHAR
STARTCHAR Aacute
ENCODING 193
SWIDTH 718 0
DWIDTH 8 0
BBX 8 11 0 0
BITMAP
08
10
00
10
18
18
2C
24
3C
46
C7
ENDCHAR
STARTCHAR Acircumflex
ENCODING 194
SWIDTH 718 0
DWIDTH 8 0
BBX 8 11 0 0
BITMAP
10
3C
00
10
18
18
2C
24
3C
46
C7
ENDCHAR
STARTCHAR Atilde
ENCODING 195
SWIDTH 718 0
DWIDTH 8 0
BBX 8 10 0 0
BITMAP
3C
00
10
18
18
2C
24
3C
46
C7
ENDCHAR
STARTCHAR Adieresis
ENCODING 196
SWIDTH 718 0
DWIDTH 8 0
BBX 8 10 0 0
BITMAP
2C
00
10
18
18
2C
24
3C
46
C7
ENDCHAR
STARTCHAR Aring
ENCODING 197
SWIDTH 718 0
DWIDTH 8 0
BBX 8 11 0 0
BITMAP
18
28
18
10
18
18
2C
24
3C
46
C7
ENDCHAR
STARTCHAR AE
ENCODING 198
SWIDTH 894 0
DWIDTH 10 0
BBX 10 8 0 0
BITMAP
1F80
1480
1480
2480
3F00
4440
4440
DF80
ENDCHAR
STARTCHAR Ccedilla
ENCODING 199
SWIDTH 670 0
DWIDTH 7 0
BBX 6 11 1 -3
BITMAP
7C
84
84
80
80
80
84
78
30
10
30
ENDCHAR
STARTCHAR Egrave
ENCODING 200
SWIDTH 626 0
DWIDTH 7 0
BBX 7 11 0 0
BITMAP
20
18
00
FC
42
44
78
44
42
42
FC
ENDCHAR
STARTCHAR Eacute
ENCODING 201
SWIDTH 626 0
DWIDTH 7 0
BBX 7 11 0 0
BITMAP
08
30
00
FC
42
44
78
44
42
42
FC
ENDCHAR
STARTCHAR Ecircumflex
ENCODING 202
SWIDTH 626 0
DWIDTH 7 0
BBX 7 11 0 0
BITMAP
10
28
00
FC
42
44
78
44
42
42
FC
ENDCHAR
STARTCHAR Edieresis
ENCODING 203
SWIDTH 626 0
DWIDTH 7 0
BBX 7 10 0 0
BITMAP
28
00
FC
42
44
78
44
42
42
FC
ENDCHAR
STARTCHAR Igrave
ENCODING 204
SWIDTH 357 0
DWIDTH 4 0
BBX 4 11 0 0
BITMAP
40
20
00
F0
40
40
40
40
40
40
F0
ENDCHAR
STARTCHAR Iacute
ENCODING 205
SWIDTH 357 0
DWIDTH 4 0
BBX 4 11 0 0
BITMAP
20
40
00
F0
40
40
40
40
40
40
F0
ENDCHAR
STARTCHAR Icircumflex
ENCODING 206
SWIDTH 357 0
DWIDTH 4 0
BBX 4 11 0 0
BITMAP
40
F0
00
F0
40
40
40
40
40
40
F0
ENDCHAR
STARTCHAR Idieresis
ENCODING 207
SWIDTH 357 0
DWIDTH 4 0
BBX 4 10 0 0
BITMAP
90
00
F0
40
40
40
40
40
40
F0
ENDCHAR
STARTCHAR Eth
ENCODING 208
SWIDTH 737 0
DWIDTH 8 0
BBX 8 8 0 0
BITMAP
FC
22
22
F3
23
22
22
FC
ENDCHAR
STARTCHAR Ntilde
ENCODING 209
SWIDTH 742 0
DWIDTH 8 0
BBX 8 10 0 0
BITMAP
3C
00
E7
62
52
5A
4A
46
46
E2
ENDCHAR
STARTCHAR Ograve
ENCODING 210
SWIDTH 738 0
DWIDTH 8 0
BBX 7 11 1 0
BITMAP
20
10
00
78
84
84
86
86
84
84
78
ENDCHAR
STARTCHAR Oacute
ENCODING 211
SWIDTH 738 0
DWIDTH 8 0
BBX 7 11 1 0
BITMAP
10
20
00
78
84
84
86
86
84
84
78
ENDCHAR
STARTCHAR Ocircumflex
ENCODING 212
SWIDTH 738 0
DWIDTH 8 0
BBX 7 11 1 0
BITMAP
10
78
00
78
84
84
86
86
84
84
78
ENDCHAR
STARTCHAR Otilde
ENCODING 213
SWIDTH 738 0
DWIDTH 8 0
BBX 7 10 1 0
BITMAP
78
00
78
84
84
86
86
84
84
78
ENDCHAR
STARTCHAR Odieresis
ENCODING 214
SWIDTH 738 0
DWIDTH 8 0
BBX 7 10 1 0
BITMAP
48
00
78
84
84
86
86
84
84
78
ENDCHAR
STARTCHAR multiply
ENCODING 215
SWIDTH 720 0
DWIDTH 8 0
BBX 6 6 1 0
BITMAP
84
48
30
30
48
84
ENDCHAR
STARTCHAR Oslash
ENCODING 216
SWIDTH 737 0
DWIDTH 8 0
BBX 7 8 1 0
BITMAP
7C
84
8C
96
A6
C4
84
F8
ENDCHAR
STARTCHAR Ugrave
ENCODING 217
SWIDTH 752 0
DWIDTH 8 0
BBX 8 11 0 0
BITMAP
10
08
00
E7
42
42
42
42
42
22
3C
ENDCHAR
STARTCHAR Uacute
ENCODING 218
SWIDTH 752 0
DWIDTH 8 0
BBX 8 11 0 0
BITMAP
0C
18
00
E7
42
42
42
42
42
22
3C
ENDCHAR
STARTCHAR Ucircumflex
ENCODING 219
SWIDTH 752 0
DWIDTH 8 0
BBX 8 11 0 0
BITMAP
08
14
00
E7
42
42
42
42
42
22
3C
ENDCHAR
STARTCHAR Udieresis
ENCODING 220
SWIDTH 752 0
DWIDTH 8 0
BBX 8 10 0 0
BITMAP
14
00
E7
42
42
42
42
42
22
3C
ENDCHAR
STARTCHAR Yacute
ENCODING 221
SWIDTH 647 0
DWIDTH 7 0
BBX 7 11 0 0
BITMAP
08
10
00
E6
64
28
38
10
10
10
38
ENDCHAR
STARTCHAR Thorn
ENCODING 222
SWIDTH 572 0
DWIDTH 6 0
BBX 6 8 0 0
BITMAP
F0
78
44
44
44
78
40
F0
ENDCHAR
STARTCHAR germandbls
ENCODING 223
SWIDTH 563 0
DWIDTH 6 0
BBX 6 9 0 0
BITMAP
38
48
48
D0
48
44
44
54
D8
ENDCHAR
STARTCHAR agrave
ENCODING 224
SWIDTH 480 0
DWIDTH 5 0
BBX 5 8 0 0
BITMAP
60
20
50
50
30
50
90
78
ENDCHAR
STARTCHAR aacute
ENCODING 225
SWIDTH 480 0
DWIDTH 5 0
BBX 5 8 0 0
BITMAP
10
20
50
50
30
50
90
78
ENDCHAR
STARTCHAR acircumflex
ENCODING 226
SWIDTH 480 0
DWIDTH 5 0
BBX 5 8 0 0
BITMAP
20
50
70
50
30
50
90
78
ENDCHAR
STARTCHAR atilde
ENCODING 227
SWIDTH 480 0
DWIDTH 5 0
BBX 5 8 0 0
BITMAP
68
50
70
50
30
50
90
78
ENDCHAR
STARTCHAR adieresis
ENCODING 228
SWIDTH 480 0
DWIDTH 5 0
BBX 5 8 0 0
BITMAP
50
00
70
50
30
50
90
78
ENDCHAR
STARTCHAR aring
ENCODING 229
SWIDTH 480 0
DWIDTH 5 0
BBX 5 9 0 0
BITMAP
20
50
20
50
50
30
50
90
78
ENDCHAR
STARTCHAR ae
ENCODING 230
SWIDTH 709 0
DWIDTH 8 0
BBX 7 6 0 0
BITMAP
7E
52
3E
50
92
6E
ENDCHAR
STARTCHAR ccedilla
ENCODING 231
SWIDTH 446 0
DWIDTH 5 0
BBX 5 9 0 -3
BITMAP
70
48
80
80
48
70
20
30
30
ENDCHAR
STARTCHAR egrave
ENCODING 232
SWIDTH 464 0
DWIDTH 5 0
BBX 5 8 0 0
BITMAP
60
20
70
88
F8
80
48
70
ENDCHAR
STARTCHAR eacute
ENCODING 233
SWIDTH 464 0
DWIDTH 5 0
BBX 5 8 0 0
BITMAP
10
20
70
88
F8
80
48
70
ENDCHAR
STARTCHAR ecircumflex
ENCODING 234
SWIDTH 464 0
DWIDTH 5 0
BBX 5 8 0 0
BITMAP
20
50
70
88
F8
80
48
70
ENDCHAR
STARTCHAR edieresis
ENCODING 235
SWIDTH 464 0
DWIDTH 5 0
BBX 5 8 0 0
BITMAP
50
00
70
88
F8
80
48
70
ENDCHAR
STARTCHAR igrave
ENCODING 236
SWIDTH 285 0
DWIDTH 3 0
BBX 3 8 0 0
BITMAP
80
40
C0
40
40
40
40
E0
ENDCHAR
STARTCHAR iacute
ENCODING 237
SWIDTH 285 0
DWIDTH 3 0
BBX 3 8 0 0
BITMAP
60
40
C0
40
40
40
40
E0
ENDCHAR
STARTCHAR icircumflex
ENCODING 238
SWIDTH 285 0
DWIDTH 3 0
BBX 3 9 0 0
BITMAP
40
A0
00
C0
40
40
40
40
E0
ENDCHAR
STARTCHAR idieresis
ENCODING 239
SWIDTH 285 0
DWIDTH 3 0
BBX 3 8 0 0
BITMAP
A0
00
C0
40
40
40
40
E0
ENDCHAR
STARTCHAR eth
ENCODING 240
SWIDTH 532 0
DWIDTH 6 0
BBX 5 9 0 0
BITMAP
78
30
08
78
48
88
88
48
70
ENDCHAR
STARTCHAR ntilde
ENCODING 241
SWIDTH 576 0
DWIDTH 6 0
BBX 6 8 0 0
BITMAP
38
58
F8
48
48
48
48
EC
ENDCHAR
STARTCHAR ograve
ENCODING 242
SWIDTH 514 0
DWIDTH 6 0
BBX 5 8 0 0
BITMAP
20
20
50
48
88
88
48
70
ENDCHAR
STARTCHAR oacute
ENCODING 243
SWIDTH 514 0
DWIDTH 6 0
BBX 5 8 0 0
BITMAP
10
20
50
48
88
88
48
70
ENDCHAR
STARTCHAR ocircumflex
ENCODING 244
SWIDTH 514 0
DWIDTH 6 0
BBX 5 8 0 0
BITMAP
30
50
70
48
88
88
48
70
ENDCHAR
STARTCHAR otilde
ENCODING 245
SWIDTH 514 0
DWIDTH 6 0
BBX 5 8 0 0
BITMAP
28
50
70
48
88
88
48
70
ENDCHAR
STARTCHAR odieresis
ENCODING 246
SWIDTH 514 0
DWIDTH 6 0
BBX 5 8 0 0
BITMAP
58
00
70
48
88
88
48
70
ENDCHAR
STARTCHAR divide
ENCODING 247
SWIDTH 720 0
DWIDTH 8 0
BBX 6 7 1 0
BITMAP
30
00
00
FC
00
00
30
ENDCHAR
STARTCHAR oslash
ENCODING 248
SWIDTH 514 0
DWIDTH 6 0
BBX 5 6 0 0
BITMAP
78
58
A8
A8
48
F0
ENDCHAR
STARTCHAR ugrave
ENCODING 249
SWIDTH 570 0
DWIDTH 6 0
BBX 6 8 0 0
BITMAP
20
10
D8
48
48
48
48
7C
ENDCHAR
STARTCHAR uacute
ENCODING 250
SWIDTH 570 0
DWIDTH 6 0
BBX 6 8 0 0
BITMAP
10
20
D8
48
48
48
48
7C
ENDCHAR
STARTCHAR ucircumflex
ENCODING 251
SWIDTH 570 0
DWIDTH 6 0
BBX 6 8 0 0
BITMAP
30
30
D8
48
48
48
48
7C
ENDCHAR
STARTCHAR udieresis
ENCODING 252
SWIDTH 570 0
DWIDTH 6 0
BBX 6 8 0 0
BITMAP
48
00
D8
48
48
48
48
7C
ENDCHAR
STARTCHAR yacute
ENCODING 253
SWIDTH 483 0
DWIDTH 5 0
BBX 5 11 0 -3
BITMAP
10
20
C8
48
50
30
30
20
20
20
C0
ENDCHAR
STARTCHAR thorn
ENCODING 254
SWIDTH 524 0
DWIDTH 6 0
BBX 5 12 0 -3
BITMAP
C0
40
40
78
48
48
48
48
70
40
40
E0
ENDCHAR
STARTCHAR ydieresis
ENCODING 255
SWIDTH 483 0
DWIDTH 5 0
BBX 5 11 0 -3
BITMAP
58
00
C8
48
50
30
30
20
20
20
C0
ENDCHAR
STARTCHAR Amacron
ENCODING 256
SWIDTH 718 0
DWIDTH 8 0
BBX 8 10 0 0
BITMAP
3C
00
10
18
18
2C
24
3C
46
C7
ENDCHAR
STARTCHAR amacron
ENCODING 257
SWIDTH 480 0
DWIDTH 5 0
BBX 5 8 0 0
BITMAP
70
00
70
50
30
50
90
78
ENDCHAR
STARTCHAR Abreve
ENCODING 258
SWIDTH 718 0
DWIDTH 8 0
BBX 8 11 0 0
BITMAP
24
18
00
10
18
18
2C
24
3C
46
C7
ENDCHAR
STARTCHAR abreve
ENCODING 259
SWIDTH 480 0
DWIDTH 5 0
BBX 5 8 0 0
BITMAP
50
70
50
50
30
50
90
78
ENDCHAR
STARTCHAR Aogonek
ENCODING 260
SWIDTH 719 0
DWIDTH 8 0
BBX 8 11 0 -3
BITMAP
10
18
18
2C
24
3C
46
C7
08
08
0C
ENDCHAR
STARTCHAR aogonek
ENCODING 261
SWIDTH 480 0
DWIDTH 5 0
BBX 5 9 0 -3
BITMAP
70
50
30
50
90
78
10
10
18
ENDCHAR
STARTCHAR Cacute
ENCODING 262
SWIDTH 670 0
DWIDTH 7 0
BBX 6 11 1 0
BITMAP
10
20
00
7C
84
84
80
80
80
84
78
ENDCHAR
STARTCHAR cacute
ENCODING 263
SWIDTH 446 0
DWIDTH 5 0
BBX 5 8 0 0
BITMAP
10
20
50
48
80
80
48
70
ENDCHAR
STARTCHAR Ccircumflex
ENCODING 264
SWIDTH 670 0
DWIDTH 7 0
BBX 6 11 1 0
BITMAP
10
38
00
7C
84
84
80
80
80
84
78
ENDCHAR
STARTCHAR ccircumflex
ENCODING 265
SWIDTH 446 0
DWIDTH 5 0
BBX 5 8 0 0
BITMAP
20
50
70
48
80
80
48
70
ENDCHAR
STARTCHAR Cdotaccent
ENCODING 266
SWIDTH 670 0
DWIDTH 7 0
BBX 6 10 1 0
BITMAP
10
00
7C
84
84
80
80
80
84
78
ENDCHAR
STARTCHAR cdotaccent
ENCODING 267
SWIDTH 446 0
DWIDTH 5 0
BBX 5 8 0 0
BITMAP
20
00
70
48
80
80
48
70
ENDCHAR
STARTCHAR Ccaron
ENCODING 268
SWIDTH 670 0
DWIDTH 7 0
BBX 6 11 1 0
BITMAP
48
30
00
7C
84
84
80
80
80
84
78
ENDCHAR
STARTCHAR ccaron
ENCODING 269
SWIDTH 446 0
DWIDTH 5 0
BBX 5 9 0 0
BITMAP
50
20
00
70
48
80
80
48
70
ENDCHAR
STARTCHAR Dcaron
ENCODING 270
SWIDTH 730 0
DWIDTH 8 0
BBX 7 11 0 0
BITMAP
24
18
00
FC
42
42
42
42
42
42
FC
ENDCHAR
STARTCHAR dcaron
ENCODING 271
SWIDTH 626 0
DWIDTH 7 0
BBX 7 9 0 0
BITMAP
1A
0A
08
78
48
88
88
48
7C
ENDCHAR
STARTCHAR Dcroat
ENCODING 272
SWIDTH 733 0
DWIDTH 8 0
BBX 7 8 0 0
BITMAP
FC
42
42
F2
42
42
42
FC
ENDCHAR
STARTCHAR dcroat
ENCODING 273
SWIDTH 540 0
DWIDTH 6 0
BBX 6 9 0 0
BITMAP
18
08
3C
78
48
88
88
48
7C
ENDCHAR
STARTCHAR Emacron
ENCODING 274
SWIDTH 626 0
DWIDTH 7 0
BBX 7 10 0 0
BITMAP
38
00
FC
42
44
78
44
42
42
FC
ENDCHAR
STARTCHAR emacron
ENCODING 275
SWIDTH 464 0
DWIDTH 5 0
BBX 5 8 0 0
BITMAP
70
00
70
88
F8
80
48
70
ENDCHAR
STARTCHAR Ebreve
ENCODING 276
SWIDTH 626 0
DWIDTH 7 0
BBX 7 11 0 0
BITMAP
28
38
00
FC
42
44
78
44
42
42
FC
ENDCHAR
STARTCHAR ebreve
ENCODING 277
SWIDTH 464 0
DWIDTH 5 0
BBX 5 8 0 0
BITMAP
50
30
70
88
F8
80
48
70
ENDCHAR
STARTCHAR Edotaccent
ENCODING 278
SWIDTH 626 0
DWIDTH 7 0
BBX 7 10 0 0
BITMAP
10
00
FC
42
44
78
44
42
42
FC
ENDCHAR
STARTCHAR edotaccent
ENCODING 279
SWIDTH 464 0
DWIDTH 5 0
BBX 5 8 0 0
BITMAP
20
00
70
88
F8
80
48
70
ENDCHAR
STARTCHAR Eogonek
ENCODING 280
SWIDTH 625 0
DWIDTH 7 0
BBX 7 11 0 -3
BITMAP
FC
42
44
44
78
40
42
FC
04
08
0E
ENDCHAR
STARTCHAR eogonek
ENCODING 281
SWIDTH 464 0
DWIDTH 5 0
BBX 5 9 0 -3
BITMAP
70
88
F8
80
48
70
20
20
30
ENDCHAR
STARTCHAR Ecaron
ENCODING 282
SWIDTH 626 0
DWIDTH 7 0
BBX 7 11 0 0
BITMAP
28
10
00
FC
42
44
78
44
42
42
FC
ENDCHAR
STARTCHAR ecaron
ENCODING 283
SWIDTH 464 0
DWIDTH 5 0
BBX 5 9 0 0
BITMAP
50
20
00
70
88
F8
80
48
70
ENDCHAR
STARTCHAR Gcircumflex
ENCODING 284
SWIDTH 720 0
DWIDTH 8 0
BBX 7 11 1 0
BITMAP
10
38
00
7C
84
84
80
8E
84
84
78
ENDCHAR
STARTCHAR gcircumflex
ENCODING 285
SWIDTH 484 0
DWIDTH 5 0
BBX 5 11 0 -3
BITMAP
20
50
78
48
50
70
40
F8
88
88
70
ENDCHAR
STARTCHAR Gbreve
ENCODING 286
SWIDTH 720 0
DWIDTH 8 0
BBX 7 11 1 0
BITMAP
48
30
00
7C
84
84
80
8E
84
84
78
ENDCHAR
STARTCHAR gbreve
ENCODING 287
SWIDTH 484 0
DWIDTH 5 0
BBX 5 11 0 -3
BITMAP
50
30
58
48
50
70
40
F8
88
88
70
ENDCHAR
STARTCHAR Gdotaccent
ENCODING 288
SWIDTH 720 0
DWIDTH 8 0
BBX 7 10 1 0
BITMAP
10
00
7C
84
84
80
8E
84
84
78
ENDCHAR
STARTCHAR gdotaccent
ENCODING 289
SWIDTH 484 0
DWIDTH 5 0
BBX 5 11 0 -3
BITMAP
20
00
78
48
50
70
40
F8
88
88
70
ENDCHAR
STARTCHAR Gcommaaccent
ENCODING 290
SWIDTH 720 0
DWIDTH 8 0
BBX 7 12 1 -4
BITMAP
7C
84
84
80
8E
84
84
78
00
30
10
20
ENDCHAR
STARTCHAR gcommaaccent
ENCODING 291
SWIDTH 484 0
DWIDTH 5 0
BBX 5 12 0 -3
BITMAP
20
20
00
78
48
50
70
40
F8
88
88
70
ENDCHAR
STARTCHAR Hcircumflex
ENCODING 292
SWIDTH 777 0
DWIDTH 9 0
BBX 8 11 0 0
BITMAP
08
14
00
F7
42
42
7E
42
42
42
F7
ENDCHAR
STARTCHAR hcircumflex
ENCODING 293
SWIDTH 577 0
DWIDTH 6 0
BBX 6 11 0 0
BITMAP
20
38
C0
40
40
78
48
48
48
48
EC
ENDCHAR
STARTCHAR Hbar
ENCODING 294
SWIDTH 788 0
DWIDTH 9 0
BBX 8 8 0 0
BITMAP
F7
22
FF
3E
22
22
22
F7
ENDCHAR
STARTCHAR hbar
ENCODING 295
SWIDTH 579 0
DWIDTH 6 0
BBX 6 9 0 0
BITMAP
C0
40
F0
78
48
48
48
48
EC
ENDCHAR
STARTCHAR Itilde
ENCODING 296
SWIDTH 357 0
DWIDTH 4 0
BBX 4 10 0 0
BITMAP
F0
00
F0
40
40
40
40
40
40
F0
ENDCHAR
STARTCHAR itilde
ENCODING 297
SWIDTH 285 0
DWIDTH 3 0
BBX 3 8 0 0
BITMAP
E0
E0
C0
40
40
40
40
E0
ENDCHAR
STARTCHAR Imacron
ENCODING 298
SWIDTH 357 0
DWIDTH 4 0
BBX 4 10 0 0
BITMAP
F0
00
F0
40
40
40
40
40
40
F0
ENDCHAR
STARTCHAR imacron
ENCODING 299
SWIDTH 285 0
DWIDTH 3 0
BBX 3 8 0 0
BITMAP
E0
00
C0
40
40
40
40
E0
ENDCHAR
STARTCHAR Ibreve
ENCODING 300
SWIDTH 357 0
DWIDTH 4 0
BBX 4 11 0 0
BITMAP
90
60
00
F0
40
40
40
40
40
40
F0
ENDCHAR
STARTCHAR ibreve
ENCODING 301
SWIDTH 285 0
DWIDTH 3 0
BBX 3 9 0 0
BITMAP
A0
A0
40
C0
40
40
40
40
E0
ENDCHAR
STARTCHAR Iogonek
ENCODING 302
SWIDTH 357 0
DWIDTH 4 0
BBX 4 11 0 -3
BITMAP
F0
40
40
40
40
40
40
F0
40
40
60
ENDCHAR
STARTCHAR iogonek
ENCODING 303
SWIDTH 285 0
DWIDTH 3 0
BBX 3 12 0 -3
BITMAP
40
00
00
C0
40
40
40
40
E0
40
80
60
ENDCHAR
STARTCHAR Idotaccent
ENCODING 304
SWIDTH 357 0
DWIDTH 4 0
BBX 4 10 0 0
BITMAP
60
00
F0
40
40
40
40
40
40
F0
ENDCHAR
STARTCHAR dotlessi
ENCODING 305
SWIDTH 285 0
DWIDTH 3 0
BBX 3 6 0 0
BITMAP
C0
40
40
40
40
E0
ENDCHAR
STARTCHAR IJ
ENCODING 306
SWIDTH 753 0
DWIDTH 8 0
BBX 8 8 0 0
BITMAP
F7
42
42
42
42
42
4A
FE
ENDCHAR
STARTCHAR ij
ENCODING 307
SWIDTH 548 0
DWIDTH 6 0
BBX 5 11 0 -3
BITMAP
48
00
D8
48
48
48
48
E8
08
08
38
ENDCHAR
STARTCHAR Jcircumflex
ENCODING 308
SWIDTH 396 0
DWIDTH 4 0
BBX 4 11 0 0
BITMAP
20
50
00
70
20
20
20
20
20
A0
E0
ENDCHAR
STARTCHAR jcircumflex
ENCODING 309
SWIDTH 263 0
DWIDTH 3 0
BBX 4 11 -1 -3
BITMAP
20
50
60
20
20
20
20
20
20
20
C0
ENDCHAR
STARTCHAR Kcommaaccent
ENCODING 310
SWIDTH 702 0
DWIDTH 8 0
BBX 8 12 0 -4
BITMAP
FE
44
48
50
70
48
44
FF
00
18
08
10
ENDCHAR
STARTCHAR kcommaaccent
ENCODING 311
SWIDTH 542 0
DWIDTH 6 0
BBX 6 13 0 -4
BITMAP
C0
40
40
5C
50
60
50
50
FC
00
30
10
20
ENDCHAR
STARTCHAR kgreenlandic
ENCODING 312
SWIDTH 542 0
DWIDTH 6 0
BBX 6 6 0 0
BITMAP
DC
50
60
70
50
EC
ENDCHAR
STARTCHAR Lacute
ENCODING 313
SWIDTH 585 0
DWIDTH 6 0
BBX 6 11 0 0
BITMAP
10
60
00
F0
40
40
40
40
40
44
FC
ENDCHAR
STARTCHAR lacute
ENCODING 314
SWIDTH 283 0
DWIDTH 3 0
BBX 3 11 0 0
BITMAP
20
40
C0
40
40
40
40
40
40
40
E0
ENDCHAR
STARTCHAR Lcommaaccent
ENCODING 315
SWIDTH 585 0
DWIDTH 6 0
BBX 6 12 0 -4
BITMAP
F0
40
40
40
40
40
44
FC
00
10
10
20
ENDCHAR
STARTCHAR lcommaaccent
ENCODING 316
SWIDTH 283 0
DWIDTH 3 0
BBX 3 13 0 -4
BITMAP
C0
40
40
40
40
40
40
40
E0
00
40
40
40
ENDCHAR
STARTCHAR Lcaron
ENCODING 317
SWIDTH 585 0
DWIDTH 6 0
BBX 6 8 0 0
BITMAP
F4
48
40
40
40
40
44
FC
ENDCHAR
STARTCHAR lcaron
ENCODING 318
SWIDTH 366 0
DWIDTH 4 0
BBX 4 9 0 0
BITMAP
D0
50
40
40
40
40
40
40
E0
ENDCHAR
STARTCHAR Ldot
ENCODING 319
SWIDTH 605 0
DWIDTH 7 0
BBX 6 8 0 0
BITMAP
F0
40
40
44
40
40
44
FC
ENDCHAR
STARTCHAR ldot
ENCODING 320
SWIDTH 357 0
DWIDTH 4 0
BBX 4 9 0 0
BITMAP
C0
40
40
40
50
40
40
40
E0
ENDCHAR
STARTCHAR Lslash
ENCODING 321
SWIDTH 590 0
DWIDTH 6 0
BBX 6 8 0 0
BITMAP
70
20
28
30
E0
20
24
7C
ENDCHAR
STARTCHAR lslash
ENCODING 322
SWIDTH 290 0
DWIDTH 3 0
BBX 3 9 0 0
BITMAP
C0
40
40
60
40
C0
40
40
E0
ENDCHAR
STARTCHAR Nacute
ENCODING 323
SWIDTH 742 0
DWIDTH 8 0
BBX 8 11 0 0
BITMAP
08
10
00
E7
62
52
5A
4A
46
46
E2
ENDCHAR
STARTCHAR nacute
ENCODING 324
SWIDTH 576 0
DWIDTH 6 0
BBX 6 8 0 0
BITMAP
18
10
F8
48
48
48
48
EC
ENDCHAR
STARTCHAR Ncommaaccent
ENCODING 325
SWIDTH 742 0
DWIDTH 8 0
BBX 8 12 0 -4
BITMAP
E7
62
52
5A
4A
46
46
E2
00
18
08
10
ENDCHAR
STARTCHAR ncommaaccent
ENCODING 326
SWIDTH 576 0
DWIDTH 6 0
BBX 6 10 0 -4
BITMAP
F8
48
48
48
48
EC
00
30
10
20
ENDCHAR
STARTCHAR Ncaron
ENCODING 327
SWIDTH 742 0
DWIDTH 8 0
BBX 8 11 0 0
BITMAP
24
18
00
E7
62
52
5A
4A
46
46
E2
ENDCHAR
STARTCHAR ncaron
ENCODING 328
SWIDTH 576 0
DWIDTH 6 0
BBX 6 9 0 0
BITMAP
28
10
00
F8
48
48
48
48
EC
ENDCHAR
STARTCHAR napostrophe
ENCODING 329
SWIDTH 576 0
DWIDTH 6 0
BBX 8 9 -2 0
BITMAP
C0
40
C0
3E
12
12
12
12
3B
ENDCHAR
STARTCHAR Eng
ENCODING 330
SWIDTH 742 0
DWIDTH 8 0
BBX 8 11 0 -3
BITMAP
E7
62
52
5A
4A
46
46
E2
02
02
0C
ENDCHAR
STARTCHAR eng
ENCODING 331
SWIDTH 559 0
DWIDTH 6 0
BBX 5 9 0 -3
BITMAP
F8
48
48
48
48
E8
08
08
38
ENDCHAR
STARTCHAR Omacron
ENCODING 332
SWIDTH 738 0
DWIDTH 8 0
BBX 7 10 1 0
BITMAP
78
00
78
84
84
86
86
84
84
78
ENDCHAR
STARTCHAR omacron
ENCODING 333
SWIDTH 514 0
DWIDTH 6 0
BBX 5 8 0 0
BITMAP
70
00
70
48
88
88
48
70
ENDCHAR
STARTCHAR Obreve
ENCODING 334
SWIDTH 738 0
DWIDTH 8 0
BBX 7 11 1 0
BITMAP
48
30
00
78
84
84
86
86
84
84
78
ENDCHAR
STARTCHAR obreve
ENCODING 335
SWIDTH 514 0
DWIDTH 6 0
BBX 5 8 0 0
BITMAP
48
30
50
48
88
88
48
70
ENDCHAR
STARTCHAR Ohungarumlaut
ENCODING 336
SWIDTH 738 0
DWIDTH 8 0
BBX 7 11 1 0
BITMAP
18
28
10
78
84
84
86
86
84
84
78
ENDCHAR
STARTCHAR ohungarumlaut
ENCODING 337
SWIDTH 514 0
DWIDTH 6 0
BBX 5 8 0 0
BITMAP
38
30
50
48
88
88
48
70
ENDCHAR
STARTCHAR OE
ENCODING 338
SWIDTH 945 0
DWIDTH 10 0
BBX 9 8 1 0
BITMAP
7F80
8880
8900
8F00
8900
8880
8880
7F80
ENDCHAR
STARTCHAR oe
ENCODING 339
SWIDTH 807 0
DWIDTH 9 0
BBX 9 6 0 0
BITMAP
7700
4900
8F80
8800
4C80
7700
ENDCHAR
STARTCHAR Racute
ENCODING 340
SWIDTH 659 0
DWIDTH 7 0
BBX 7 11 0 0
BITMAP
08
30
00
F8
44
44
44
78
48
4C
F6
ENDCHAR
STARTCHAR racute
ENCODING 341
SWIDTH 380 0
DWIDTH 4 0
BBX 4 8 0 0
BITMAP
20
20
F0
40
40
40
40
E0
ENDCHAR
STARTCHAR Rcommaaccent
ENCODING 342
SWIDTH 659 0
DWIDTH 7 0
BBX 7 12 0 -4
BITMAP
F8
44
44
44
78
48
4C
F6
00
10
08
10
ENDCHAR
STARTCHAR rcommaaccent
ENCODING 343
SWIDTH 380 0
DWIDTH 4 0
BBX 4 10 0 -4
BITMAP
F0
40
40
40
40
E0
00
40
20
40
ENDCHAR
STARTCHAR Rcaron
ENCODING 344
SWIDTH 659 0
DWIDTH 7 0
BBX 7 11 0 0
BITMAP
28
10
00
F8
44
44
44
78
48
4C
F6
ENDCHAR
STARTCHAR rcaron
ENCODING 345
SWIDTH 380 0
DWIDTH 4 0
BBX 4 9 0 0
BITMAP
50
20
00
F0
40
40
40
40
E0
ENDCHAR
STARTCHAR Sacute
ENCODING 346
SWIDTH 504 0
DWIDTH 6 0
BBX 5 11 0 0
BITMAP
10
20
00
78
48
48
60
18
88
88
F0
ENDCHAR
STARTCHAR sacute
ENCODING 347
SWIDTH 394 0
DWIDTH 4 0
BBX 4 8 0 0
BITMAP
20
20
50
90
40
30
90
F0
ENDCHAR
STARTCHAR Scircumflex
ENCODING 348
SWIDTH 504 0
DWIDTH 6 0
BBX 5 11 0 0
BITMAP
20
50
00
78
48
48
60
18
88
88
F0
ENDCHAR
STARTCHAR scircumflex
ENCODING 349
SWIDTH 394 0
DWIDTH 4 0
BBX 4 8 0 0
BITMAP
20
50
70
90
40
30
90
F0
ENDCHAR
STARTCHAR uni015E
ENCODING 350
SWIDTH 504 0
DWIDTH 6 0
BBX 5 11 0 -3
BITMAP
78
48
48
60
18
88
88
F0
20
10
20
ENDCHAR
STARTCHAR uni015F
ENCODING 351
SWIDTH 394 0
DWIDTH 4 0
BBX 4 9 0 -3
BITMAP
70
90
40
30
90
D0
20
20
60
ENDCHAR
STARTCHAR Scaron
ENCODING 352
SWIDTH 504 0
DWIDTH 6 0
BBX 5 11 0 0
BITMAP
48
30
00
78
48
48
60
18
88
88
F0
ENDCHAR
STARTCHAR scaron
ENCODING 353
SWIDTH 394 0
DWIDTH 4 0
BBX 4 9 0 0
BITMAP
50
20
00
70
90
40
30
90
F0
ENDCHAR
STARTCHAR uni0162
ENCODING 354
SWIDTH 603 0
DWIDTH 7 0
BBX 6 11 0 -3
BITMAP
FC
94
10
10
10
10
10
38
10
08
30
ENDCHAR
STARTCHAR uni0163
ENCODING 355
SWIDTH 315 0
DWIDTH 3 0
BBX 3 11 0 -3
BITMAP
40
40
E0
40
40
40
40
60
20
20
60
ENDCHAR
STARTCHAR Tcaron
ENCODING 356
SWIDTH 603 0
DWIDTH 7 0
BBX 6 11 0 0
BITMAP
48
30
00
FC
94
10
10
10
10
10
38
ENDCHAR
STARTCHAR tcaron
ENCODING 357
SWIDTH 353 0
DWIDTH 4 0
BBX 4 9 0 0
BITMAP
10
50
40
E0
40
40
40
40
60
ENDCHAR
STARTCHAR Tbar
ENCODING 358
SWIDTH 603 0
DWIDTH 7 0
BBX 6 8 0 0
BITMAP
FC
94
10
78
10
10
10
38
ENDCHAR
STARTCHAR tbar
ENCODING 359
SWIDTH 328 0
DWIDTH 4 0
BBX 3 8 0 0
BITMAP
40
40
E0
40
E0
40
40
60
ENDCHAR
STARTCHAR Utilde
ENCODING 360
SWIDTH 752 0
DWIDTH 8 0
BBX 8 10 0 0
BITMAP
1C
00
E7
42
42
42
42
42
22
3C
ENDCHAR
STARTCHAR utilde
ENCODING 361
SWIDTH 570 0
DWIDTH 6 0
BBX 6 8 0 0
BITMAP
28
50
D8
48
48
48
48
7C
ENDCHAR
STARTCHAR Umacron
ENCODING 362
SWIDTH 752 0
DWIDTH 8 0
BBX 8 10 0 0
BITMAP
1C
00
E7
42
42
42
42
42
22
3C
ENDCHAR
STARTCHAR umacron
ENCODING 363
SWIDTH 570 0
DWIDTH 6 0
BBX 6 8 0 0
BITMAP
78
00
D8
48
48
48
48
7C
ENDCHAR
STARTCHAR Ubreve
ENCODING 364
SWIDTH 752 0
DWIDTH 8 0
BBX 8 11 0 0
BITMAP
14
18
00
E7
42
42
42
42
42
22
3C
ENDCHAR
STARTCHAR ubreve
ENCODING 365
SWIDTH 570 0
DWIDTH 6 0
BBX 6 8 0 0
BITMAP
48
30
D8
48
48
48
48
7C
ENDCHAR
STARTCHAR Uring
ENCODING 366
SWIDTH 752 0
DWIDTH 8 0
BBX 8 11 0 0
BITMAP
08
14
08
E7
42
42
42
42
42
22
3C
ENDCHAR
STARTCHAR uring
ENCODING 367
SWIDTH 570 0
DWIDTH 6 0
BBX 6 9 0 0
BITMAP
30
30
30
D8
48
48
48
48
7C
ENDCHAR
STARTCHAR Uhungarumlaut
ENCODING 368
SWIDTH 752 0
DWIDTH 8 0
BBX 8 11 0 0
BITMAP
0A
14
00
E7
42
42
42
42
42
22
3C
ENDCHAR
STARTCHAR uhungarumlaut
ENCODING 369
SWIDTH 570 0
DWIDTH 6 0
BBX 6 8 0 0
BITMAP
18
30
D8
48
48
48
48
7C
ENDCHAR
STARTCHAR Uogonek
ENCODING 370
SWIDTH 753 0
DWIDTH 8 0
BBX 8 11 0 -3
BITMAP
E7
42
42
42
42
42
22
3C
08
08
0C
ENDCHAR
STARTCHAR uogonek
ENCODING 371
SWIDTH 570 0
DWIDTH 6 0
BBX 6 9 0 -3
BITMAP
D8
48
48
48
48
7C
08
10
1C
ENDCHAR
STARTCHAR Wcircumflex
ENCODING 372
SWIDTH 944 0
DWIDTH 10 0
BBX 10 11 0 0
BITMAP
0400
1E00
0000
ECC0
4440
6480
2680
2A80
3B00
1300
1100
ENDCHAR
STARTCHAR wcircumflex
ENCODING 373
SWIDTH 749 0
DWIDTH 8 0
BBX 8 8 0 0
BITMAP
18
14
DB
49
4A
36
24
24
ENDCHAR
STARTCHAR Ycircumflex
ENCODING 374
SWIDTH 647 0
DWIDTH 7 0
BBX 7 11 0 0
BITMAP
10
28
00
E6
64
28
38
10
10
10
38
ENDCHAR
STARTCHAR ycircumflex
ENCODING 375
SWIDTH 483 0
DWIDTH 5 0
BBX 5 11 0 -3
BITMAP
30
50
C8
48
50
30
30
20
20
20
C0
ENDCHAR
STARTCHAR Ydieresis
ENCODING 376
SWIDTH 647 0
DWIDTH 7 0
BBX 7 10 0 0
BITMAP
2C
00
E6
64
28
38
10
10
10
38
ENDCHAR
STARTCHAR Zacute
ENCODING 377
SWIDTH 594 0
DWIDTH 7 0
BBX 6 11 0 0
BITMAP
08
30
00
7C
88
08
10
30
20
44
FC
ENDCHAR
STARTCHAR zacute
ENCODING 378
SWIDTH 458 0
DWIDTH 5 0
BBX 5 8 0 0
BITMAP
10
20
78
90
20
20
48
F8
ENDCHAR
STARTCHAR Zdotaccent
ENCODING 379
SWIDTH 594 0
DWIDTH 7 0
BBX 6 10 0 0
BITMAP
10
00
7C
88
08
10
30
20
44
FC
ENDCHAR
STARTCHAR zdotaccent
ENCODING 380
SWIDTH 458 0
DWIDTH 5 0
BBX 5 8 0 0
BITMAP
20
00
78
90
20
20
48
F8
ENDCHAR
STARTCHAR Zcaron
ENCODING 381
SWIDTH 594 0
DWIDTH 7 0
BBX 6 11 0 0
BITMAP
28
10
00
7C
88
08
10
30
20
44
FC
ENDCHAR
STARTCHAR zcaron
ENCODING 382
SWIDTH 458 0
DWIDTH 5 0
BBX 5 9 0 0
BITMAP
50
20
00
78
90
20
20
48
F8
ENDCHAR
STARTCHAR longs
ENCODING 383
SWIDTH 285 0
DWIDTH 3 0
BBX 4 9 0 0
BITMAP
30
40
40
C0
40
40
40
40
E0
ENDCHAR
STARTCHAR uni0180
ENCODING 384
SWIDTH 522 0
DWIDTH 6 0
BBX 5 9 0 0
BITMAP
C0
40
F0
78
48
48
48
48
70
ENDCHAR
STARTCHAR uni0188
ENCODING 392
SWIDTH 446 0
DWIDTH 5 0
BBX 6 8 0 0
BITMAP
0C
10
70
48
80
80
48
70
ENDCHAR
STARTCHAR uni0190
ENCODING 400
SWIDTH 518 0
DWIDTH 6 0
BBX 5 8 0 0
BITMAP
78
48
40
30
40
C0
48
70
ENDCHAR
STARTCHAR uni0192
ENCODING 402
SWIDTH 301 0
DWIDTH 3 0
BBX 5 12 -1 -3
BITMAP
18
20
20
70
20
20
20
20
20
20
20
E0
ENDCHAR
STARTCHAR uni0195
ENCODING 405
SWIDTH 798 0
DWIDTH 9 0
BBX 8 9 0 0
BITMAP
C0
40
40
79
49
49
49
49
E6
ENDCHAR
STARTCHAR uni0199
ENCODING 409
SWIDTH 538 0
DWIDTH 6 0
BBX 6 9 0 0
BITMAP
30
40
40
58
50
60
70
50
FC
ENDCHAR
STARTCHAR uni019A
ENCODING 410
SWIDTH 287 0
DWIDTH 3 0
BBX 3 9 0 0
BITMAP
C0
40
40
40
E0
40
40
40
E0
ENDCHAR
STARTCHAR uni019B
ENCODING 411
SWIDTH 495 0
DWIDTH 5 0
BBX 6 9 0 0
BITMAP
D0
20
60
20
30
30
48
48
CC
ENDCHAR
STARTCHAR uni019E
ENCODING 414
SWIDTH 559 0
DWIDTH 6 0
BBX 6 9 0 -3
BITMAP
F8
48
48
48
48
E8
08
08
0C
ENDCHAR
STARTCHAR Ohorn
ENCODING 416
SWIDTH 737 0
DWIDTH 8 0
BBX 7 10 1 0
BITMAP
02
02
7C
84
84
86
86
84
84
78
ENDCHAR
STARTCHAR ohorn
ENCODING 417
SWIDTH 516 0
DWIDTH 6 0
BBX 6 8 0 0
BITMAP
04
04
78
48
88
88
48
70
ENDCHAR
STARTCHAR uni01A5
ENCODING 421
SWIDTH 522 0
DWIDTH 6 0
BBX 5 12 0 -3
BITMAP
70
40
40
78
48
48
48
48
70
40
40
E0
ENDCHAR
STARTCHAR uni01AA
ENCODING 426
SWIDTH 298 0
DWIDTH 3 0
BBX 5 12 -1 -3
BITMAP
E0
A0
A0
60
20
20
20
20
20
20
20
18
ENDCHAR
STARTCHAR uni01AB
ENCODING 427
SWIDTH 321 0
DWIDTH 4 0
BBX 3 11 0 -3
BITMAP
40
40
E0
40
40
40
40
60
20
20
60
ENDCHAR
STARTCHAR uni01AD
ENCODING 429
SWIDTH 315 0
DWIDTH 3 0
BBX 4 9 0 0
BITMAP
30
40
40
E0
40
40
40
40
60
ENDCHAR
STARTCHAR Uhorn
ENCODING 431
SWIDTH 762 0
DWIDTH 8 0
BBX 9 11 0 0
BITMAP
0080
0080
0080
E700
4200
4200
4200
4200
4200
2200
3C00
ENDCHAR
STARTCHAR uhorn
ENCODING 432
SWIDTH 574 0
DWIDTH 6 0
BBX 6 8 0 0
BITMAP
04
04
D8
48
48
48
48
7C
ENDCHAR
STARTCHAR uni01B5
ENCODING 437
SWIDTH 594 0
DWIDTH 7 0
BBX 6 8 0 0
BITMAP
7C
88
18
78
20
20
44
FC
ENDCHAR
STARTCHAR uni01BA
ENCODING 442
SWIDTH 430 0
DWIDTH 5 0
BBX 4 9 0 -3
BITMAP
F0
A0
20
70
10
10
60
90
70
ENDCHAR
STARTCHAR uni01BB
ENCODING 443
SWIDTH 508 0
DWIDTH 6 0
BBX 5 9 0 0
BITMAP
70
88
08
08
78
20
20
48
F8
ENDCHAR
STARTCHAR uni01BE
ENCODING 446
SWIDTH 406 0
DWIDTH 4 0
BBX 4 8 0 0
BITMAP
40
40
E0
60
10
10
90
F0
ENDCHAR
STARTCHAR uni01C0
ENCODING 448
SWIDTH 250 0
DWIDTH 3 0
BBX 1 9 1 0
BITMAP
80
80
80
80
80
80
80
80
80
ENDCHAR
STARTCHAR uni01C1
ENCODING 449
SWIDTH 423 0
DWIDTH 5 0
BBX 3 9 1 0
BITMAP
A0
A0
A0
A0
A0
A0
A0
A0
A0
ENDCHAR
STARTCHAR uni01C2
ENCODING 450
SWIDTH 422 0
DWIDTH 5 0
BBX 4 9 0 0
BITMAP
20
20
20
F0
20
F0
20
20
20
ENDCHAR
STARTCHAR uni01C3
ENCODING 451
SWIDTH 245 0
DWIDTH 3 0
BBX 1 9 1 0
BITMAP
80
80
80
80
80
80
80
00
80
ENDCHAR
STARTCHAR uni01DE
ENCODING 478
SWIDTH 718 0
DWIDTH 8 0
BBX 8 11 0 0
BITMAP
3C
2C
00
10
18
18
2C
24
3C
46
C7
ENDCHAR
STARTCHAR uni01DF
ENCODING 479
SWIDTH 480 0
DWIDTH 5 0
BBX 5 10 0 0
BITMAP
70
00
50
00
70
50
30
50
90
78
ENDCHAR
STARTCHAR uni01F0
ENCODING 496
SWIDTH 263 0
DWIDTH 3 0
BBX 4 12 -1 -3
BITMAP
50
20
00
60
20
20
20
20
20
20
20
C0
ENDCHAR
STARTCHAR Aringacute
ENCODING 506
SWIDTH 718 0
DWIDTH 8 0
BBX 8 13 0 0
BITMAP
08
10
18
28
18
10
18
18
2C
24
3C
46
C7
ENDCHAR
STARTCHAR aringacute
ENCODING 507
SWIDTH 480 0
DWIDTH 5 0
BBX 5 11 0 0
BITMAP
10
60
20
50
20
50
50
30
50
90
78
ENDCHAR
STARTCHAR AEacute
ENCODING 508
SWIDTH 894 0
DWIDTH 10 0
BBX 10 11 0 0
BITMAP
0200
0400
0000
1F80
1480
1480
2480
3F00
4440
4440
DF80
ENDCHAR
STARTCHAR aeacute
ENCODING 509
SWIDTH 709 0
DWIDTH 8 0
BBX 7 8 0 0
BITMAP
08
10
7E
52
3E
50
92
6E
ENDCHAR
STARTCHAR Oslashacute
ENCODING 510
SWIDTH 737 0
DWIDTH 8 0
BBX 7 11 1 0
BITMAP
10
20
00
7C
84
8C
96
A6
C4
84
F8
ENDCHAR
STARTCHAR oslashacute
ENCODING 511
SWIDTH 514 0
DWIDTH 6 0
BBX 5 8 0 0
BITMAP
10
20
58
58
A8
A8
48
F0
ENDCHAR
STARTCHAR uni0218
ENCODING 536
SWIDTH 504 0
DWIDTH 6 0
BBX 5 12 0 -4
BITMAP
78
48
48
60
18
88
88
F0
00
20
10
20
ENDCHAR
STARTCHAR uni0219
ENCODING 537
SWIDTH 394 0
DWIDTH 4 0
BBX 4 10 0 -4
BITMAP
70
90
40
30
90
F0
00
60
20
40
ENDCHAR
STARTCHAR uni021A
ENCODING 538
SWIDTH 603 0
DWIDTH 7 0
BBX 6 12 0 -4
BITMAP
FC
94
10
10
10
10
10
38
00
10
10
20
ENDCHAR
STARTCHAR uni021B
ENCODING 539
SWIDTH 315 0
DWIDTH 3 0
BBX 3 12 0 -4
BITMAP
40
40
E0
40
40
40
40
60
00
60
20
40
ENDCHAR
STARTCHAR uni0221
ENCODING 545
SWIDTH 674 0
DWIDTH 7 0
BBX 7 11 0 -2
BITMAP
18
08
08
78
48
88
88
4A
7E
08
08
ENDCHAR
STARTCHAR uni0228
ENCODING 552
SWIDTH 626 0
DWIDTH 7 0
BBX 7 11 0 -3
BITMAP
FC
42
44
78
44
42
42
FC
10
08
10
ENDCHAR
STARTCHAR uni0229
ENCODING 553
SWIDTH 464 0
DWIDTH 5 0
BBX 5 9 0 -3
BITMAP
70
88
F8
80
48
70
20
10
20
ENDCHAR
STARTCHAR uni0234
ENCODING 564
SWIDTH 399 0
DWIDTH 4 0
BBX 4 11 0 -2
BITMAP
C0
40
40
40
40
40
40
50
70
40
40
ENDCHAR
STARTCHAR uni0235
ENCODING 565
SWIDTH 702 0
DWIDTH 8 0
BBX 8 8 0 -2
BITMAP
F8
48
48
48
4B
EF
04
08
ENDCHAR
STARTCHAR uni0236
ENCODING 566
SWIDTH 406 0
DWIDTH 4 0
BBX 5 10 0 -2
BITMAP
40
40
E0
40
40
40
50
78
40
40
ENDCHAR
STARTCHAR uni0237
ENCODING 567
SWIDTH 263 0
DWIDTH 3 0
BBX 3 9 -1 -3
BITMAP
60
20
20
20
20
20
20
20
C0
ENDCHAR
STARTCHAR uni0250
ENCODING 592
SWIDTH 475 0
DWIDTH 5 0
BBX 5 6 0 0
BITMAP
F8
48
50
60
48
70
ENDCHAR
STARTCHAR uni0251
ENCODING 593
SWIDTH 542 0
DWIDTH 6 0
BBX 6 6 0 0
BITMAP
78
48
88
88
48
7C
ENDCHAR
STARTCHAR uni0252
ENCODING 594
SWIDTH 544 0
DWIDTH 6 0
BBX 6 6 0 0
BITMAP
F8
48
44
44
48
70
ENDCHAR
STARTCHAR uni0253
ENCODING 595
SWIDTH 518 0
DWIDTH 6 0
BBX 4 9 1 0
BITMAP
E0
A0
80
F0
90
90
90
90
E0
ENDCHAR
STARTCHAR uni0254
ENCODING 596
SWIDTH 454 0
DWIDTH 5 0
BBX 5 6 0 0
BITMAP
70
90
08
08
90
70
ENDCHAR
STARTCHAR uni0255
ENCODING 597
SWIDTH 447 0
DWIDTH 5 0
BBX 5 7 0 -1
BITMAP
70
88
80
90
68
70
40
ENDCHAR
STARTCHAR uni0256
ENCODING 598
SWIDTH 528 0
DWIDTH 6 0
BBX 7 12 0 -3
BITMAP
18
08
08
78
48
88
88
48
78
08
08
0E
ENDCHAR
STARTCHAR uni0257
ENCODING 599
SWIDTH 542 0
DWIDTH 6 0
BBX 7 9 0 0
BITMAP
06
0A
08
78
48
88
88
48
7C
ENDCHAR
STARTCHAR uni0258
ENCODING 600
SWIDTH 466 0
DWIDTH 5 0
BBX 5 6 0 0
BITMAP
70
48
F8
08
98
70
ENDCHAR
STARTCHAR uni0259
ENCODING 601
SWIDTH 464 0
DWIDTH 5 0
BBX 5 6 0 0
BITMAP
70
90
08
F8
48
70
ENDCHAR
STARTCHAR uni025A
ENCODING 602
SWIDTH 642 0
DWIDTH 7 0
BBX 7 6 0 0
BITMAP
70
96
0E
F8
48
70
ENDCHAR
STARTCHAR uni025B
ENCODING 603
SWIDTH 399 0
DWIDTH 4 0
BBX 4 6 0 0
BITMAP
70
80
60
80
80
70
ENDCHAR
STARTCHAR uni025C
ENCODING 604
SWIDTH 398 0
DWIDTH 4 0
BBX 4 6 0 0
BITMAP
F0
10
60
10
10
E0
ENDCHAR
STARTCHAR uni025D
ENCODING 605
SWIDTH 575 0
DWIDTH 6 0
BBX 6 6 0 0
BITMAP
F0
9C
64
10
10
F0
ENDCHAR
STARTCHAR uni025E
ENCODING 606
SWIDTH 500 0
DWIDTH 6 0
BBX 5 6 0 0
BITMAP
78
48
B0
88
48
78
ENDCHAR
STARTCHAR uni025F
ENCODING 607
SWIDTH 272 0
DWIDTH 3 0
BBX 4 9 -1 -3
BITMAP
60
20
20
70
20
20
20
20
C0
ENDCHAR
STARTCHAR uni0260
ENCODING 608
SWIDTH 541 0
DWIDTH 6 0
BBX 7 12 0 -3
BITMAP
0E
08
08
78
48
88
88
48
78
08
48
70
ENDCHAR
STARTCHAR uni0261
ENCODING 609
SWIDTH 521 0
DWIDTH 6 0
BBX 5 9 0 -3
BITMAP
78
48
88
88
48
78
08
48
70
ENDCHAR
STARTCHAR uni0262
ENCODING 610
SWIDTH 535 0
DWIDTH 6 0
BBX 6 6 0 0
BITMAP
78
48
80
8C
48
78
ENDCHAR
STARTCHAR uni0263
ENCODING 611
SWIDTH 479 0
DWIDTH 5 0
BBX 5 9 0 -3
BITMAP
C8
48
50
50
20
20
30
50
30
ENDCHAR
STARTCHAR uni0264
ENCODING 612
SWIDTH 466 0
DWIDTH 5 0
BBX 5 6 0 0
BITMAP
F8
A8
50
50
50
70
ENDCHAR
STARTCHAR uni0265
ENCODING 613
SWIDTH 553 0
DWIDTH 6 0
BBX 6 9 0 -3
BITMAP
C8
48
48
48
48
78
08
08
0C
ENDCHAR
STARTCHAR uni0266
ENCODING 614
SWIDTH 577 0
DWIDTH 6 0
BBX 6 9 0 0
BITMAP
38
40
40
78
48
48
48
48
EC
ENDCHAR
STARTCHAR uni0267
ENCODING 615
SWIDTH 562 0
DWIDTH 6 0
BBX 5 12 0 -3
BITMAP
38
40
40
78
48
48
48
48
E8
08
08
38
ENDCHAR
STARTCHAR uni0268
ENCODING 616
SWIDTH 295 0
DWIDTH 3 0
BBX 3 9 0 0
BITMAP
40
00
00
C0
40
E0
40
40
E0
ENDCHAR
STARTCHAR uni0269
ENCODING 617
SWIDTH 286 0
DWIDTH 3 0
BBX 3 6 0 0
BITMAP
C0
40
40
40
40
60
ENDCHAR
STARTCHAR uni026A
ENCODING 618
SWIDTH 287 0
DWIDTH 3 0
BBX 3 6 0 0
BITMAP
E0
40
40
40
40
E0
ENDCHAR
STARTCHAR uni026B
ENCODING 619
SWIDTH 290 0
DWIDTH 3 0
BBX 3 9 0 0
BITMAP
C0
40
40
40
E0
40
40
40
E0
ENDCHAR
STARTCHAR uni026C
ENCODING 620
SWIDTH 318 0
DWIDTH 4 0
BBX 4 9 0 0
BITMAP
40
40
40
C0
D0
E0
40
40
60
ENDCHAR
STARTCHAR uni026D
ENCODING 621
SWIDTH 248 0
DWIDTH 3 0
BBX 4 12 0 -3
BITMAP
C0
40
40
40
40
40
40
40
40
40
40
70
ENDCHAR
STARTCHAR uni026E
ENCODING 622
SWIDTH 590 0
DWIDTH 6 0
BBX 6 12 0 -3
BITMAP
C0
40
40
7C
48
48
50
4C
E4
04
24
38
ENDCHAR
STARTCHAR uni026F
ENCODING 623
SWIDTH 846 0
DWIDTH 9 0
BBX 9 6 0 0
BITMAP
D900
4900
4900
4900
4900
7F80
ENDCHAR
STARTCHAR uni0270
ENCODING 624
SWIDTH 826 0
DWIDTH 9 0
BBX 9 9 0 -3
BITMAP
D900
4900
4900
4900
4900
7F00
0100
0100
0180
ENDCHAR
STARTCHAR uni0271
ENCODING 625
SWIDTH 835 0
DWIDTH 9 0
BBX 8 9 0 -3
BITMAP
FF
49
49
49
49
FD
01
01
07
ENDCHAR
STARTCHAR uni0272
ENCODING 626
SWIDTH 574 0
DWIDTH 6 0
BBX 7 9 -1 -3
BITMAP
7C
24
24
24
24
26
20
20
C0
ENDCHAR
STARTCHAR uni0273
ENCODING 627
SWIDTH 563 0
DWIDTH 6 0
BBX 7 9 0 -3
BITMAP
F8
48
48
48
48
E8
08
08
06
ENDCHAR
STARTCHAR uni0274
ENCODING 628
SWIDTH 568 0
DWIDTH 6 0
BBX 6 6 0 0
BITMAP
CC
64
74
54
48
C8
ENDCHAR
STARTCHAR uni0275
ENCODING 629
SWIDTH 514 0
DWIDTH 6 0
BBX 5 6 0 0
BITMAP
70
48
F8
88
48
70
ENDCHAR
STARTCHAR uni0276
ENCODING 630
SWIDTH 732 0
DWIDTH 8 0
BBX 8 6 0 0
BITMAP
7E
49
8E
8A
49
7F
ENDCHAR
STARTCHAR uni0277
ENCODING 631
SWIDTH 672 0
DWIDTH 7 0
BBX 7 6 0 0
BITMAP
3C
42
92
92
52
6C
ENDCHAR
STARTCHAR uni0278
ENCODING 632
SWIDTH 658 0
DWIDTH 7 0
BBX 7 12 0 -3
BITMAP
30
10
10
7C
52
92
92
52
7C
10
10
38
ENDCHAR
STARTCHAR uni0279
ENCODING 633
SWIDTH 380 0
DWIDTH 4 0
BBX 4 6 0 0
BITMAP
70
20
20
20
20
F0
ENDCHAR
STARTCHAR uni027A
ENCODING 634
SWIDTH 374 0
DWIDTH 4 0
BBX 4 9 0 0
BITMAP
60
20
20
20
20
20
20
20
F0
ENDCHAR
STARTCHAR uni027B
ENCODING 635
SWIDTH 375 0
DWIDTH 4 0
BBX 5 9 0 -3
BITMAP
70
20
20
20
20
E0
20
20
18
ENDCHAR
STARTCHAR uni027C
ENCODING 636
SWIDTH 378 0
DWIDTH 4 0
BBX 4 9 0 -3
BITMAP
F0
40
40
40
40
40
40
40
E0
ENDCHAR
STARTCHAR uni027D
ENCODING 637
SWIDTH 373 0
DWIDTH 4 0
BBX 4 9 0 -3
BITMAP
F0
40
40
40
40
40
40
40
30
ENDCHAR
STARTCHAR uni027E
ENCODING 638
SWIDTH 371 0
DWIDTH 4 0
BBX 4 6 0 0
BITMAP
70
40
40
40
40
E0
ENDCHAR
STARTCHAR uni027F
ENCODING 639
SWIDTH 371 0
DWIDTH 4 0
BBX 4 6 0 0
BITMAP
E0
20
20
20
20
70
ENDCHAR
STARTCHAR uni0280
ENCODING 640
SWIDTH 494 0
DWIDTH 5 0
BBX 6 6 0 0
BITMAP
F0
48
48
70
50
EC
ENDCHAR
STARTCHAR uni0281
ENCODING 641
SWIDTH 494 0
DWIDTH 5 0
BBX 6 6 0 0
BITMAP
EC
50
50
70
48
F0
ENDCHAR
STARTCHAR uni0282
ENCODING 642
SWIDTH 395 0
DWIDTH 4 0
BBX 4 9 0 -3
BITMAP
70
90
40
30
90
F0
80
80
60
ENDCHAR
STARTCHAR uni0283
ENCODING 643
SWIDTH 253 0
DWIDTH 3 0
BBX 5 12 -1 -3
BITMAP
38
20
20
20
20
20
20
20
20
20
20
C0
ENDCHAR
STARTCHAR uni0284
ENCODING 644
SWIDTH 286 0
DWIDTH 3 0
BBX 5 12 -1 -3
BITMAP
18
20
20
20
20
20
20
20
70
20
20
E0
ENDCHAR
STARTCHAR uni0285
ENCODING 645
SWIDTH 361 0
DWIDTH 4 0
BBX 5 9 0 -3
BITMAP
E0
20
20
20
20
20
20
20
18
ENDCHAR
STARTCHAR uni0286
ENCODING 646
SWIDTH 253 0
DWIDTH 3 0
BBX 5 12 -1 -3
BITMAP
18
20
20
20
20
20
20
20
20
60
B0
C0
ENDCHAR
STARTCHAR uni0287
ENCODING 647
SWIDTH 315 0
DWIDTH 3 0
BBX 3 7 0 -1
BITMAP
C0
40
40
40
40
E0
40
ENDCHAR
STARTCHAR uni0288
ENCODING 648
SWIDTH 309 0
DWIDTH 3 0
BBX 4 11 0 -3
BITMAP
40
40
E0
40
40
40
40
40
40
40
30
ENDCHAR
STARTCHAR uni0289
ENCODING 649
SWIDTH 580 0
DWIDTH 6 0
BBX 6 6 0 0
BITMAP
D8
48
FC
48
48
7C
ENDCHAR
STARTCHAR uni028A
ENCODING 650
SWIDTH 548 0
DWIDTH 6 0
BBX 6 6 0 0
BITMAP
48
48
48
84
48
78
ENDCHAR
STARTCHAR uni028B
ENCODING 651
SWIDTH 530 0
DWIDTH 6 0
BBX 5 6 0 0
BITMAP
C8
48
48
48
48
70
ENDCHAR
STARTCHAR uni028C
ENCODING 652
SWIDTH 495 0
DWIDTH 5 0
BBX 6 6 0 0
BITMAP
20
30
50
50
48
DC
ENDCHAR
STARTCHAR uni028D
ENCODING 653
SWIDTH 764 0
DWIDTH 8 0
BBX 9 6 0 0
BITMAP
2400
2400
5A00
5A00
5200
DB80
ENDCHAR
STARTCHAR uni028E
ENCODING 654
SWIDTH 492 0
DWIDTH 5 0
BBX 6 9 0 0
BITMAP
18
10
20
20
20
50
50
48
DC
ENDCHAR
STARTCHAR uni028F
ENCODING 655
SWIDTH 454 0
DWIDTH 5 0
BBX 5 6 0 0
BITMAP
D8
50
50
20
20
70
ENDCHAR
STARTCHAR uni0290
ENCODING 656
SWIDTH 458 0
DWIDTH 5 0
BBX 6 9 0 -3
BITMAP
78
90
20
20
48
F8
08
08
0C
ENDCHAR
STARTCHAR uni0291
ENCODING 657
SWIDTH 458 0
DWIDTH 5 0
BBX 5 8 0 -2
BITMAP
78
90
20
20
58
F8
20
40
ENDCHAR
STARTCHAR uni0292
ENCODING 658
SWIDTH 443 0
DWIDTH 5 0
BBX 5 9 0 -3
BITMAP
F8
90
20
60
10
08
08
88
F0
ENDCHAR
STARTCHAR uni0293
ENCODING 659
SWIDTH 443 0
DWIDTH 5 0
BBX 5 11 0 -5
BITMAP
F8
90
20
60
10
08
48
B0
70
10
10
ENDCHAR
STARTCHAR uni0294
ENCODING 660
SWIDTH 383 0
DWIDTH 4 0
BBX 4 9 0 0
BITMAP
70
90
10
10
20
40
40
40
E0
ENDCHAR
STARTCHAR uni0295
ENCODING 661
SWIDTH 383 0
DWIDTH 4 0
BBX 4 9 0 0
BITMAP
70
90
80
80
40
20
20
20
70
ENDCHAR
STARTCHAR uni0296
ENCODING 662
SWIDTH 408 0
DWIDTH 4 0
BBX 4 9 0 0
BITMAP
C0
40
40
40
20
10
10
90
70
ENDCHAR
STARTCHAR uni0297
ENCODING 663
SWIDTH 437 0
DWIDTH 5 0
BBX 5 8 0 -2
BITMAP
70
48
80
80
80
80
48
70
ENDCHAR
STARTCHAR uni0298
ENCODING 664
SWIDTH 736 0
DWIDTH 8 0
BBX 8 9 0 0
BITMAP
3C
42
42
81
99
89
42
42
3C
ENDCHAR
STARTCHAR uni0299
ENCODING 665
SWIDTH 485 0
DWIDTH 5 0
BBX 5 6 0 0
BITMAP
F0
48
70
48
48
F8
ENDCHAR
STARTCHAR uni029A
ENCODING 666
SWIDTH 500 0
DWIDTH 6 0
BBX 5 6 0 0
BITMAP
70
88
68
88
88
70
ENDCHAR
STARTCHAR uni029B
ENCODING 667
SWIDTH 536 0
DWIDTH 6 0
BBX 7 8 0 0
BITMAP
06
08
78
48
80
8C
48
78
ENDCHAR
STARTCHAR uni029C
ENCODING 668
SWIDTH 599 0
DWIDTH 7 0
BBX 6 6 0 0
BITMAP
EC
44
78
44
44
EC
ENDCHAR
STARTCHAR uni029D
ENCODING 669
SWIDTH 263 0
DWIDTH 3 0
BBX 4 11 -1 -3
BITMAP
20
00
60
20
20
20
20
20
60
B0
C0
ENDCHAR
STARTCHAR uni029E
ENCODING 670
SWIDTH 542 0
DWIDTH 6 0
BBX 6 9 0 -3
BITMAP
DC
28
28
18
28
E8
08
08
0C
ENDCHAR
STARTCHAR uni029F
ENCODING 671
SWIDTH 440 0
DWIDTH 5 0
BBX 5 6 0 0
BITMAP
E0
40
40
40
48
F8
ENDCHAR
STARTCHAR uni02A0
ENCODING 672
SWIDTH 541 0
DWIDTH 6 0
BBX 7 12 0 -3
BITMAP
06
08
08
78
48
88
88
48
78
08
08
1C
ENDCHAR
STARTCHAR uni02A1
ENCODING 673
SWIDTH 393 0
DWIDTH 4 0
BBX 4 9 0 0
BITMAP
70
90
10
10
20
40
E0
40
E0
ENDCHAR
STARTCHAR uni02A2
ENCODING 674
SWIDTH 393 0
DWIDTH 4 0
BBX 4 9 0 0
BITMAP
70
90
80
80
40
20
70
20
70
ENDCHAR
STARTCHAR uni02A3
ENCODING 675
SWIDTH 830 0
DWIDTH 9 0
BBX 9 9 0 0
BITMAP
1800
0800
0800
7F80
4900
8A00
8A00
4C80
7F80
ENDCHAR
STARTCHAR uni02A4
ENCODING 676
SWIDTH 838 0
DWIDTH 9 0
BBX 9 12 0 -3
BITMAP
1800
0800
0800
7F80
4900
8B00
8A00
4900
7C80
0080
0480
0700
ENDCHAR
STARTCHAR uni02A5
ENCODING 677
SWIDTH 829 0
DWIDTH 9 0
BBX 9 11 0 -2
BITMAP
1800
0800
0800
7F80
4900
8A00
8A00
4D80
7F80
0200
0400
ENDCHAR
STARTCHAR uni02A6
ENCODING 678
SWIDTH 614 0
DWIDTH 7 0
BBX 6 8 0 0
BITMAP
40
40
FC
54
58
44
44
3C
ENDCHAR
STARTCHAR uni02A7
ENCODING 679
SWIDTH 513 0
DWIDTH 6 0
BBX 7 12 0 -3
BITMAP
0E
48
48
F8
48
48
48
48
68
08
08
30
ENDCHAR
STARTCHAR uni02A8
ENCODING 680
SWIDTH 687 0
DWIDTH 8 0
BBX 7 8 0 0
BITMAP
40
40
EE
52
50
56
5A
7E
ENDCHAR
STARTCHAR uni02A9
ENCODING 681
SWIDTH 866 0
DWIDTH 10 0
BBX 9 12 0 -3
BITMAP
3000
4000
4000
FB00
4C80
4880
4880
4880
EC80
0080
0080
0300
ENDCHAR
STARTCHAR uni02AA
ENCODING 682
SWIDTH 595 0
DWIDTH 7 0
BBX 6 9 0 0
BITMAP
C0
40
40
5C
54
58
4C
44
7C
ENDCHAR
STARTCHAR uni02AB
ENCODING 683
SWIDTH 580 0
DWIDTH 6 0
BBX 6 9 0 0
BITMAP
C0
40
40
7C
48
48
50
74
FC
ENDCHAR
STARTCHAR uni02AC
ENCODING 684
SWIDTH 599 0
DWIDTH 7 0
BBX 6 9 0 0
BITMAP
F4
54
68
28
F4
54
54
68
28
ENDCHAR
STARTCHAR uni02AD
ENCODING 685
SWIDTH 479 0
DWIDTH 5 0
BBX 4 8 1 0
BITMAP
F0
90
90
00
F0
90
90
90
ENDCHAR
STARTCHAR uni02AE
ENCODING 686
SWIDTH 595 0
DWIDTH 7 0
BBX 7 9 0 -3
BITMAP
CC
44
44
44
24
3C
04
04
06
ENDCHAR
STARTCHAR uni02AF
ENCODING 687
SWIDTH 600 0
DWIDTH 7 0
BBX 8 9 0 -3
BITMAP
CC
44
44
44
24
3C
04
04
07
ENDCHAR
STARTCHAR uni02B0
ENCODING 688
SWIDTH 488 0
DWIDTH 5 0
BBX 5 6 0 3
BITMAP
C0
40
70
48
48
D8
ENDCHAR
STARTCHAR uni02B1
ENCODING 689
SWIDTH 488 0
DWIDTH 5 0
BBX 5 7 0 3
BITMAP
30
50
40
70
48
48
D8
ENDCHAR
STARTCHAR uni02B2
ENCODING 690
SWIDTH 222 0
DWIDTH 2 0
BBX 3 8 -1 1
BITMAP
20
00
60
20
20
20
20
E0
ENDCHAR
STARTCHAR uni02B3
ENCODING 691
SWIDTH 325 0
DWIDTH 4 0
BBX 3 4 0 3
BITMAP
E0
40
40
E0
ENDCHAR
STARTCHAR uni02B4
ENCODING 692
SWIDTH 325 0
DWIDTH 4 0
BBX 3 4 0 3
BITMAP
60
20
20
E0
ENDCHAR
STARTCHAR uni02B5
ENCODING 693
SWIDTH 325 0
DWIDTH 4 0
BBX 4 6 0 1
BITMAP
70
20
20
E0
20
10
ENDCHAR
STARTCHAR uni02B6
ENCODING 694
SWIDTH 443 0
DWIDTH 5 0
BBX 5 4 0 3
BITMAP
D8
60
50
F0
ENDCHAR
STARTCHAR uni02B7
ENCODING 695
SWIDTH 653 0
DWIDTH 7 0
BBX 7 4 0 3
BITMAP
D2
54
5C
28
ENDCHAR
STARTCHAR uni02B8
ENCODING 696
SWIDTH 427 0
DWIDTH 5 0
BBX 5 6 0 1
BITMAP
D8
50
50
20
20
C0
ENDCHAR
STARTCHAR uni02B9
ENCODING 697
SWIDTH 296 0
DWIDTH 3 0
BBX 2 4 1 5
BITMAP
40
80
80
80
ENDCHAR
STARTCHAR uni02BA
ENCODING 698
SWIDTH 456 0
DWIDTH 5 0
BBX 3 4 1 5
BITMAP
60
A0
A0
C0
ENDCHAR
STARTCHAR uni02BB
ENCODING 699
SWIDTH 245 0
DWIDTH 3 0
BBX 1 3 1 6
BITMAP
80
80
80
ENDCHAR
STARTCHAR uni02BC
ENCODING 700
SWIDTH 244 0
DWIDTH 3 0
BBX 1 3 1 6
BITMAP
80
80
80
ENDCHAR
STARTCHAR uni02BD
ENCODING 701
SWIDTH 244 0
DWIDTH 3 0
BBX 1 3 1 6
BITMAP
80
80
80
ENDCHAR
STARTCHAR uni02BE
ENCODING 702
SWIDTH 203 0
DWIDTH 2 0
BBX 2 3 0 6
BITMAP
C0
40
C0
ENDCHAR
STARTCHAR uni02BF
ENCODING 703
SWIDTH 203 0
DWIDTH 2 0
BBX 2 3 0 6
BITMAP
40
80
40
ENDCHAR
STARTCHAR uni02C0
ENCODING 704
SWIDTH 364 0
DWIDTH 4 0
BBX 4 5 0 5
BITMAP
60
90
10
20
40
ENDCHAR
STARTCHAR uni02C1
ENCODING 705
SWIDTH 364 0
DWIDTH 4 0
BBX 4 5 0 5
BITMAP
60
90
80
40
20
ENDCHAR
STARTCHAR uni02C2
ENCODING 706
SWIDTH 324 0
DWIDTH 4 0
BBX 3 3 0 5
BITMAP
20
C0
20
ENDCHAR
STARTCHAR uni02C3
ENCODING 707
SWIDTH 324 0
DWIDTH 4 0
BBX 3 3 0 5
BITMAP
C0
20
C0
ENDCHAR
STARTCHAR uni02C4
ENCODING 708
SWIDTH 324 0
DWIDTH 4 0
BBX 4 3 0 6
BITMAP
40
60
B0
ENDCHAR
STARTCHAR uni02C5
ENCODING 709
SWIDTH 324 0
DWIDTH 4 0
BBX 4 3 0 6
BITMAP
B0
60
40
ENDCHAR
STARTCHAR circumflex
ENCODING 710
SWIDTH 342 0
DWIDTH 4 0
BBX 3 2 0 6
BITMAP
60
A0
ENDCHAR
STARTCHAR caron
ENCODING 711
SWIDTH 342 0
DWIDTH 4 0
BBX 3 2 0 7
BITMAP
A0
60
ENDCHAR
STARTCHAR uni02C8
ENCODING 712
SWIDTH 284 0
DWIDTH 3 0
BBX 1 3 1 6
BITMAP
80
80
80
ENDCHAR
STARTCHAR uni02C9
ENCODING 713
SWIDTH 350 0
DWIDTH 4 0
BBX 4 1 0 7
BITMAP
F0
ENDCHAR
STARTCHAR uni02CA
ENCODING 714
SWIDTH 222 0
DWIDTH 2 0
BBX 2 2 0 6
BITMAP
40
80
ENDCHAR
STARTCHAR uni02CB
ENCODING 715
SWIDTH 222 0
DWIDTH 2 0
BBX 2 2 0 6
BITMAP
C0
40
ENDCHAR
STARTCHAR uni02CC
ENCODING 716
SWIDTH 284 0
DWIDTH 3 0
BBX 1 3 1 -2
BITMAP
80
80
80
ENDCHAR
STARTCHAR uni02CD
ENCODING 717
SWIDTH 342 0
DWIDTH 4 0
BBX 4 1 0 -2
BITMAP
F0
ENDCHAR
STARTCHAR uni02CE
ENCODING 718
SWIDTH 222 0
DWIDTH 2 0
BBX 2 2 0 -2
BITMAP
C0
40
ENDCHAR
STARTCHAR uni02CF
ENCODING 719
SWIDTH 223 0
DWIDTH 2 0
BBX 2 2 0 -2
BITMAP
40
80
ENDCHAR
STARTCHAR uni02D0
ENCODING 720
SWIDTH 341 0
DWIDTH 4 0
BBX 2 6 1 0
BITMAP
C0
80
00
00
80
C0
ENDCHAR
STARTCHAR uni02D1
ENCODING 721
SWIDTH 341 0
DWIDTH 4 0
BBX 2 2 1 4
BITMAP
C0
80
ENDCHAR
STARTCHAR uni02D2
ENCODING 722
SWIDTH 341 0
DWIDTH 4 0
BBX 2 4 1 1
BITMAP
80
40
40
80
ENDCHAR
STARTCHAR uni02D3
ENCODING 723
SWIDTH 341 0
DWIDTH 4 0
BBX 2 4 1 1
BITMAP
C0
80
80
C0
ENDCHAR
STARTCHAR uni02D4
ENCODING 724
SWIDTH 341 0
DWIDTH 4 0
BBX 2 3 1 2
BITMAP
80
80
C0
ENDCHAR
STARTCHAR uni02D5
ENCODING 725
SWIDTH 341 0
DWIDTH 4 0
BBX 2 3 1 2
BITMAP
C0
80
80
ENDCHAR
STARTCHAR uni02D6
ENCODING 726
SWIDTH 341 0
DWIDTH 4 0
BBX 2 2 1 2
BITMAP
C0
80
ENDCHAR
STARTCHAR uni02D7
ENCODING 727
SWIDTH 341 0
DWIDTH 4 0
BBX 2 1 1 3
BITMAP
C0
ENDCHAR
STARTCHAR breve
ENCODING 728
SWIDTH 353 0
DWIDTH 4 0
BBX 4 2 0 6
BITMAP
90
60
ENDCHAR
STARTCHAR dotaccent
ENCODING 729
SWIDTH 194 0
DWIDTH 2 0
BBX 2 1 0 7
BITMAP
C0
ENDCHAR
STARTCHAR ring
ENCODING 730
SWIDTH 265 0
DWIDTH 3 0
BBX 3 3 0 6
BITMAP
40
A0
40
ENDCHAR
STARTCHAR ogonek
ENCODING 731
SWIDTH 277 0
DWIDTH 3 0
BBX 3 3 0 -3
BITMAP
40
80
60
ENDCHAR
STARTCHAR tilde
ENCODING 732
SWIDTH 381 0
DWIDTH 4 0
BBX 4 2 0 6
BITMAP
50
A0
ENDCHAR
STARTCHAR hungarumlaut
ENCODING 733
SWIDTH 350 0
DWIDTH 4 0
BBX 4 2 0 6
BITMAP
70
A0
ENDCHAR
STARTCHAR uni02DE
ENCODING 734
SWIDTH 205 0
DWIDTH 2 0
BBX 2 2 0 2
BITMAP
C0
C0
ENDCHAR
STARTCHAR uni02DF
ENCODING 735
SWIDTH 302 0
DWIDTH 3 0
BBX 3 3 0 5
BITMAP
A0
40
A0
ENDCHAR
STARTCHAR uni02E0
ENCODING 736
SWIDTH 413 0
DWIDTH 5 0
BBX 5 6 0 1
BITMAP
D8
50
60
20
20
60
ENDCHAR
STARTCHAR uni02E1
ENCODING 737
SWIDTH 244 0
DWIDTH 3 0
BBX 2 6 0 3
BITMAP
C0
40
40
40
40
C0
ENDCHAR
STARTCHAR uni02E2
ENCODING 738
SWIDTH 337 0
DWIDTH 4 0
BBX 3 4 0 3
BITMAP
E0
C0
A0
E0
ENDCHAR
STARTCHAR uni02E3
ENCODING 739
SWIDTH 445 0
DWIDTH 5 0
BBX 5 4 0 3
BITMAP
D8
20
20
D8
ENDCHAR
STARTCHAR uni02E4
ENCODING 740
SWIDTH 364 0
DWIDTH 4 0
BBX 4 6 0 3
BITMAP
70
80
40
20
20
70
ENDCHAR
STARTCHAR uni02E5
ENCODING 741
SWIDTH 423 0
DWIDTH 5 0
BBX 3 8 1 1
BITMAP
E0
20
20
20
20
20
20
20
ENDCHAR
STARTCHAR uni02E6
ENCODING 742
SWIDTH 414 0
DWIDTH 5 0
BBX 4 8 0 0
BITMAP
10
10
F0
10
10
10
10
10
ENDCHAR
STARTCHAR uni02E7
ENCODING 743
SWIDTH 414 0
DWIDTH 5 0
BBX 4 9 0 0
BITMAP
10
10
10
10
F0
10
10
10
10
ENDCHAR
STARTCHAR uni02E8
ENCODING 744
SWIDTH 414 0
DWIDTH 5 0
BBX 4 8 0 0
BITMAP
10
10
10
10
10
F0
10
10
ENDCHAR
STARTCHAR uni02E9
ENCODING 745
SWIDTH 414 0
DWIDTH 5 0
BBX 4 9 0 0
BITMAP
10
10
10
10
10
10
10
10
F0
ENDCHAR
STARTCHAR uni02EC
ENCODING 748
SWIDTH 341 0
DWIDTH 4 0
BBX 4 3 0 -2
BITMAP
90
60
40
ENDCHAR
STARTCHAR uni02ED
ENCODING 749
SWIDTH 380 0
DWIDTH 4 0
BBX 4 2 0 7
BITMAP
F0
F0
ENDCHAR
STARTCHAR uni02F7
ENCODING 759
SWIDTH 381 0
DWIDTH 4 0
BBX 4 2 0 -2
BITMAP
50
A0
ENDCHAR
STARTCHAR uni0300
ENCODING 768
SWIDTH 0 0
DWIDTH 0 0
BBX 2 2 -4 6
BITMAP
80
40
ENDCHAR
STARTCHAR uni0301
ENCODING 769
SWIDTH 0 0
DWIDTH 0 0
BBX 2 2 -3 6
BITMAP
C0
80
ENDCHAR
STARTCHAR uni0302
ENCODING 770
SWIDTH 0 0
DWIDTH 0 0
BBX 3 2 -4 6
BITMAP
40
A0
ENDCHAR
STARTCHAR uni0303
ENCODING 771
SWIDTH 0 0
DWIDTH 0 0
BBX 3 2 -4 6
BITMAP
E0
E0
ENDCHAR
STARTCHAR uni0304
ENCODING 772
SWIDTH 0 0
DWIDTH 0 0
BBX 3 1 -4 7
BITMAP
E0
ENDCHAR
STARTCHAR uni0305
ENCODING 773
SWIDTH 0 0
DWIDTH 0 0
BBX 4 1 -4 7
BITMAP
F0
ENDCHAR
STARTCHAR uni0306
ENCODING 774
SWIDTH 0 0
DWIDTH 0 0
BBX 3 2 -4 6
BITMAP
A0
E0
ENDCHAR
STARTCHAR uni0307
ENCODING 775
SWIDTH 0 0
DWIDTH 0 0
BBX 1 1 -3 7
BITMAP
80
ENDCHAR
STARTCHAR uni0308
ENCODING 776
SWIDTH 0 0
DWIDTH 0 0
BBX 3 1 -4 7
BITMAP
A0
ENDCHAR
STARTCHAR uni0309
ENCODING 777
SWIDTH 0 0
DWIDTH 0 0
BBX 2 3 -3 6
BITMAP
80
40
80
ENDCHAR
STARTCHAR uni030A
ENCODING 778
SWIDTH 0 0
DWIDTH 0 0
BBX 3 3 -4 6
BITMAP
40
A0
40
ENDCHAR
STARTCHAR uni030B
ENCODING 779
SWIDTH 0 0
DWIDTH 0 0
BBX 4 2 -4 6
BITMAP
70
A0
ENDCHAR
STARTCHAR uni030C
ENCODING 780
SWIDTH 0 0
DWIDTH 0 0
BBX 3 2 -4 7
BITMAP
A0
40
ENDCHAR
STARTCHAR uni030D
ENCODING 781
SWIDTH 0 0
DWIDTH 0 0
BBX 1 3 -3 6
BITMAP
80
80
80
ENDCHAR
STARTCHAR uni030E
ENCODING 782
SWIDTH 0 0
DWIDTH 0 0
BBX 3 3 -4 6
BITMAP
A0
A0
A0
ENDCHAR
STARTCHAR uni030F
ENCODING 783
SWIDTH 0 0
DWIDTH 0 0
BBX 4 2 -5 6
BITMAP
A0
70
ENDCHAR
STARTCHAR uni0310
ENCODING 784
SWIDTH 0 0
DWIDTH 0 0
BBX 3 3 -4 6
BITMAP
40
A0
C0
ENDCHAR
STARTCHAR uni0311
ENCODING 785
SWIDTH 0 0
DWIDTH 0 0
BBX 3 2 -4 7
BITMAP
C0
A0
ENDCHAR
STARTCHAR uni0312
ENCODING 786
SWIDTH 0 0
DWIDTH 0 0
BBX 1 2 -3 7
BITMAP
80
80
ENDCHAR
STARTCHAR uni0313
ENCODING 787
SWIDTH 0 0
DWIDTH 0 0
BBX 1 3 -3 6
BITMAP
80
80
80
ENDCHAR
STARTCHAR uni0314
ENCODING 788
SWIDTH 0 0
DWIDTH 0 0
BBX 1 3 -3 6
BITMAP
80
80
80
ENDCHAR
STARTCHAR uni0315
ENCODING 789
SWIDTH 0 0
DWIDTH 0 0
BBX 1 2 -3 7
BITMAP
80
80
ENDCHAR
STARTCHAR uni0316
ENCODING 790
SWIDTH 0 0
DWIDTH 0 0
BBX 2 2 -4 -3
BITMAP
80
40
ENDCHAR
STARTCHAR uni0317
ENCODING 791
SWIDTH 0 0
DWIDTH 0 0
BBX 2 2 -3 -3
BITMAP
40
80
ENDCHAR
STARTCHAR uni0318
ENCODING 792
SWIDTH 0 0
DWIDTH 0 0
BBX 1 2 -3 -3
BITMAP
80
80
ENDCHAR
STARTCHAR uni0319
ENCODING 793
SWIDTH 0 0
DWIDTH 0 0
BBX 1 2 -3 -3
BITMAP
80
80
ENDCHAR
STARTCHAR uni031A
ENCODING 794
SWIDTH 0 0
DWIDTH 0 0
BBX 3 3 -4 6
BITMAP
E0
20
20
ENDCHAR
STARTCHAR uni031B
ENCODING 795
SWIDTH 0 0
DWIDTH 0 0
BBX 2 2 -2 5
BITMAP
40
80
ENDCHAR
STARTCHAR uni031C
ENCODING 796
SWIDTH 0 0
DWIDTH 0 0
BBX 1 3 -3 -3
BITMAP
80
80
80
ENDCHAR
STARTCHAR uni031D
ENCODING 797
SWIDTH 0 0
DWIDTH 0 0
BBX 3 2 -4 -3
BITMAP
40
E0
ENDCHAR
STARTCHAR uni031E
ENCODING 798
SWIDTH 0 0
DWIDTH 0 0
BBX 3 2 -4 -2
BITMAP
E0
40
ENDCHAR
STARTCHAR uni031F
ENCODING 799
SWIDTH 0 0
DWIDTH 0 0
BBX 3 2 -4 -3
BITMAP
E0
40
ENDCHAR
STARTCHAR uni0320
ENCODING 800
SWIDTH 0 0
DWIDTH 0 0
BBX 3 1 -4 -2
BITMAP
E0
ENDCHAR
STARTCHAR uni0321
ENCODING 801
SWIDTH 0 0
DWIDTH 0 0
BBX 3 4 -5 -3
BITMAP
20
20
A0
40
ENDCHAR
STARTCHAR uni0322
ENCODING 802
SWIDTH 0 0
DWIDTH 0 0
BBX 3 4 -3 -3
BITMAP
80
80
60
60
ENDCHAR
STARTCHAR uni0323
ENCODING 803
SWIDTH 0 0
DWIDTH 0 0
BBX 1 1 -3 -2
BITMAP
80
ENDCHAR
STARTCHAR uni0324
ENCODING 804
SWIDTH 0 0
DWIDTH 0 0
BBX 3 1 -4 -2
BITMAP
A0
ENDCHAR
STARTCHAR uni0325
ENCODING 805
SWIDTH 0 0
DWIDTH 0 0
BBX 3 3 -4 -3
BITMAP
40
A0
40
ENDCHAR
STARTCHAR uni0326
ENCODING 806
SWIDTH 0 0
DWIDTH 0 0
BBX 1 3 -3 -4
BITMAP
80
80
80
ENDCHAR
STARTCHAR uni0327
ENCODING 807
SWIDTH 0 0
DWIDTH 0 0
BBX 2 3 -3 -3
BITMAP
80
40
80
ENDCHAR
STARTCHAR uni0328
ENCODING 808
SWIDTH 0 0
DWIDTH 0 0
BBX 3 3 -4 -3
BITMAP
40
80
60
ENDCHAR
STARTCHAR uni0329
ENCODING 809
SWIDTH 0 0
DWIDTH 0 0
BBX 1 2 -3 -3
BITMAP
80
80
ENDCHAR
STARTCHAR uni032A
ENCODING 810
SWIDTH 0 0
DWIDTH 0 0
BBX 3 2 -4 -2
BITMAP
E0
A0
ENDCHAR
STARTCHAR uni032B
ENCODING 811
SWIDTH 0 0
DWIDTH 0 0
BBX 3 2 -4 -2
BITMAP
E0
A0
ENDCHAR
STARTCHAR uni032C
ENCODING 812
SWIDTH 0 0
DWIDTH 0 0
BBX 3 2 -4 -2
BITMAP
A0
40
ENDCHAR
STARTCHAR uni032D
ENCODING 813
SWIDTH 0 0
DWIDTH 0 0
BBX 3 2 -4 -2
BITMAP
40
A0
ENDCHAR
STARTCHAR uni032E
ENCODING 814
SWIDTH 0 0
DWIDTH 0 0
BBX 3 2 -4 -3
BITMAP
A0
E0
ENDCHAR
STARTCHAR uni032F
ENCODING 815
SWIDTH 0 0
DWIDTH 0 0
BBX 3 2 -4 -2
BITMAP
E0
A0
ENDCHAR
STARTCHAR uni0330
ENCODING 816
SWIDTH 0 0
DWIDTH 0 0
BBX 3 2 -4 -2
BITMAP
E0
E0
ENDCHAR
STARTCHAR uni0331
ENCODING 817
SWIDTH 0 0
DWIDTH 0 0
BBX 3 1 -4 -2
BITMAP
E0
ENDCHAR
STARTCHAR uni0332
ENCODING 818
SWIDTH 0 0
DWIDTH 0 0
BBX 5 1 -5 -2
BITMAP
F8
ENDCHAR
STARTCHAR uni0333
ENCODING 819
SWIDTH 0 0
DWIDTH 0 0
BBX 5 2 -5 -3
BITMAP
F8
F8
ENDCHAR
STARTCHAR uni0334
ENCODING 820
SWIDTH 0 0
DWIDTH 0 0
BBX 3 2 -4 2
BITMAP
E0
E0
ENDCHAR
STARTCHAR uni0335
ENCODING 821
SWIDTH 0 0
DWIDTH 0 0
BBX 3 1 -4 3
BITMAP
E0
ENDCHAR
STARTCHAR uni0336
ENCODING 822
SWIDTH 0 0
DWIDTH 0 0
BBX 5 1 -5 3
BITMAP
F8
ENDCHAR
STARTCHAR uni0337
ENCODING 823
SWIDTH 0 0
DWIDTH 0 0
BBX 3 2 -4 3
BITMAP
60
80
ENDCHAR
STARTCHAR uni0338
ENCODING 824
SWIDTH 0 0
DWIDTH 0 0
BBX 5 11 -5 -2
BITMAP
08
08
10
10
10
20
20
40
40
40
80
ENDCHAR
STARTCHAR uni0339
ENCODING 825
SWIDTH 0 0
DWIDTH 0 0
BBX 1 3 -3 -3
BITMAP
80
80
80
ENDCHAR
STARTCHAR uni033A
ENCODING 826
SWIDTH 0 0
DWIDTH 0 0
BBX 3 2 -4 -2
BITMAP
A0
E0
ENDCHAR
STARTCHAR uni033B
ENCODING 827
SWIDTH 0 0
DWIDTH 0 0
BBX 2 3 -4 -3
BITMAP
C0
C0
C0
ENDCHAR
STARTCHAR uni033C
ENCODING 828
SWIDTH 0 0
DWIDTH 0 0
BBX 3 2 -4 -2
BITMAP
A0
40
ENDCHAR
STARTCHAR uni033D
ENCODING 829
SWIDTH 0 0
DWIDTH 0 0
BBX 3 2 -4 6
BITMAP
E0
E0
ENDCHAR
STARTCHAR uni033E
ENCODING 830
SWIDTH 0 0
DWIDTH 0 0
BBX 1 3 -3 6
BITMAP
80
80
80
ENDCHAR
STARTCHAR uni033F
ENCODING 831
SWIDTH 0 0
DWIDTH 0 0
BBX 5 2 -5 6
BITMAP
F8
F8
ENDCHAR
STARTCHAR uni0346
ENCODING 838
SWIDTH 0 0
DWIDTH 0 0
BBX 3 2 -4 6
BITMAP
E0
A0
ENDCHAR
STARTCHAR uni0347
ENCODING 839
SWIDTH 0 0
DWIDTH 0 0
BBX 3 2 -4 -3
BITMAP
E0
E0
ENDCHAR
STARTCHAR uni034C
ENCODING 844
SWIDTH 0 0
DWIDTH 0 0
BBX 3 3 -4 6
BITMAP
E0
E0
E0
ENDCHAR
STARTCHAR uni034D
ENCODING 845
SWIDTH 0 0
DWIDTH 0 0
BBX 5 3 -5 -4
BITMAP
50
F8
50
ENDCHAR
STARTCHAR uni0359
ENCODING 857
SWIDTH 0 0
DWIDTH 0 0
BBX 3 4 -4 -5
BITMAP
40
E0
E0
40
ENDCHAR
STARTCHAR uni035C
ENCODING 860
SWIDTH 0 0
DWIDTH 0 0
BBX 8 2 -4 -3
BITMAP
81
7E
ENDCHAR
STARTCHAR uni0360
ENCODING 864
SWIDTH 0 0
DWIDTH 0 0
BBX 6 2 -3 6
BITMAP
64
98
ENDCHAR
STARTCHAR uni0361
ENCODING 865
SWIDTH 0 0
DWIDTH 0 0
BBX 6 2 -3 7
BITMAP
78
84
ENDCHAR
STARTCHAR uni0362
ENCODING 866
SWIDTH 0 0
DWIDTH 0 0
BBX 8 3 -4 -4
BITMAP
01
FF
01
ENDCHAR
STARTCHAR uni037E
ENCODING 894
SWIDTH 261 0
DWIDTH 3 0
BBX 1 8 1 -2
BITMAP
80
00
00
00
00
80
80
80
ENDCHAR
STARTCHAR tonos
ENCODING 900
SWIDTH 165 0
DWIDTH 2 0
BBX 1 2 0 7
BITMAP
80
80
ENDCHAR
STARTCHAR dieresistonos
ENCODING 901
SWIDTH 426 0
DWIDTH 5 0
BBX 4 2 0 7
BITMAP
B0
20
ENDCHAR
STARTCHAR Alphatonos
ENCODING 902
SWIDTH 718 0
DWIDTH 8 0
BBX 8 9 0 0
BITMAP
40
90
18
18
2C
24
3C
46
C7
ENDCHAR
STARTCHAR anoteleia
ENCODING 903
SWIDTH 261 0
DWIDTH 3 0
BBX 1 1 1 5
BITMAP
80
ENDCHAR
STARTCHAR Epsilontonos
ENCODING 904
SWIDTH 745 0
DWIDTH 8 0
BBX 8 9 0 0
BITMAP
80
BF
11
12
1E
12
11
11
3F
ENDCHAR
STARTCHAR Etatonos
ENCODING 905
SWIDTH 896 0
DWIDTH 10 0
BBX 9 9 0 0
BITMAP
8000
BB80
1100
1100
1F00
1100
1100
1100
3B80
ENDCHAR
STARTCHAR Iotatonos
ENCODING 906
SWIDTH 478 0
DWIDTH 5 0
BBX 5 9 0 0
BITMAP
80
B8
10
10
10
10
10
10
38
ENDCHAR
STARTCHAR Omicrontonos
ENCODING 908
SWIDTH 806 0
DWIDTH 9 0
BBX 8 9 0 0
BITMAP
80
9E
21
21
41
41
21
21
1E
ENDCHAR
STARTCHAR Upsilontonos
ENCODING 910
SWIDTH 787 0
DWIDTH 9 0
BBX 9 9 0 0
BITMAP
8000
F380
1200
1A00
0C00
0400
0400
0400
0E00
ENDCHAR
STARTCHAR Omegatonos
ENCODING 911
SWIDTH 830 0
DWIDTH 9 0
BBX 9 9 0 0
BITMAP
8000
9E00
2300
2100
6100
2100
2100
5280
7700
ENDCHAR
STARTCHAR iotadieresistonos
ENCODING 912
SWIDTH 259 0
DWIDTH 3 0
BBX 4 9 -1 0
BITMAP
20
F0
00
20
20
20
20
20
30
ENDCHAR
STARTCHAR Alpha
ENCODING 913
SWIDTH 718 0
DWIDTH 8 0
BBX 8 8 0 0
BITMAP
10
18
18
2C
24
3C
46
C7
ENDCHAR
STARTCHAR Beta
ENCODING 914
SWIDTH 618 0
DWIDTH 7 0
BBX 6 8 0 0
BITMAP
F8
44
44
78
44
44
44
FC
ENDCHAR
STARTCHAR Gamma
ENCODING 915
SWIDTH 569 0
DWIDTH 6 0
BBX 6 8 0 0
BITMAP
FC
44
40
40
40
40
60
F0
ENDCHAR
STARTCHAR Delta
ENCODING 916
SWIDTH 667 0
DWIDTH 7 0
BBX 7 8 0 0
BITMAP
10
10
28
28
44
44
44
FE
ENDCHAR
STARTCHAR Epsilon
ENCODING 917
SWIDTH 626 0
DWIDTH 7 0
BBX 7 8 0 0
BITMAP
FC
42
44
78
44
42
42
FC
ENDCHAR
STARTCHAR Zeta
ENCODING 918
SWIDTH 594 0
DWIDTH 7 0
BBX 6 8 0 0
BITMAP
7C
88
08
10
30
20
44
FC
ENDCHAR
STARTCHAR Eta
ENCODING 919
SWIDTH 777 0
DWIDTH 9 0
BBX 8 8 0 0
BITMAP
F7
42
42
7E
42
42
42
F7
ENDCHAR
STARTCHAR Theta
ENCODING 920
SWIDTH 738 0
DWIDTH 8 0
BBX 7 8 1 0
BITMAP
78
CC
84
B6
CE
84
C4
78
ENDCHAR
STARTCHAR Iota
ENCODING 921
SWIDTH 357 0
DWIDTH 4 0
BBX 4 8 0 0
BITMAP
F0
40
40
40
40
40
40
F0
ENDCHAR
STARTCHAR Kappa
ENCODING 922
SWIDTH 702 0
DWIDTH 8 0
BBX 8 8 0 0
BITMAP
FE
44
48
50
70
48
44
FF
ENDCHAR
STARTCHAR Lambda
ENCODING 923
SWIDTH 710 0
DWIDTH 8 0
BBX 8 8 0 0
BITMAP
10
18
28
2C
24
44
42
C7
ENDCHAR
STARTCHAR Mu
ENCODING 924
SWIDTH 895 0
DWIDTH 10 0
BBX 9 8 0 0
BITMAP
E180
6100
7300
5300
5500
4D00
4900
EB80
ENDCHAR
STARTCHAR Nu
ENCODING 925
SWIDTH 742 0
DWIDTH 8 0
BBX 8 8 0 0
BITMAP
E7
62
52
5A
4A
46
46
E2
ENDCHAR
STARTCHAR Xi
ENCODING 926
SWIDTH 648 0
DWIDTH 7 0
BBX 6 8 1 0
BITMAP
F8
84
88
70
88
00
84
FC
ENDCHAR
STARTCHAR Omicron
ENCODING 927
SWIDTH 738 0
DWIDTH 8 0
BBX 7 8 1 0
BITMAP
78
84
84
86
86
84
84
78
ENDCHAR
STARTCHAR Pi
ENCODING 928
SWIDTH 759 0
DWIDTH 8 0
BBX 8 8 0 0
BITMAP
FF
42
42
42
42
42
62
F7
ENDCHAR
STARTCHAR Rho
ENCODING 929
SWIDTH 569 0
DWIDTH 6 0
BBX 6 8 0 0
BITMAP
78
44
44
44
78
40
40
F0
ENDCHAR
STARTCHAR Sigma
ENCODING 931
SWIDTH 604 0
DWIDTH 7 0
BBX 6 8 0 0
BITMAP
FC
44
20
10
10
20
44
FC
ENDCHAR
STARTCHAR Tau
ENCODING 932
SWIDTH 603 0
DWIDTH 7 0
BBX 6 8 0 0
BITMAP
FC
94
10
10
10
10
10
38
ENDCHAR
STARTCHAR Upsilon
ENCODING 933
SWIDTH 647 0
DWIDTH 7 0
BBX 7 8 0 0
BITMAP
E6
64
28
38
10
10
10
38
ENDCHAR
STARTCHAR Phi
ENCODING 934
SWIDTH 718 0
DWIDTH 8 0
BBX 8 8 0 0
BITMAP
3C
18
76
D2
D3
52
3C
3C
ENDCHAR
STARTCHAR Chi
ENCODING 935
SWIDTH 664 0
DWIDTH 7 0
BBX 7 8 0 0
BITMAP
E6
24
28
10
18
28
44
CE
ENDCHAR
STARTCHAR Psi
ENCODING 936
SWIDTH 720 0
DWIDTH 8 0
BBX 8 8 0 0
BITMAP
BD
5A
52
52
52
3C
10
3C
ENDCHAR
STARTCHAR Omega
ENCODING 937
SWIDTH 777 0
DWIDTH 9 0
BBX 7 8 1 0
BITMAP
78
C4
86
82
86
84
CA
EE
ENDCHAR
STARTCHAR Iotadieresis
ENCODING 938
SWIDTH 357 0
DWIDTH 4 0
BBX 4 10 0 0
BITMAP
90
00
F0
40
40
40
40
40
40
F0
ENDCHAR
STARTCHAR Upsilondieresis
ENCODING 939
SWIDTH 647 0
DWIDTH 7 0
BBX 7 10 0 0
BITMAP
2C
00
E6
64
28
38
10
10
10
38
ENDCHAR
STARTCHAR alphatonos
ENCODING 940
SWIDTH 561 0
DWIDTH 6 0
BBX 6 9 0 0
BITMAP
10
20
00
74
48
88
88
98
6C
ENDCHAR
STARTCHAR epsilontonos
ENCODING 941
SWIDTH 381 0
DWIDTH 4 0
BBX 4 9 0 0
BITMAP
30
20
00
70
80
60
80
90
70
ENDCHAR
STARTCHAR etatonos
ENCODING 942
SWIDTH 510 0
DWIDTH 6 0
BBX 5 12 0 -3
BITMAP
10
10
00
D0
E8
48
48
48
48
08
08
08
ENDCHAR
STARTCHAR iotatonos
ENCODING 943
SWIDTH 259 0
DWIDTH 3 0
BBX 2 9 1 0
BITMAP
80
80
00
80
80
80
80
80
C0
ENDCHAR
STARTCHAR upsilondieresistonos
ENCODING 944
SWIDTH 491 0
DWIDTH 5 0
BBX 5 9 0 0
BITMAP
20
F0
00
D0
C8
48
48
48
70
ENDCHAR
STARTCHAR alpha
ENCODING 945
SWIDTH 561 0
DWIDTH 6 0
BBX 6 6 0 0
BITMAP
74
48
88
88
98
6C
ENDCHAR
STARTCHAR beta
ENCODING 946
SWIDTH 530 0
DWIDTH 6 0
BBX 5 12 0 -3
BITMAP
38
48
48
48
70
48
48
48
78
40
40
80
ENDCHAR
STARTCHAR gamma
ENCODING 947
SWIDTH 466 0
DWIDTH 5 0
BBX 5 9 0 -3
BITMAP
C8
D0
30
30
20
20
20
20
40
ENDCHAR
STARTCHAR delta
ENCODING 948
SWIDTH 479 0
DWIDTH 5 0
BBX 5 9 0 0
BITMAP
70
48
20
30
48
88
88
88
70
ENDCHAR
STARTCHAR epsilon
ENCODING 949
SWIDTH 381 0
DWIDTH 4 0
BBX 4 6 0 0
BITMAP
70
80
60
80
90
70
ENDCHAR
STARTCHAR zeta
ENCODING 950
SWIDTH 386 0
DWIDTH 4 0
BBX 5 13 0 -4
BITMAP
20
48
30
20
40
80
80
80
60
30
10
30
20
ENDCHAR
STARTCHAR eta
ENCODING 951
SWIDTH 510 0
DWIDTH 6 0
BBX 5 9 0 -3
BITMAP
D0
E8
48
48
48
48
08
08
08
ENDCHAR
STARTCHAR theta
ENCODING 952
SWIDTH 514 0
DWIDTH 6 0
BBX 4 9 1 0
BITMAP
60
90
90
90
F0
90
90
90
60
ENDCHAR
STARTCHAR iota
ENCODING 953
SWIDTH 259 0
DWIDTH 3 0
BBX 2 6 1 0
BITMAP
80
80
80
80
80
C0
ENDCHAR
STARTCHAR kappa
ENCODING 954
SWIDTH 495 0
DWIDTH 5 0
BBX 5 6 0 0
BITMAP
C8
D0
60
60
50
58
ENDCHAR
STARTCHAR lambda
ENCODING 955
SWIDTH 506 0
DWIDTH 6 0
BBX 6 9 0 0
BITMAP
60
60
10
10
30
30
50
54
88
ENDCHAR
STARTCHAR mu
ENCODING 956
SWIDTH 552 0
DWIDTH 6 0
BBX 6 9 0 -3
BITMAP
48
48
48
48
58
AC
80
80
80
ENDCHAR
STARTCHAR nu
ENCODING 957
SWIDTH 453 0
DWIDTH 5 0
BBX 5 6 0 0
BITMAP
D8
C8
48
50
50
20
ENDCHAR
STARTCHAR xi
ENCODING 958
SWIDTH 390 0
DWIDTH 4 0
BBX 4 12 0 -3
BITMAP
40
70
40
40
70
80
80
C0
70
10
10
20
ENDCHAR
STARTCHAR omicron
ENCODING 959
SWIDTH 475 0
DWIDTH 5 0
BBX 5 6 0 0
BITMAP
70
48
88
88
88
70
ENDCHAR
STARTCHAR pi
ENCODING 960
SWIDTH 591 0
DWIDTH 7 0
BBX 6 6 0 0
BITMAP
7C
A8
28
28
48
4C
ENDCHAR
STARTCHAR rho
ENCODING 961
SWIDTH 515 0
DWIDTH 6 0
BBX 4 9 1 -3
BITMAP
70
90
90
90
90
E0
80
80
80
ENDCHAR
STARTCHAR uni03C2
ENCODING 962
SWIDTH 377 0
DWIDTH 4 0
BBX 4 9 0 -3
BITMAP
70
80
80
80
40
70
10
10
20
ENDCHAR
STARTCHAR sigma
ENCODING 963
SWIDTH 545 0
DWIDTH 6 0
BBX 6 6 0 0
BITMAP
7C
48
88
88
88
70
ENDCHAR
STARTCHAR tau
ENCODING 964
SWIDTH 392 0
DWIDTH 4 0
BBX 4 6 0 0
BITMAP
70
A0
20
20
20
30
ENDCHAR
STARTCHAR upsilon
ENCODING 965
SWIDTH 491 0
DWIDTH 5 0
BBX 5 6 0 0
BITMAP
D0
C8
48
48
48
70
ENDCHAR
STARTCHAR phi
ENCODING 966
SWIDTH 603 0
DWIDTH 7 0
BBX 6 9 0 -3
BITMAP
6C
54
94
94
54
78
10
10
20
ENDCHAR
STARTCHAR chi
ENCODING 967
SWIDTH 462 0
DWIDTH 5 0
BBX 6 9 -1 -3
BITMAP
64
A4
18
10
10
30
28
48
CC
ENDCHAR
STARTCHAR psi
ENCODING 968
SWIDTH 620 0
DWIDTH 7 0
BBX 6 12 0 -3
BITMAP
10
10
10
D4
D4
54
54
54
38
10
10
10
ENDCHAR
STARTCHAR omega
ENCODING 969
SWIDTH 660 0
DWIDTH 7 0
BBX 7 6 0 0
BITMAP
64
52
92
92
92
6C
ENDCHAR
STARTCHAR iotadieresis
ENCODING 970
SWIDTH 259 0
DWIDTH 3 0
BBX 3 8 0 0
BITMAP
A0
00
40
40
40
40
40
60
ENDCHAR
STARTCHAR upsilondieresis
ENCODING 971
SWIDTH 491 0
DWIDTH 5 0
BBX 5 8 0 0
BITMAP
50
00
D0
C8
48
48
48
70
ENDCHAR
STARTCHAR omicrontonos
ENCODING 972
SWIDTH 475 0
DWIDTH 5 0
BBX 5 9 0 0
BITMAP
10
20
00
70
48
88
88
88
70
ENDCHAR
STARTCHAR upsilontonos
ENCODING 973
SWIDTH 491 0
DWIDTH 5 0
BBX 5 9 0 0
BITMAP
30
20
00
D0
C8
48
48
48
70
ENDCHAR
STARTCHAR omegatonos
ENCODING 974
SWIDTH 660 0
DWIDTH 7 0
BBX 7 9 0 0
BITMAP
18
10
00
64
52
92
92
92
6C
ENDCHAR
STARTCHAR uni03D0
ENCODING 976
SWIDTH 438 0
DWIDTH 5 0
BBX 4 9 1 0
BITMAP
60
90
90
E0
E0
90
90
90
60
ENDCHAR
STARTCHAR uni03D1
ENCODING 977
SWIDTH 541 0
DWIDTH 6 0
BBX 6 9 0 0
BITMAP
30
48
48
48
3C
48
C8
48
30
ENDCHAR
STARTCHAR uni03D2
ENCODING 978
SWIDTH 616 0
DWIDTH 7 0
BBX 7 8 0 0
BITMAP
E6
2A
10
10
10
10
10
38
ENDCHAR
STARTCHAR uni03D5
ENCODING 981
SWIDTH 575 0
DWIDTH 6 0
BBX 6 12 0 -3
BITMAP
10
10
10
38
5C
94
94
94
78
10
20
20
ENDCHAR
STARTCHAR uni03D6
ENCODING 982
SWIDTH 821 0
DWIDTH 9 0
BBX 9 6 0 0
BITMAP
7F80
A100
4900
4900
2900
3600
ENDCHAR
STARTCHAR uni03D8
ENCODING 984
SWIDTH 627 0
DWIDTH 7 0
BBX 7 8 0 0
BITMAP
38
44
C6
C4
44
28
10
38
ENDCHAR
STARTCHAR uni03D9
ENCODING 985
SWIDTH 475 0
DWIDTH 5 0
BBX 5 9 0 -3
BITMAP
70
48
88
88
88
70
20
20
20
ENDCHAR
STARTCHAR uni03DA
ENCODING 986
SWIDTH 578 0
DWIDTH 6 0
BBX 6 8 0 0
BITMAP
3C
44
C4
C0
40
78
10
3C
ENDCHAR
STARTCHAR uni03DB
ENCODING 987
SWIDTH 490 0
DWIDTH 5 0
BBX 5 9 0 -3
BITMAP
38
40
80
80
40
70
10
10
60
ENDCHAR
STARTCHAR uni03DC
ENCODING 988
SWIDTH 588 0
DWIDTH 6 0
BBX 6 8 0 0
BITMAP
FC
44
44
78
44
40
40
F0
ENDCHAR
STARTCHAR uni03DD
ENCODING 989
SWIDTH 386 0
DWIDTH 4 0
BBX 5 9 -1 -3
BITMAP
38
20
20
38
20
20
20
40
C0
ENDCHAR
STARTCHAR uni03DE
ENCODING 990
SWIDTH 525 0
DWIDTH 6 0
BBX 6 8 0 0
BITMAP
70
20
40
FC
08
10
10
30
ENDCHAR
STARTCHAR uni03DF
ENCODING 991
SWIDTH 434 0
DWIDTH 5 0
BBX 5 8 0 0
BITMAP
C0
40
40
50
F0
10
18
10
ENDCHAR
STARTCHAR uni03E0
ENCODING 992
SWIDTH 697 0
DWIDTH 8 0
BBX 8 8 0 0
BITMAP
30
10
18
28
2C
54
56
A7
ENDCHAR
STARTCHAR uni03E1
ENCODING 993
SWIDTH 458 0
DWIDTH 5 0
BBX 5 11 0 -3
BITMAP
80
40
20
10
F0
10
78
08
08
08
10
ENDCHAR
STARTCHAR uni03F0
ENCODING 1008
SWIDTH 504 0
DWIDTH 6 0
BBX 6 6 0 0
BITMAP
C8
48
50
30
70
CC
ENDCHAR
STARTCHAR uni03F1
ENCODING 1009
SWIDTH 467 0
DWIDTH 5 0
BBX 4 9 1 -3
BITMAP
60
90
90
90
E0
80
C0
20
C0
ENDCHAR
STARTCHAR uni03F4
ENCODING 1012
SWIDTH 737 0
DWIDTH 8 0
BBX 7 8 1 0
BITMAP
78
84
84
FE
86
84
C4
78
ENDCHAR
STARTCHAR uni03F5
ENCODING 1013
SWIDTH 380 0
DWIDTH 4 0
BBX 4 6 0 0
BITMAP
70
80
E0
80
90
70
ENDCHAR
STARTCHAR uni03F6
ENCODING 1014
SWIDTH 382 0
DWIDTH 4 0
BBX 4 6 0 0
BITMAP
E0
10
70
10
90
E0
ENDCHAR
STARTCHAR uni0400
ENCODING 1024
SWIDTH 626 0
DWIDTH 7 0
BBX 7 11 0 0
BITMAP
20
18
00
FC
42
44
78
44
42
42
FC
ENDCHAR
STARTCHAR uni0401
ENCODING 1025
SWIDTH 626 0
DWIDTH 7 0
BBX 7 10 0 0
BITMAP
28
00
FC
42
44
78
44
42
42
FC
ENDCHAR
STARTCHAR uni0402
ENCODING 1026
SWIDTH 731 0
DWIDTH 8 0
BBX 8 8 0 0
BITMAP
FE
92
10
1E
13
11
11
3E
ENDCHAR
STARTCHAR uni0403
ENCODING 1027
SWIDTH 548 0
DWIDTH 6 0
BBX 6 11 0 0
BITMAP
18
30
00
FC
44
40
40
40
40
40
F0
ENDCHAR
STARTCHAR uni0404
ENCODING 1028
SWIDTH 668 0
DWIDTH 7 0
BBX 6 8 1 0
BITMAP
7C
84
84
F0
80
80
84
78
ENDCHAR
STARTCHAR uni0405
ENCODING 1029
SWIDTH 504 0
DWIDTH 6 0
BBX 5 8 0 0
BITMAP
78
48
48
60
18
88
88
F0
ENDCHAR
STARTCHAR uni0406
ENCODING 1030
SWIDTH 357 0
DWIDTH 4 0
BBX 4 8 0 0
BITMAP
F0
40
40
40
40
40
40
F0
ENDCHAR
STARTCHAR uni0407
ENCODING 1031
SWIDTH 357 0
DWIDTH 4 0
BBX 4 10 0 0
BITMAP
90
00
F0
40
40
40
40
40
40
F0
ENDCHAR
STARTCHAR uni0408
ENCODING 1032
SWIDTH 396 0
DWIDTH 4 0
BBX 4 8 0 0
BITMAP
70
20
20
20
20
20
A0
E0
ENDCHAR
STARTCHAR uni0409
ENCODING 1033
SWIDTH 924 0
DWIDTH 10 0
BBX 10 8 0 0
BITMAP
3E00
2400
2400
2780
24C0
2440
4440
CF80
ENDCHAR
STARTCHAR uni040A
ENCODING 1034
SWIDTH 1013 0
DWIDTH 11 0
BBX 11 8 0 0
BITMAP
F700
4200
4200
7FC0
4260
4220
4220
F7C0
ENDCHAR
STARTCHAR uni040B
ENCODING 1035
SWIDTH 761 0
DWIDTH 8 0
BBX 8 8 0 0
BITMAP
FE
92
10
1E
12
12
12
3B
ENDCHAR
STARTCHAR uni040C
ENCODING 1036
SWIDTH 658 0
DWIDTH 7 0
BBX 7 11 0 0
BITMAP
08
10
00
F6
44
48
70
48
48
44
F6
ENDCHAR
STARTCHAR uni040D
ENCODING 1037
SWIDTH 780 0
DWIDTH 9 0
BBX 8 11 0 0
BITMAP
20
18
00
F7
42
46
4A
52
52
62
F7
ENDCHAR
STARTCHAR uni040E
ENCODING 1038
SWIDTH 625 0
DWIDTH 7 0
BBX 7 11 0 0
BITMAP
2C
18
00
E6
44
24
28
18
10
10
60
ENDCHAR
STARTCHAR uni040F
ENCODING 1039
SWIDTH 759 0
DWIDTH 8 0
BBX 8 11 0 -3
BITMAP
E7
42
42
42
42
42
42
FF
08
08
08
ENDCHAR
STARTCHAR uni0410
ENCODING 1040
SWIDTH 718 0
DWIDTH 8 0
BBX 8 8 0 0
BITMAP
10
18
18
2C
24
3C
46
C7
ENDCHAR
STARTCHAR uni0411
ENCODING 1041
SWIDTH 617 0
DWIDTH 7 0
BBX 6 8 0 0
BITMAP
FC
44
40
78
44
44
44
F8
ENDCHAR
STARTCHAR uni0412
ENCODING 1042
SWIDTH 618 0
DWIDTH 7 0
BBX 6 8 0 0
BITMAP
F8
44
44
78
44
44
44
FC
ENDCHAR
STARTCHAR uni0413
ENCODING 1043
SWIDTH 548 0
DWIDTH 6 0
BBX 6 8 0 0
BITMAP
FC
44
40
40
40
40
40
F0
ENDCHAR
STARTCHAR uni0414
ENCODING 1044
SWIDTH 663 0
DWIDTH 7 0
BBX 7 10 0 -2
BITMAP
7E
24
24
24
24
44
44
FC
82
82
ENDCHAR
STARTCHAR uni0415
ENCODING 1045
SWIDTH 626 0
DWIDTH 7 0
BBX 7 8 0 0
BITMAP
FC
42
44
78
44
42
42
FC
ENDCHAR
STARTCHAR uni0416
ENCODING 1046
SWIDTH 937 0
DWIDTH 10 0
BBX 10 8 0 0
BITMAP
CEC0
2480
2500
1E00
2500
2580
4480
CEC0
ENDCHAR
STARTCHAR uni0417
ENCODING 1047
SWIDTH 545 0
DWIDTH 6 0
BBX 6 8 0 0
BITMAP
78
48
88
30
08
0C
8C
78
ENDCHAR
STARTCHAR uni0418
ENCODING 1048
SWIDTH 780 0
DWIDTH 9 0
BBX 8 8 0 0
BITMAP
F7
42
46
4A
52
52
62
F7
ENDCHAR
STARTCHAR uni0419
ENCODING 1049
SWIDTH 780 0
DWIDTH 9 0
BBX 8 11 0 0
BITMAP
14
24
18
E7
42
46
4A
52
52
62
F7
ENDCHAR
STARTCHAR uni041A
ENCODING 1050
SWIDTH 658 0
DWIDTH 7 0
BBX 7 8 0 0
BITMAP
F6
44
48
70
48
48
44
F6
ENDCHAR
STARTCHAR uni041B
ENCODING 1051
SWIDTH 684 0
DWIDTH 8 0
BBX 7 8 0 0
BITMAP
3E
24
24
24
24
24
44
CE
ENDCHAR
STARTCHAR uni041C
ENCODING 1052
SWIDTH 895 0
DWIDTH 10 0
BBX 9 8 0 0
BITMAP
E180
6100
7300
5300
5500
4D00
4900
EB80
ENDCHAR
STARTCHAR uni041D
ENCODING 1053
SWIDTH 777 0
DWIDTH 9 0
BBX 8 8 0 0
BITMAP
F7
42
42
7E
42
42
42
F7
ENDCHAR
STARTCHAR uni041E
ENCODING 1054
SWIDTH 738 0
DWIDTH 8 0
BBX 7 8 1 0
BITMAP
78
84
84
86
86
84
84
78
ENDCHAR
STARTCHAR uni041F
ENCODING 1055
SWIDTH 759 0
DWIDTH 8 0
BBX 8 8 0 0
BITMAP
FF
42
42
42
42
42
62
F7
ENDCHAR
STARTCHAR uni0420
ENCODING 1056
SWIDTH 569 0
DWIDTH 6 0
BBX 6 8 0 0
BITMAP
78
44
44
44
78
40
40
F0
ENDCHAR
STARTCHAR uni0421
ENCODING 1057
SWIDTH 670 0
DWIDTH 7 0
BBX 6 8 1 0
BITMAP
7C
84
84
80
80
80
84
78
ENDCHAR
STARTCHAR uni0422
ENCODING 1058
SWIDTH 603 0
DWIDTH 7 0
BBX 6 8 0 0
BITMAP
FC
94
10
10
10
10
10
38
ENDCHAR
STARTCHAR uni0423
ENCODING 1059
SWIDTH 625 0
DWIDTH 7 0
BBX 7 8 0 0
BITMAP
E6
44
24
28
18
10
10
60
ENDCHAR
STARTCHAR uni0424
ENCODING 1060
SWIDTH 725 0
DWIDTH 8 0
BBX 8 8 0 0
BITMAP
3C
3C
52
91
93
52
3C
3C
ENDCHAR
STARTCHAR uni0425
ENCODING 1061
SWIDTH 664 0
DWIDTH 7 0
BBX 7 8 0 0
BITMAP
E6
24
28
10
18
28
44
CE
ENDCHAR
STARTCHAR uni0426
ENCODING 1062
SWIDTH 756 0
DWIDTH 8 0
BBX 8 10 0 -2
BITMAP
F7
42
42
42
42
42
42
FE
01
01
ENDCHAR
STARTCHAR uni0427
ENCODING 1063
SWIDTH 650 0
DWIDTH 7 0
BBX 7 8 0 0
BITMAP
EE
44
44
44
3C
04
04
0E
ENDCHAR
STARTCHAR uni0428
ENCODING 1064
SWIDTH 1053 0
DWIDTH 12 0
BBX 11 8 0 0
BITMAP
EEE0
4440
4440
4440
4440
4440
4440
FFE0
ENDCHAR
STARTCHAR uni0429
ENCODING 1065
SWIDTH 1044 0
DWIDTH 11 0
BBX 11 10 0 -2
BITMAP
EEE0
4440
4440
4440
4440
4440
4440
FFE0
0020
0020
ENDCHAR
STARTCHAR uni042A
ENCODING 1066
SWIDTH 723 0
DWIDTH 8 0
BBX 8 8 0 0
BITMAP
F8
90
10
1C
12
13
12
3E
ENDCHAR
STARTCHAR uni042B
ENCODING 1067
SWIDTH 887 0
DWIDTH 10 0
BBX 9 8 0 0
BITMAP
F380
4100
4100
7900
4500
4500
4500
FB80
ENDCHAR
STARTCHAR uni042C
ENCODING 1068
SWIDTH 606 0
DWIDTH 7 0
BBX 6 8 0 0
BITMAP
F0
40
40
78
44
44
44
F8
ENDCHAR
STARTCHAR uni042D
ENCODING 1069
SWIDTH 667 0
DWIDTH 7 0
BBX 7 8 0 0
BITMAP
78
44
82
3E
02
06
84
78
ENDCHAR
STARTCHAR uni042E
ENCODING 1070
SWIDTH 1042 0
DWIDTH 11 0
BBX 11 8 0 0
BITMAP
F380
4440
4820
7820
4820
4820
4440
F380
ENDCHAR
STARTCHAR uni042F
ENCODING 1071
SWIDTH 654 0
DWIDTH 7 0
BBX 7 8 0 0
BITMAP
3E
44
44
64
3C
24
64
CE
ENDCHAR
STARTCHAR uni0430
ENCODING 1072
SWIDTH 480 0
DWIDTH 5 0
BBX 5 6 0 0
BITMAP
70
50
30
50
90
78
ENDCHAR
STARTCHAR uni0431
ENCODING 1073
SWIDTH 520 0
DWIDTH 6 0
BBX 5 9 0 0
BITMAP
08
30
40
B0
C8
C8
48
48
70
ENDCHAR
STARTCHAR uni0432
ENCODING 1074
SWIDTH 505 0
DWIDTH 6 0
BBX 5 6 0 0
BITMAP
F8
48
48
70
48
F8
ENDCHAR
STARTCHAR uni0433
ENCODING 1075
SWIDTH 429 0
DWIDTH 5 0
BBX 5 6 0 0
BITMAP
F0
48
40
40
40
E0
ENDCHAR
STARTCHAR uni0434
ENCODING 1076
SWIDTH 530 0
DWIDTH 6 0
BBX 6 8 0 -2
BITMAP
78
28
48
48
48
F8
84
84
ENDCHAR
STARTCHAR uni0435
ENCODING 1077
SWIDTH 464 0
DWIDTH 5 0
BBX 5 6 0 0
BITMAP
70
88
F8
80
48
70
ENDCHAR
STARTCHAR uni0436
ENCODING 1078
SWIDTH 754 0
DWIDTH 8 0
BBX 8 6 0 0
BITMAP
D9
4A
2A
3C
4A
DB
ENDCHAR
STARTCHAR uni0437
ENCODING 1079
SWIDTH 435 0
DWIDTH 5 0
BBX 4 6 0 0
BITMAP
70
90
30
10
90
70
ENDCHAR
STARTCHAR uni0438
ENCODING 1080
SWIDTH 609 0
DWIDTH 7 0
BBX 6 6 0 0
BITMAP
EC
4C
54
64
44
EC
ENDCHAR
STARTCHAR uni0439
ENCODING 1081
SWIDTH 609 0
DWIDTH 7 0
BBX 6 9 0 0
BITMAP
28
48
30
CC
4C
54
64
44
EC
ENDCHAR
STARTCHAR uni043A
ENCODING 1082
SWIDTH 521 0
DWIDTH 6 0
BBX 6 6 0 0
BITMAP
EC
50
50
70
50
EC
ENDCHAR
STARTCHAR uni043B
ENCODING 1083
SWIDTH 553 0
DWIDTH 6 0
BBX 6 6 0 0
BITMAP
7C
28
28
28
48
DC
ENDCHAR
STARTCHAR uni043C
ENCODING 1084
SWIDTH 697 0
DWIDTH 8 0
BBX 7 6 0 0
BITMAP
C6
66
6A
6A
52
D6
ENDCHAR
STARTCHAR uni043D
ENCODING 1085
SWIDTH 605 0
DWIDTH 7 0
BBX 6 6 0 0
BITMAP
EC
44
7C
44
44
EC
ENDCHAR
STARTCHAR uni043E
ENCODING 1086
SWIDTH 514 0
DWIDTH 6 0
BBX 5 6 0 0
BITMAP
70
48
88
88
48
70
ENDCHAR
STARTCHAR uni043F
ENCODING 1087
SWIDTH 591 0
DWIDTH 7 0
BBX 6 6 0 0
BITMAP
FC
48
48
48
48
EC
ENDCHAR
STARTCHAR uni0440
ENCODING 1088
SWIDTH 537 0
DWIDTH 6 0
BBX 6 9 0 -3
BITMAP
F8
48
4C
48
48
70
40
40
E0
ENDCHAR
STARTCHAR uni0441
ENCODING 1089
SWIDTH 446 0
DWIDTH 5 0
BBX 5 6 0 0
BITMAP
70
48
80
80
48
70
ENDCHAR
STARTCHAR uni0442
ENCODING 1090
SWIDTH 456 0
DWIDTH 5 0
BBX 5 6 0 0
BITMAP
F8
A8
20
20
20
70
ENDCHAR
STARTCHAR uni0443
ENCODING 1091
SWIDTH 483 0
DWIDTH 5 0
BBX 5 9 0 -3
BITMAP
C8
48
50
30
30
20
20
20
C0
ENDCHAR
STARTCHAR uni0444
ENCODING 1092
SWIDTH 710 0
DWIDTH 8 0
BBX 7 12 0 -3
BITMAP
08
10
10
7E
52
92
92
52
7E
10
10
18
ENDCHAR
STARTCHAR uni0445
ENCODING 1093
SWIDTH 479 0
DWIDTH 5 0
BBX 5 6 0 0
BITMAP
D8
50
20
30
50
D8
ENDCHAR
STARTCHAR uni0446
ENCODING 1094
SWIDTH 590 0
DWIDTH 6 0
BBX 6 8 0 -2
BITMAP
EC
48
48
48
48
FC
04
04
ENDCHAR
STARTCHAR uni0447
ENCODING 1095
SWIDTH 535 0
DWIDTH 6 0
BBX 6 6 0 0
BITMAP
DC
48
48
78
08
1C
ENDCHAR
STARTCHAR uni0448
ENCODING 1096
SWIDTH 812 0
DWIDTH 9 0
BBX 9 6 0 0
BITMAP
FF80
4900
4900
4900
4900
FF80
ENDCHAR
STARTCHAR uni0449
ENCODING 1097
SWIDTH 814 0
DWIDTH 9 0
BBX 9 8 0 -2
BITMAP
FF80
4900
4900
4900
4900
FF80
0080
0080
ENDCHAR
STARTCHAR uni044A
ENCODING 1098
SWIDTH 568 0
DWIDTH 6 0
BBX 6 6 0 0
BITMAP
F0
A0
38
24
24
78
ENDCHAR
STARTCHAR uni044B
ENCODING 1099
SWIDTH 728 0
DWIDTH 8 0
BBX 8 6 0 0
BITMAP
E7
42
72
4A
4A
F7
ENDCHAR
STARTCHAR uni044C
ENCODING 1100
SWIDTH 489 0
DWIDTH 5 0
BBX 5 6 0 0
BITMAP
E0
40
70
48
48
F8
ENDCHAR
STARTCHAR uni044D
ENCODING 1101
SWIDTH 467 0
DWIDTH 5 0
BBX 5 6 0 0
BITMAP
70
88
38
08
90
70
ENDCHAR
STARTCHAR uni044E
ENCODING 1102
SWIDTH 774 0
DWIDTH 9 0
BBX 8 6 0 0
BITMAP
EE
49
71
51
49
EE
ENDCHAR
STARTCHAR uni044F
ENCODING 1103
SWIDTH 518 0
DWIDTH 6 0
BBX 5 6 0 0
BITMAP
78
48
48
38
48
D8
ENDCHAR
STARTCHAR uni0450
ENCODING 1104
SWIDTH 464 0
DWIDTH 5 0
BBX 5 8 0 0
BITMAP
60
20
70
88
F8
80
48
70
ENDCHAR
STARTCHAR uni0451
ENCODING 1105
SWIDTH 464 0
DWIDTH 5 0
BBX 5 8 0 0
BITMAP
50
00
70
88
F8
80
48
70
ENDCHAR
STARTCHAR uni0452
ENCODING 1106
SWIDTH 563 0
DWIDTH 6 0
BBX 5 12 0 -3
BITMAP
40
C0
F0
78
48
48
48
48
E8
08
08
30
ENDCHAR
STARTCHAR uni0453
ENCODING 1107
SWIDTH 429 0
DWIDTH 5 0
BBX 5 8 0 0
BITMAP
30
20
D0
48
40
40
40
E0
ENDCHAR
STARTCHAR uni0454
ENCODING 1108
SWIDTH 460 0
DWIDTH 5 0
BBX 5 6 0 0
BITMAP
70
48
F0
80
48
70
ENDCHAR
STARTCHAR uni0455
ENCODING 1109
SWIDTH 394 0
DWIDTH 4 0
BBX 4 6 0 0
BITMAP
70
90
40
30
90
F0
ENDCHAR
STARTCHAR uni0456
ENCODING 1110
SWIDTH 285 0
DWIDTH 3 0
BBX 3 8 0 0
BITMAP
40
00
C0
40
40
40
40
E0
ENDCHAR
STARTCHAR uni0457
ENCODING 1111
SWIDTH 285 0
DWIDTH 3 0
BBX 3 8 0 0
BITMAP
A0
00
C0
40
40
40
40
E0
ENDCHAR
STARTCHAR uni0458
ENCODING 1112
SWIDTH 263 0
DWIDTH 3 0
BBX 3 11 -1 -3
BITMAP
20
00
60
20
20
20
20
20
20
20
C0
ENDCHAR
STARTCHAR uni0459
ENCODING 1113
SWIDTH 742 0
DWIDTH 8 0
BBX 8 6 0 0
BITMAP
7C
28
2E
29
49
DE
ENDCHAR
STARTCHAR uni045A
ENCODING 1114
SWIDTH 790 0
DWIDTH 9 0
BBX 8 6 0 0
BITMAP
EC
44
7F
45
45
EF
ENDCHAR
STARTCHAR uni045B
ENCODING 1115
SWIDTH 579 0
DWIDTH 6 0
BBX 6 9 0 0
BITMAP
C0
40
F0
78
48
48
48
48
EC
ENDCHAR
STARTCHAR uni045C
ENCODING 1116
SWIDTH 521 0
DWIDTH 6 0
BBX 6 8 0 0
BITMAP
10
20
CC
50
50
70
50
EC
ENDCHAR
STARTCHAR uni045D
ENCODING 1117
SWIDTH 609 0
DWIDTH 7 0
BBX 6 8 0 0
BITMAP
20
10
EC
4C
54
64
44
EC
ENDCHAR
STARTCHAR uni045E
ENCODING 1118
SWIDTH 483 0
DWIDTH 5 0
BBX 5 12 0 -3
BITMAP
48
48
30
C8
48
50
30
30
20
20
20
C0
ENDCHAR
STARTCHAR uni045F
ENCODING 1119
SWIDTH 587 0
DWIDTH 6 0
BBX 6 8 0 -2
BITMAP
EC
48
48
48
48
EC
10
10
ENDCHAR
STARTCHAR uni0462
ENCODING 1122
SWIDTH 727 0
DWIDTH 8 0
BBX 8 9 0 0
BITMAP
38
FE
92
10
1C
12
13
12
3E
ENDCHAR
STARTCHAR uni0463
ENCODING 1123
SWIDTH 561 0
DWIDTH 6 0
BBX 6 9 0 0
BITMAP
60
20
20
F8
A8
38
24
24
78
ENDCHAR
STARTCHAR uni046A
ENCODING 1130
SWIDTH 881 0
DWIDTH 10 0
BBX 10 8 0 0
BITMAP
3F00
3200
1200
0C00
1E00
2900
6900
DCC0
ENDCHAR
STARTCHAR uni046B
ENCODING 1131
SWIDTH 667 0
DWIDTH 7 0
BBX 8 6 0 0
BITMAP
7C
28
18
34
54
DB
ENDCHAR
STARTCHAR uni0472
ENCODING 1138
SWIDTH 737 0
DWIDTH 8 0
BBX 7 8 1 0
BITMAP
78
84
84
E6
9E
84
84
78
ENDCHAR
STARTCHAR uni0473
ENCODING 1139
SWIDTH 514 0
DWIDTH 6 0
BBX 5 6 0 0
BITMAP
70
48
A8
D8
48
70
ENDCHAR
STARTCHAR uni0474
ENCODING 1140
SWIDTH 705 0
DWIDTH 8 0
BBX 8 8 0 0
BITMAP
E3
44
64
24
38
18
18
10
ENDCHAR
STARTCHAR uni0475
ENCODING 1141
SWIDTH 520 0
DWIDTH 6 0
BBX 6 6 0 0
BITMAP
CC
48
50
50
20
20
ENDCHAR
STARTCHAR uni0490
ENCODING 1168
SWIDTH 525 0
DWIDTH 6 0
BBX 6 10 0 0
BITMAP
04
04
FC
40
40
40
40
40
40
F0
ENDCHAR
STARTCHAR uni0491
ENCODING 1169
SWIDTH 404 0
DWIDTH 4 0
BBX 4 8 0 0
BITMAP
10
10
E0
40
40
40
40
E0
ENDCHAR
STARTCHAR uni1D00
ENCODING 7424
SWIDTH 511 0
DWIDTH 6 0
BBX 6 6 0 0
BITMAP
20
30
50
70
48
DC
ENDCHAR
STARTCHAR uni1D07
ENCODING 7431
SWIDTH 495 0
DWIDTH 5 0
BBX 5 6 0 0
BITMAP
F8
40
50
70
48
F8
ENDCHAR
STARTCHAR uni1D1C
ENCODING 7452
SWIDTH 584 0
DWIDTH 6 0
BBX 6 6 0 0
BITMAP
EC
44
44
44
44
38
ENDCHAR
STARTCHAR uni1D81
ENCODING 7553
SWIDTH 539 0
DWIDTH 6 0
BBX 6 12 0 -3
BITMAP
18
08
08
78
48
88
88
48
7C
04
04
1C
ENDCHAR
STARTCHAR uni1D84
ENCODING 7556
SWIDTH 542 0
DWIDTH 6 0
BBX 6 12 0 -3
BITMAP
C0
40
40
5C
50
60
50
50
F8
04
04
0C
ENDCHAR
STARTCHAR uni1D85
ENCODING 7557
SWIDTH 283 0
DWIDTH 3 0
BBX 3 12 0 -3
BITMAP
C0
40
40
40
40
40
40
40
C0
20
20
40
ENDCHAR
STARTCHAR uni1D8A
ENCODING 7562
SWIDTH 395 0
DWIDTH 4 0
BBX 4 9 0 -3
BITMAP
70
90
40
30
90
F0
10
10
70
ENDCHAR
STARTCHAR uni1D8D
ENCODING 7565
SWIDTH 479 0
DWIDTH 5 0
BBX 5 9 0 -3
BITMAP
D8
50
20
30
50
D8
08
08
18
ENDCHAR
STARTCHAR uni1D8E
ENCODING 7566
SWIDTH 458 0
DWIDTH 5 0
BBX 5 9 0 -3
BITMAP
78
90
20
20
48
F8
08
08
30
ENDCHAR
STARTCHAR uni1D98
ENCODING 7576
SWIDTH 368 0
DWIDTH 4 0
BBX 5 12 0 -3
BITMAP
18
20
20
20
20
20
20
20
E0
80
80
40
ENDCHAR
STARTCHAR uni1D9B
ENCODING 7579
SWIDTH 462 0
DWIDTH 5 0
BBX 5 4 0 3
BITMAP
F0
48
48
70
ENDCHAR
STARTCHAR uni1DA3
ENCODING 7587
SWIDTH 488 0
DWIDTH 5 0
BBX 5 6 0 1
BITMAP
D8
48
48
78
08
08
ENDCHAR
STARTCHAR uni1E00
ENCODING 7680
SWIDTH 718 0
DWIDTH 8 0
BBX 8 11 0 -3
BITMAP
10
18
18
2C
24
3C
46
C7
10
28
10
ENDCHAR
STARTCHAR uni1E01
ENCODING 7681
SWIDTH 480 0
DWIDTH 5 0
BBX 5 9 0 -3
BITMAP
70
50
30
50
90
78
20
50
20
ENDCHAR
STARTCHAR uni1E02
ENCODING 7682
SWIDTH 618 0
DWIDTH 7 0
BBX 6 10 0 0
BITMAP
10
00
F8
44
44
78
44
44
44
FC
ENDCHAR
STARTCHAR uni1E03
ENCODING 7683
SWIDTH 522 0
DWIDTH 6 0
BBX 5 10 0 0
BITMAP
20
C0
40
40
78
48
48
48
48
70
ENDCHAR
STARTCHAR uni1E04
ENCODING 7684
SWIDTH 618 0
DWIDTH 7 0
BBX 6 10 0 -2
BITMAP
F8
44
44
78
44
44
44
FC
00
10
ENDCHAR
STARTCHAR uni1E05
ENCODING 7685
SWIDTH 522 0
DWIDTH 6 0
BBX 5 11 0 -2
BITMAP
C0
40
40
78
48
48
48
48
70
00
20
ENDCHAR
STARTCHAR uni1E06
ENCODING 7686
SWIDTH 618 0
DWIDTH 7 0
BBX 6 10 0 -2
BITMAP
F8
44
44
78
44
44
44
FC
00
38
ENDCHAR
STARTCHAR uni1E07
ENCODING 7687
SWIDTH 522 0
DWIDTH 6 0
BBX 5 11 0 -2
BITMAP
C0
40
40
78
48
48
48
48
70
00
70
ENDCHAR
STARTCHAR uni1E08
ENCODING 7688
SWIDTH 670 0
DWIDTH 7 0
BBX 6 14 1 -3
BITMAP
10
20
00
7C
84
84
80
80
80
84
78
30
10
30
ENDCHAR
STARTCHAR uni1E09
ENCODING 7689
SWIDTH 446 0
DWIDTH 5 0
BBX 5 11 0 -3
BITMAP
10
20
50
48
80
80
48
70
20
30
30
ENDCHAR
STARTCHAR uni1E0A
ENCODING 7690
SWIDTH 730 0
DWIDTH 8 0
BBX 7 10 0 0
BITMAP
10
00
FC
42
42
42
42
42
42
FC
ENDCHAR
STARTCHAR uni1E0B
ENCODING 7691
SWIDTH 539 0
DWIDTH 6 0
BBX 6 10 0 0
BITMAP
30
18
08
08
78
48
88
88
48
7C
ENDCHAR
STARTCHAR uni1E0C
ENCODING 7692
SWIDTH 730 0
DWIDTH 8 0
BBX 7 10 0 -2
BITMAP
FC
42
42
42
42
42
42
FC
00
10
ENDCHAR
STARTCHAR uni1E0D
ENCODING 7693
SWIDTH 539 0
DWIDTH 6 0
BBX 6 11 0 -2
BITMAP
18
08
08
78
48
88
88
48
7C
00
30
ENDCHAR
STARTCHAR uni1E0E
ENCODING 7694
SWIDTH 730 0
DWIDTH 8 0
BBX 7 10 0 -2
BITMAP
FC
42
42
42
42
42
42
FC
00
38
ENDCHAR
STARTCHAR uni1E0F
ENCODING 7695
SWIDTH 539 0
DWIDTH 6 0
BBX 6 11 0 -2
BITMAP
18
08
08
78
48
88
88
48
7C
00
78
ENDCHAR
STARTCHAR uni1E10
ENCODING 7696
SWIDTH 730 0
DWIDTH 8 0
BBX 7 12 0 -4
BITMAP
FC
42
42
42
42
42
42
FC
00
10
10
10
ENDCHAR
STARTCHAR uni1E11
ENCODING 7697
SWIDTH 539 0
DWIDTH 6 0
BBX 6 13 0 -4
BITMAP
18
08
08
78
48
88
88
48
7C
00
30
10
20
ENDCHAR
STARTCHAR uni1E12
ENCODING 7698
SWIDTH 730 0
DWIDTH 8 0
BBX 7 10 0 -2
BITMAP
FC
42
42
42
42
42
42
EC
10
28
ENDCHAR
STARTCHAR uni1E13
ENCODING 7699
SWIDTH 539 0
DWIDTH 6 0
BBX 6 11 0 -2
BITMAP
18
08
08
78
48
88
88
48
7C
30
58
ENDCHAR
STARTCHAR uni1E14
ENCODING 7700
SWIDTH 626 0
DWIDTH 7 0
BBX 7 12 0 0
BITMAP
20
10
38
00
FC
42
44
78
44
42
42
FC
ENDCHAR
STARTCHAR uni1E15
ENCODING 7701
SWIDTH 464 0
DWIDTH 5 0
BBX 5 10 0 0
BITMAP
60
20
70
00
70
88
F8
80
48
70
ENDCHAR
STARTCHAR uni1E16
ENCODING 7702
SWIDTH 626 0
DWIDTH 7 0
BBX 7 12 0 0
BITMAP
08
10
38
00
FC
42
44
78
44
42
42
FC
ENDCHAR
STARTCHAR uni1E17
ENCODING 7703
SWIDTH 464 0
DWIDTH 5 0
BBX 5 10 0 0
BITMAP
10
20
70
00
70
88
F8
80
48
70
ENDCHAR
STARTCHAR uni1E18
ENCODING 7704
SWIDTH 626 0
DWIDTH 7 0
BBX 7 10 0 -2
BITMAP
FC
42
44
78
44
42
42
FC
10
28
ENDCHAR
STARTCHAR uni1E19
ENCODING 7705
SWIDTH 464 0
DWIDTH 5 0
BBX 5 8 0 -2
BITMAP
70
88
F8
80
48
70
20
50
ENDCHAR
STARTCHAR uni1E1A
ENCODING 7706
SWIDTH 626 0
DWIDTH 7 0
BBX 7 10 0 -2
BITMAP
FC
42
44
78
44
42
42
FC
38
58
ENDCHAR
STARTCHAR uni1E1B
ENCODING 7707
SWIDTH 464 0
DWIDTH 5 0
BBX 5 8 0 -2
BITMAP
70
88
F8
80
48
70
68
50
ENDCHAR
STARTCHAR uni1E1C
ENCODING 7708
SWIDTH 626 0
DWIDTH 7 0
BBX 7 14 0 -3
BITMAP
28
38
00
FC
42
44
78
44
42
42
FC
10
08
10
ENDCHAR
STARTCHAR uni1E1D
ENCODING 7709
SWIDTH 464 0
DWIDTH 5 0
BBX 5 11 0 -3
BITMAP
50
30
70
88
F8
80
48
70
20
10
20
ENDCHAR
STARTCHAR uni1E1E
ENCODING 7710
SWIDTH 588 0
DWIDTH 6 0
BBX 6 10 0 0
BITMAP
10
00
FC
44
44
78
44
40
40
F0
ENDCHAR
STARTCHAR uni1E1F
ENCODING 7711
SWIDTH 307 0
DWIDTH 3 0
BBX 4 10 0 0
BITMAP
40
30
40
40
E0
40
40
40
40
E0
ENDCHAR
STARTCHAR uni1E20
ENCODING 7712
SWIDTH 720 0
DWIDTH 8 0
BBX 7 10 1 0
BITMAP
38
00
7C
84
84
80
8E
84
84
78
ENDCHAR
STARTCHAR uni1E21
ENCODING 7713
SWIDTH 484 0
DWIDTH 5 0
BBX 5 11 0 -3
BITMAP
70
00
78
48
50
70
40
F8
88
88
70
ENDCHAR
STARTCHAR uni1E22
ENCODING 7714
SWIDTH 777 0
DWIDTH 9 0
BBX 8 10 0 0
BITMAP
08
00
F7
42
42
7E
42
42
42
F7
ENDCHAR
STARTCHAR uni1E23
ENCODING 7715
SWIDTH 577 0
DWIDTH 6 0
BBX 6 10 0 0
BITMAP
10
C0
40
40
78
48
48
48
48
EC
ENDCHAR
STARTCHAR uni1E24
ENCODING 7716
SWIDTH 777 0
DWIDTH 9 0
BBX 8 10 0 -2
BITMAP
F7
42
42
7E
42
42
42
F7
00
08
ENDCHAR
STARTCHAR uni1E25
ENCODING 7717
SWIDTH 577 0
DWIDTH 6 0
BBX 6 11 0 -2
BITMAP
C0
40
40
78
48
48
48
48
EC
00
10
ENDCHAR
STARTCHAR uni1E26
ENCODING 7718
SWIDTH 777 0
DWIDTH 9 0
BBX 8 10 0 0
BITMAP
34
00
F7
42
42
7E
42
42
42
F7
ENDCHAR
STARTCHAR uni1E27
ENCODING 7719
SWIDTH 577 0
DWIDTH 6 0
BBX 6 10 0 0
BITMAP
68
C0
40
40
78
48
48
48
48
EC
ENDCHAR
STARTCHAR uni1E28
ENCODING 7720
SWIDTH 777 0
DWIDTH 9 0
BBX 8 11 0 -3
BITMAP
F7
42
42
7E
42
42
42
F7
60
20
60
ENDCHAR
STARTCHAR uni1E29
ENCODING 7721
SWIDTH 577 0
DWIDTH 6 0
BBX 6 12 0 -3
BITMAP
C0
40
40
78
48
48
48
48
EC
40
20
40
ENDCHAR
STARTCHAR uni1E2A
ENCODING 7722
SWIDTH 777 0
DWIDTH 9 0
BBX 8 11 0 -3
BITMAP
F7
42
42
7E
42
42
42
F7
00
24
18
ENDCHAR
STARTCHAR uni1E2B
ENCODING 7723
SWIDTH 577 0
DWIDTH 6 0
BBX 6 12 0 -3
BITMAP
C0
40
40
78
48
48
48
48
EC
00
48
30
ENDCHAR
STARTCHAR uni1E2C
ENCODING 7724
SWIDTH 357 0
DWIDTH 4 0
BBX 4 10 0 -2
BITMAP
F0
40
40
40
40
40
40
E0
50
A0
ENDCHAR
STARTCHAR uni1E2D
ENCODING 7725
SWIDTH 285 0
DWIDTH 3 0
BBX 3 10 0 -2
BITMAP
40
00
C0
40
40
40
40
40
E0
A0
ENDCHAR
STARTCHAR uni1E2E
ENCODING 7726
SWIDTH 357 0
DWIDTH 4 0
BBX 4 13 0 0
BITMAP
20
40
00
90
00
F0
40
40
40
40
40
40
F0
ENDCHAR
STARTCHAR uni1E2F
ENCODING 7727
SWIDTH 285 0
DWIDTH 3 0
BBX 3 10 0 0
BITMAP
60
40
A0
00
C0
40
40
40
40
E0
ENDCHAR
STARTCHAR uni1E30
ENCODING 7728
SWIDTH 702 0
DWIDTH 8 0
BBX 8 11 0 0
BITMAP
08
10
00
FE
44
48
50
70
48
44
FF
ENDCHAR
STARTCHAR uni1E31
ENCODING 7729
SWIDTH 542 0
DWIDTH 6 0
BBX 6 11 0 0
BITMAP
10
20
C0
40
40
5C
50
60
50
50
FC
ENDCHAR
STARTCHAR uni1E32
ENCODING 7730
SWIDTH 702 0
DWIDTH 8 0
BBX 8 10 0 -2
BITMAP
FE
44
48
50
70
48
44
FF
00
18
ENDCHAR
STARTCHAR uni1E33
ENCODING 7731
SWIDTH 542 0
DWIDTH 6 0
BBX 6 11 0 -2
BITMAP
C0
40
40
5C
50
60
50
50
FC
00
30
ENDCHAR
STARTCHAR uni1E34
ENCODING 7732
SWIDTH 702 0
DWIDTH 8 0
BBX 8 10 0 -2
BITMAP
FE
44
48
50
70
48
44
FF
00
38
ENDCHAR
STARTCHAR uni1E35
ENCODING 7733
SWIDTH 542 0
DWIDTH 6 0
BBX 6 11 0 -2
BITMAP
C0
40
40
5C
50
60
50
50
FC
00
78
ENDCHAR
STARTCHAR uni1E36
ENCODING 7734
SWIDTH 585 0
DWIDTH 6 0
BBX 6 10 0 -2
BITMAP
F0
40
40
40
40
40
44
FC
00
10
ENDCHAR
STARTCHAR uni1E37
ENCODING 7735
SWIDTH 283 0
DWIDTH 3 0
BBX 3 11 0 -2
BITMAP
C0
40
40
40
40
40
40
40
E0
00
40
ENDCHAR
STARTCHAR uni1E38
ENCODING 7736
SWIDTH 585 0
DWIDTH 6 0
BBX 6 12 0 -2
BITMAP
F0
00
F0
40
40
40
40
40
44
FC
00
10
ENDCHAR
STARTCHAR uni1E39
ENCODING 7737
SWIDTH 283 0
DWIDTH 3 0
BBX 3 12 0 -2
BITMAP
E0
C0
40
40
40
40
40
40
40
E0
00
40
ENDCHAR
STARTCHAR uni1E3A
ENCODING 7738
SWIDTH 585 0
DWIDTH 6 0
BBX 6 10 0 -2
BITMAP
F0
40
40
40
40
40
44
FC
00
38
ENDCHAR
STARTCHAR uni1E3B
ENCODING 7739
SWIDTH 283 0
DWIDTH 3 0
BBX 3 11 0 -2
BITMAP
C0
40
40
40
40
40
40
40
E0
00
E0
ENDCHAR
STARTCHAR uni1E3C
ENCODING 7740
SWIDTH 585 0
DWIDTH 6 0
BBX 6 10 0 -2
BITMAP
F0
40
40
40
40
40
44
FC
10
28
ENDCHAR
STARTCHAR uni1E3D
ENCODING 7741
SWIDTH 283 0
DWIDTH 3 0
BBX 3 11 0 -2
BITMAP
C0
40
40
40
40
40
40
40
E0
40
A0
ENDCHAR
STARTCHAR uni1E3E
ENCODING 7742
SWIDTH 895 0
DWIDTH 10 0
BBX 9 11 0 0
BITMAP
0400
0800
0000
E180
6100
7300
5300
5500
4D00
4900
EB80
ENDCHAR
STARTCHAR uni1E3F
ENCODING 7743
SWIDTH 852 0
DWIDTH 9 0
BBX 9 8 0 0
BITMAP
0400
0800
FF00
4900
4900
4900
4900
FD80
ENDCHAR
STARTCHAR uni1E40
ENCODING 7744
SWIDTH 895 0
DWIDTH 10 0
BBX 9 10 0 0
BITMAP
0800
0000
E180
6100
7300
5300
5500
4D00
4900
EB80
ENDCHAR
STARTCHAR uni1E41
ENCODING 7745
SWIDTH 852 0
DWIDTH 9 0
BBX 9 8 0 0
BITMAP
0800
0000
FF00
4900
4900
4900
4900
FD80
ENDCHAR
STARTCHAR uni1E42
ENCODING 7746
SWIDTH 895 0
DWIDTH 10 0
BBX 9 10 0 -2
BITMAP
E180
6100
7300
5300
5500
4D00
4900
EB80
0000
0800
ENDCHAR
STARTCHAR uni1E43
ENCODING 7747
SWIDTH 852 0
DWIDTH 9 0
BBX 9 8 0 -2
BITMAP
FF00
4900
4900
4900
4900
FD80
0000
0800
ENDCHAR
STARTCHAR uni1E44
ENCODING 7748
SWIDTH 742 0
DWIDTH 8 0
BBX 8 10 0 0
BITMAP
08
00
E7
62
52
5A
4A
46
46
E2
ENDCHAR
STARTCHAR uni1E45
ENCODING 7749
SWIDTH 576 0
DWIDTH 6 0
BBX 6 8 0 0
BITMAP
10
00
F8
48
48
48
48
EC
ENDCHAR
STARTCHAR uni1E46
ENCODING 7750
SWIDTH 742 0
DWIDTH 8 0
BBX 8 10 0 -2
BITMAP
E7
62
52
5A
4A
46
46
E2
00
18
ENDCHAR
STARTCHAR uni1E47
ENCODING 7751
SWIDTH 576 0
DWIDTH 6 0
BBX 6 8 0 -2
BITMAP
F8
48
48
48
48
EC
00
10
ENDCHAR
STARTCHAR uni1E48
ENCODING 7752
SWIDTH 742 0
DWIDTH 8 0
BBX 8 10 0 -2
BITMAP
E7
62
52
5A
4A
46
46
E2
00
3C
ENDCHAR
STARTCHAR uni1E49
ENCODING 7753
SWIDTH 576 0
DWIDTH 6 0
BBX 6 8 0 -2
BITMAP
F8
48
48
48
48
EC
00
38
ENDCHAR
STARTCHAR uni1E4A
ENCODING 7754
SWIDTH 742 0
DWIDTH 8 0
BBX 8 10 0 -2
BITMAP
E7
62
52
5A
4A
46
46
E2
18
28
ENDCHAR
STARTCHAR uni1E4B
ENCODING 7755
SWIDTH 576 0
DWIDTH 6 0
BBX 6 8 0 -2
BITMAP
F8
48
48
48
48
EC
10
28
ENDCHAR
STARTCHAR uni1E4C
ENCODING 7756
SWIDTH 738 0
DWIDTH 8 0
BBX 7 12 1 0
BITMAP
10
20
78
00
78
84
84
86
86
84
84
78
ENDCHAR
STARTCHAR uni1E4D
ENCODING 7757
SWIDTH 514 0
DWIDTH 6 0
BBX 5 10 0 0
BITMAP
10
20
28
50
70
48
88
88
48
70
ENDCHAR
STARTCHAR uni1E4E
ENCODING 7758
SWIDTH 738 0
DWIDTH 8 0
BBX 7 11 1 0
BITMAP
48
78
00
78
84
84
86
86
84
84
78
ENDCHAR
STARTCHAR uni1E4F
ENCODING 7759
SWIDTH 514 0
DWIDTH 6 0
BBX 5 9 0 0
BITMAP
58
28
50
70
48
88
88
48
70
ENDCHAR
STARTCHAR uni1E50
ENCODING 7760
SWIDTH 738 0
DWIDTH 8 0
BBX 7 12 1 0
BITMAP
20
10
78
00
78
84
84
86
86
84
84
78
ENDCHAR
STARTCHAR uni1E51
ENCODING 7761
SWIDTH 514 0
DWIDTH 6 0
BBX 5 10 0 0
BITMAP
20
20
70
00
70
48
88
88
48
70
ENDCHAR
STARTCHAR uni1E52
ENCODING 7762
SWIDTH 738 0
DWIDTH 8 0
BBX 7 12 1 0
BITMAP
10
20
78
00
78
84
84
86
86
84
84
78
ENDCHAR
STARTCHAR uni1E53
ENCODING 7763
SWIDTH 514 0
DWIDTH 6 0
BBX 5 10 0 0
BITMAP
10
20
70
00
70
48
88
88
48
70
ENDCHAR
STARTCHAR uni1E54
ENCODING 7764
SWIDTH 569 0
DWIDTH 6 0
BBX 6 11 0 0
BITMAP
10
20
00
78
44
44
44
78
40
40
F0
ENDCHAR
STARTCHAR uni1E55
ENCODING 7765
SWIDTH 537 0
DWIDTH 6 0
BBX 6 11 0 -3
BITMAP
10
20
F8
48
4C
48
48
70
40
40
E0
ENDCHAR
STARTCHAR uni1E56
ENCODING 7766
SWIDTH 569 0
DWIDTH 6 0
BBX 6 10 0 0
BITMAP
10
00
78
44
44
44
78
40
40
F0
ENDCHAR
STARTCHAR uni1E57
ENCODING 7767
SWIDTH 537 0
DWIDTH 6 0
BBX 6 11 0 -3
BITMAP
30
00
F8
48
4C
48
48
70
40
40
E0
ENDCHAR
STARTCHAR uni1E58
ENCODING 7768
SWIDTH 659 0
DWIDTH 7 0
BBX 7 10 0 0
BITMAP
10
00
F8
44
44
44
78
48
4C
F6
ENDCHAR
STARTCHAR uni1E59
ENCODING 7769
SWIDTH 380 0
DWIDTH 4 0
BBX 4 8 0 0
BITMAP
60
00
F0
40
40
40
40
E0
ENDCHAR
STARTCHAR uni1E5A
ENCODING 7770
SWIDTH 659 0
DWIDTH 7 0
BBX 7 10 0 -2
BITMAP
F8
44
44
44
78
48
4C
F6
00
10
ENDCHAR
STARTCHAR uni1E5B
ENCODING 7771
SWIDTH 380 0
DWIDTH 4 0
BBX 4 8 0 -2
BITMAP
F0
40
40
40
40
E0
00
40
ENDCHAR
STARTCHAR uni1E5C
ENCODING 7772
SWIDTH 659 0
DWIDTH 7 0
BBX 7 12 0 -2
BITMAP
38
00
F8
44
44
44
78
48
4C
F6
00
10
ENDCHAR
STARTCHAR uni1E5D
ENCODING 7773
SWIDTH 380 0
DWIDTH 4 0
BBX 4 10 0 -2
BITMAP
70
00
F0
40
40
40
40
E0
00
40
ENDCHAR
STARTCHAR uni1E5E
ENCODING 7774
SWIDTH 659 0
DWIDTH 7 0
BBX 7 10 0 -2
BITMAP
F8
44
44
44
78
48
4C
F6
00
38
ENDCHAR
STARTCHAR uni1E5F
ENCODING 7775
SWIDTH 380 0
DWIDTH 4 0
BBX 4 8 0 -2
BITMAP
F0
40
40
40
40
E0
00
E0
ENDCHAR
STARTCHAR uni1E60
ENCODING 7776
SWIDTH 504 0
DWIDTH 6 0
BBX 5 10 0 0
BITMAP
20
00
78
48
48
60
18
88
88
F0
ENDCHAR
STARTCHAR uni1E61
ENCODING 7777
SWIDTH 394 0
DWIDTH 4 0
BBX 4 8 0 0
BITMAP
20
00
70
90
40
30
90
F0
ENDCHAR
STARTCHAR uni1E62
ENCODING 7778
SWIDTH 504 0
DWIDTH 6 0
BBX 5 10 0 -2
BITMAP
78
48
48
60
18
88
88
F0
00
20
ENDCHAR
STARTCHAR uni1E63
ENCODING 7779
SWIDTH 394 0
DWIDTH 4 0
BBX 4 8 0 -2
BITMAP
70
90
40
30
90
F0
00
60
ENDCHAR
STARTCHAR uni1E64
ENCODING 7780
SWIDTH 504 0
DWIDTH 6 0
BBX 5 11 0 0
BITMAP
18
60
00
78
48
48
60
18
88
88
F0
ENDCHAR
STARTCHAR uni1E65
ENCODING 7781
SWIDTH 394 0
DWIDTH 4 0
BBX 4 9 0 0
BITMAP
40
30
20
50
90
40
30
90
F0
ENDCHAR
STARTCHAR uni1E66
ENCODING 7782
SWIDTH 504 0
DWIDTH 6 0
BBX 5 11 0 0
BITMAP
68
30
00
78
48
48
60
18
88
88
F0
ENDCHAR
STARTCHAR uni1E67
ENCODING 7783
SWIDTH 394 0
DWIDTH 4 0
BBX 4 9 0 0
BITMAP
70
20
00
70
90
40
30
90
F0
ENDCHAR
STARTCHAR uni1E68
ENCODING 7784
SWIDTH 504 0
DWIDTH 6 0
BBX 5 12 0 -2
BITMAP
20
00
78
48
48
60
18
88
88
F0
00
20
ENDCHAR
STARTCHAR uni1E69
ENCODING 7785
SWIDTH 394 0
DWIDTH 4 0
BBX 4 10 0 -2
BITMAP
20
00
70
90
40
30
90
F0
00
60
ENDCHAR
STARTCHAR uni1E6A
ENCODING 7786
SWIDTH 603 0
DWIDTH 7 0
BBX 6 10 0 0
BITMAP
10
00
FC
94
10
10
10
10
10
38
ENDCHAR
STARTCHAR uni1E6B
ENCODING 7787
SWIDTH 315 0
DWIDTH 3 0
BBX 3 9 0 0
BITMAP
40
40
40
E0
40
40
40
40
60
ENDCHAR
STARTCHAR uni1E6C
ENCODING 7788
SWIDTH 603 0
DWIDTH 7 0
BBX 6 10 0 -2
BITMAP
FC
94
10
10
10
10
10
38
00
10
ENDCHAR
STARTCHAR uni1E6D
ENCODING 7789
SWIDTH 315 0
DWIDTH 3 0
BBX 3 10 0 -2
BITMAP
40
40
E0
40
40
40
40
60
00
60
ENDCHAR
STARTCHAR uni1E6E
ENCODING 7790
SWIDTH 603 0
DWIDTH 7 0
BBX 6 10 0 -2
BITMAP
FC
94
10
10
10
10
10
38
00
38
ENDCHAR
STARTCHAR uni1E6F
ENCODING 7791
SWIDTH 315 0
DWIDTH 3 0
BBX 4 10 0 -2
BITMAP
40
40
E0
40
40
40
40
60
00
F0
ENDCHAR
STARTCHAR uni1E70
ENCODING 7792
SWIDTH 603 0
DWIDTH 7 0
BBX 6 10 0 -2
BITMAP
FC
94
10
10
10
10
10
38
10
28
ENDCHAR
STARTCHAR uni1E71
ENCODING 7793
SWIDTH 315 0
DWIDTH 3 0
BBX 4 10 0 -2
BITMAP
40
40
E0
40
40
40
40
60
60
D0
ENDCHAR
STARTCHAR uni1E72
ENCODING 7794
SWIDTH 752 0
DWIDTH 8 0
BBX 8 10 0 -2
BITMAP
E7
42
42
42
42
42
22
3C
00
34
ENDCHAR
STARTCHAR uni1E73
ENCODING 7795
SWIDTH 570 0
DWIDTH 6 0
BBX 6 8 0 -2
BITMAP
D8
48
48
48
48
7C
00
48
ENDCHAR
STARTCHAR uni1E74
ENCODING 7796
SWIDTH 752 0
DWIDTH 8 0
BBX 8 10 0 -2
BITMAP
E7
42
42
42
42
42
22
3C
14
28
ENDCHAR
STARTCHAR uni1E75
ENCODING 7797
SWIDTH 570 0
DWIDTH 6 0
BBX 6 8 0 -2
BITMAP
D8
48
48
48
48
7C
28
50
ENDCHAR
STARTCHAR uni1E76
ENCODING 7798
SWIDTH 752 0
DWIDTH 8 0
BBX 8 10 0 -2
BITMAP
E7
42
42
42
42
42
22
3C
08
14
ENDCHAR
STARTCHAR uni1E77
ENCODING 7799
SWIDTH 570 0
DWIDTH 6 0
BBX 6 8 0 -2
BITMAP
D8
48
48
48
48
7C
30
78
ENDCHAR
STARTCHAR uni1E78
ENCODING 7800
SWIDTH 752 0
DWIDTH 8 0
BBX 8 12 0 0
BITMAP
0C
08
1C
00
E7
42
42
42
42
42
22
3C
ENDCHAR
STARTCHAR uni1E79
ENCODING 7801
SWIDTH 570 0
DWIDTH 6 0
BBX 6 10 0 0
BITMAP
10
20
28
50
D8
48
48
48
48
7C
ENDCHAR
STARTCHAR uni1E7A
ENCODING 7802
SWIDTH 752 0
DWIDTH 8 0
BBX 8 11 0 0
BITMAP
14
1C
00
E7
42
42
42
42
42
22
3C
ENDCHAR
STARTCHAR uni1E7B
ENCODING 7803
SWIDTH 570 0
DWIDTH 6 0
BBX 6 9 0 0
BITMAP
48
78
00
D8
48
48
48
48
7C
ENDCHAR
STARTCHAR uni1E7C
ENCODING 7804
SWIDTH 680 0
DWIDTH 7 0
BBX 8 10 0 0
BITMAP
3C
00
E7
42
64
24
24
18
18
10
ENDCHAR
STARTCHAR uni1E7D
ENCODING 7805
SWIDTH 481 0
DWIDTH 5 0
BBX 5 8 0 0
BITMAP
28
50
C8
48
50
30
20
20
ENDCHAR
STARTCHAR uni1E7E
ENCODING 7806
SWIDTH 680 0
DWIDTH 7 0
BBX 8 10 0 -2
BITMAP
E7
42
64
24
24
18
18
10
00
10
ENDCHAR
STARTCHAR uni1E7F
ENCODING 7807
SWIDTH 481 0
DWIDTH 5 0
BBX 5 8 0 -2
BITMAP
C8
48
50
30
20
20
00
20
ENDCHAR
STARTCHAR Wgrave
ENCODING 7808
SWIDTH 944 0
DWIDTH 10 0
BBX 10 11 0 0
BITMAP
0800
0400
0000
ECC0
4440
6480
2680
2A80
3B00
1300
1100
ENDCHAR
STARTCHAR wgrave
ENCODING 7809
SWIDTH 749 0
DWIDTH 8 0
BBX 8 8 0 0
BITMAP
10
08
DB
49
4A
36
24
24
ENDCHAR
STARTCHAR Wacute
ENCODING 7810
SWIDTH 944 0
DWIDTH 10 0
BBX 10 11 0 0
BITMAP
0400
0800
0000
ECC0
4440
6480
2680
2A80
3B00
1300
1100
ENDCHAR
STARTCHAR wacute
ENCODING 7811
SWIDTH 749 0
DWIDTH 8 0
BBX 8 8 0 0
BITMAP
08
08
DB
49
4A
36
24
24
ENDCHAR
STARTCHAR Wdieresis
ENCODING 7812
SWIDTH 944 0
DWIDTH 10 0
BBX 10 10 0 0
BITMAP
1200
0000
ECC0
4440
6480
2680
2A80
3B00
1300
1100
ENDCHAR
STARTCHAR wdieresis
ENCODING 7813
SWIDTH 749 0
DWIDTH 8 0
BBX 8 8 0 0
BITMAP
34
00
DB
49
4A
36
24
24
ENDCHAR
STARTCHAR uni1E86
ENCODING 7814
SWIDTH 944 0
DWIDTH 10 0
BBX 10 10 0 0
BITMAP
0C00
0000
ECC0
4440
6480
2680
2A80
3B00
1300
1100
ENDCHAR
STARTCHAR uni1E87
ENCODING 7815
SWIDTH 749 0
DWIDTH 8 0
BBX 8 8 0 0
BITMAP
18
00
DB
49
4A
36
24
24
ENDCHAR
STARTCHAR uni1E88
ENCODING 7816
SWIDTH 944 0
DWIDTH 10 0
BBX 10 10 0 -2
BITMAP
ECC0
4440
6480
2680
2A80
3B00
1300
1100
0000
0400
ENDCHAR
STARTCHAR uni1E89
ENCODING 7817
SWIDTH 749 0
DWIDTH 8 0
BBX 8 8 0 -2
BITMAP
DB
49
4A
36
24
24
00
18
ENDCHAR
STARTCHAR uni1E8A
ENCODING 7818
SWIDTH 664 0
DWIDTH 7 0
BBX 7 10 0 0
BITMAP
10
00
E6
24
28
10
18
28
44
CE
ENDCHAR
STARTCHAR uni1E8B
ENCODING 7819
SWIDTH 479 0
DWIDTH 5 0
BBX 5 8 0 0
BITMAP
20
00
D8
50
20
30
50
D8
ENDCHAR
STARTCHAR uni1E8C
ENCODING 7820
SWIDTH 664 0
DWIDTH 7 0
BBX 7 10 0 0
BITMAP
2C
00
E6
24
28
10
18
28
44
CE
ENDCHAR
STARTCHAR uni1E8D
ENCODING 7821
SWIDTH 479 0
DWIDTH 5 0
BBX 5 8 0 0
BITMAP
58
00
D8
50
20
30
50
D8
ENDCHAR
STARTCHAR uni1E8E
ENCODING 7822
SWIDTH 647 0
DWIDTH 7 0
BBX 7 10 0 0
BITMAP
10
00
E6
64
28
38
10
10
10
38
ENDCHAR
STARTCHAR uni1E8F
ENCODING 7823
SWIDTH 483 0
DWIDTH 5 0
BBX 5 11 0 -3
BITMAP
20
00
C8
48
50
30
30
20
20
20
C0
ENDCHAR
STARTCHAR uni1E90
ENCODING 7824
SWIDTH 594 0
DWIDTH 7 0
BBX 6 11 0 0
BITMAP
10
28
00
7C
88
08
10
30
20
44
FC
ENDCHAR
STARTCHAR uni1E91
ENCODING 7825
SWIDTH 458 0
DWIDTH 5 0
BBX 5 8 0 0
BITMAP
20
50
78
90
20
20
48
F8
ENDCHAR
STARTCHAR uni1E92
ENCODING 7826
SWIDTH 594 0
DWIDTH 7 0
BBX 6 10 0 -2
BITMAP
7C
88
08
10
30
20
44
FC
00
10
ENDCHAR
STARTCHAR uni1E93
ENCODING 7827
SWIDTH 458 0
DWIDTH 5 0
BBX 5 8 0 -2
BITMAP
78
90
20
20
48
F8
00
20
ENDCHAR
STARTCHAR uni1E94
ENCODING 7828
SWIDTH 594 0
DWIDTH 7 0
BBX 6 10 0 -2
BITMAP
7C
88
08
10
30
20
44
FC
00
38
ENDCHAR
STARTCHAR uni1E95
ENCODING 7829
SWIDTH 458 0
DWIDTH 5 0
BBX 5 8 0 -2
BITMAP
78
90
20
20
48
F8
00
70
ENDCHAR
STARTCHAR uni1E96
ENCODING 7830
SWIDTH 577 0
DWIDTH 6 0
BBX 6 11 0 -2
BITMAP
C0
40
40
78
48
48
48
48
EC
00
38
ENDCHAR
STARTCHAR uni1E97
ENCODING 7831
SWIDTH 315 0
DWIDTH 3 0
BBX 4 9 0 0
BITMAP
B0
40
40
E0
40
40
40
40
60
ENDCHAR
STARTCHAR uni1E98
ENCODING 7832
SWIDTH 749 0
DWIDTH 8 0
BBX 8 9 0 0
BITMAP
18
18
18
DB
49
4A
36
24
24
ENDCHAR
STARTCHAR uni1E99
ENCODING 7833
SWIDTH 483 0
DWIDTH 5 0
BBX 5 12 0 -3
BITMAP
30
50
30
C8
48
50
30
30
20
20
20
C0
ENDCHAR
STARTCHAR uni1E9A
ENCODING 7834
SWIDTH 480 0
DWIDTH 5 0
BBX 5 9 0 0
BITMAP
20
10
20
50
50
30
50
90
78
ENDCHAR
STARTCHAR uni1E9B
ENCODING 7835
SWIDTH 285 0
DWIDTH 3 0
BBX 4 10 0 0
BITMAP
40
30
40
40
C0
40
40
40
40
E0
ENDCHAR
STARTCHAR uni1E9C
ENCODING 7836
SWIDTH 300 0
DWIDTH 3 0
BBX 4 9 0 0
BITMAP
30
40
40
E0
40
C0
40
40
E0
ENDCHAR
STARTCHAR uni1E9D
ENCODING 7837
SWIDTH 285 0
DWIDTH 3 0
BBX 4 9 0 0
BITMAP
30
50
E0
C0
40
40
40
40
E0
ENDCHAR
STARTCHAR uni1E9E
ENCODING 7838
SWIDTH 684 0
DWIDTH 8 0
BBX 7 8 0 0
BITMAP
3E
24
4C
48
46
42
42
DC
ENDCHAR
STARTCHAR uni1E9F
ENCODING 7839
SWIDTH 517 0
DWIDTH 6 0
BBX 5 9 0 0
BITMAP
30
48
60
30
48
C8
88
48
70
ENDCHAR
STARTCHAR uni1EA0
ENCODING 7840
SWIDTH 718 0
DWIDTH 8 0
BBX 8 10 0 -2
BITMAP
10
18
18
2C
24
3C
46
C7
00
10
ENDCHAR
STARTCHAR uni1EA1
ENCODING 7841
SWIDTH 480 0
DWIDTH 5 0
BBX 5 8 0 -2
BITMAP
70
50
30
50
90
78
00
20
ENDCHAR
STARTCHAR uni1EA2
ENCODING 7842
SWIDTH 718 0
DWIDTH 8 0
BBX 8 11 0 0
BITMAP
18
08
10
10
18
18
2C
24
3C
46
C7
ENDCHAR
STARTCHAR uni1EA3
ENCODING 7843
SWIDTH 480 0
DWIDTH 5 0
BBX 5 9 0 0
BITMAP
20
10
20
50
50
30
50
90
78
ENDCHAR
STARTCHAR uni1EA4
ENCODING 7844
SWIDTH 718 0
DWIDTH 8 0
BBX 8 12 0 0
BITMAP
02
14
2C
00
10
18
18
2C
24
3C
46
C7
ENDCHAR
STARTCHAR uni1EA5
ENCODING 7845
SWIDTH 480 0
DWIDTH 5 0
BBX 5 9 0 0
BITMAP
08
30
40
70
50
30
50
90
78
ENDCHAR
STARTCHAR uni1EA6
ENCODING 7846
SWIDTH 718 0
DWIDTH 8 0
BBX 8 11 0 0
BITMAP
1C
2C
00
10
18
18
2C
24
3C
46
C7
ENDCHAR
STARTCHAR uni1EA7
ENCODING 7847
SWIDTH 480 0
DWIDTH 5 0
BBX 5 9 0 0
BITMAP
10
28
50
70
50
30
50
90
78
ENDCHAR
STARTCHAR uni1EA8
ENCODING 7848
SWIDTH 718 0
DWIDTH 8 0
BBX 8 12 0 0
BITMAP
0C
02
1C
24
10
18
18
2C
24
3C
46
C7
ENDCHAR
STARTCHAR uni1EA9
ENCODING 7849
SWIDTH 480 0
DWIDTH 5 0
BBX 5 10 0 0
BITMAP
18
08
30
50
70
50
30
50
90
78
ENDCHAR
STARTCHAR uni1EAA
ENCODING 7850
SWIDTH 718 0
DWIDTH 8 0
BBX 8 12 0 0
BITMAP
3C
10
2C
00
10
18
18
2C
24
3C
46
C7
ENDCHAR
STARTCHAR uni1EAB
ENCODING 7851
SWIDTH 480 0
DWIDTH 5 0
BBX 5 9 0 0
BITMAP
70
20
50
70
50
30
50
90
78
ENDCHAR
STARTCHAR uni1EAC
ENCODING 7852
SWIDTH 718 0
DWIDTH 8 0
BBX 8 13 0 -2
BITMAP
10
3C
00
10
18
18
2C
24
3C
46
C7
00
10
ENDCHAR
STARTCHAR uni1EAD
ENCODING 7853
SWIDTH 480 0
DWIDTH 5 0
BBX 5 10 0 -2
BITMAP
20
50
70
50
30
50
90
78
00
20
ENDCHAR
STARTCHAR uni1EAE
ENCODING 7854
SWIDTH 718 0
DWIDTH 8 0
BBX 8 12 0 0
BITMAP
08
34
18
00
10
18
18
2C
24
3C
46
C7
ENDCHAR
STARTCHAR uni1EAF
ENCODING 7855
SWIDTH 480 0
DWIDTH 5 0
BBX 5 9 0 0
BITMAP
30
70
70
50
50
30
50
90
78
ENDCHAR
STARTCHAR uni1EB0
ENCODING 7856
SWIDTH 718 0
DWIDTH 8 0
BBX 8 12 0 0
BITMAP
10
34
18
00
10
18
18
2C
24
3C
46
C7
ENDCHAR
STARTCHAR uni1EB1
ENCODING 7857
SWIDTH 480 0
DWIDTH 5 0
BBX 5 9 0 0
BITMAP
60
70
70
50
50
30
50
90
78
ENDCHAR
STARTCHAR uni1EB2
ENCODING 7858
SWIDTH 718 0
DWIDTH 8 0
BBX 8 13 0 0
BITMAP
18
08
34
18
00
10
18
18
2C
24
3C
46
C7
ENDCHAR
STARTCHAR uni1EB3
ENCODING 7859
SWIDTH 480 0
DWIDTH 5 0
BBX 5 10 0 0
BITMAP
20
10
70
70
50
50
30
50
90
78
ENDCHAR
STARTCHAR uni1EB4
ENCODING 7860
SWIDTH 718 0
DWIDTH 8 0
BBX 8 12 0 0
BITMAP
3C
24
18
00
10
18
18
2C
24
3C
46
C7
ENDCHAR
STARTCHAR uni1EB5
ENCODING 7861
SWIDTH 480 0
DWIDTH 5 0
BBX 5 10 0 0
BITMAP
68
50
50
70
50
50
30
50
90
78
ENDCHAR
STARTCHAR uni1EB6
ENCODING 7862
SWIDTH 718 0
DWIDTH 8 0
BBX 8 13 0 -2
BITMAP
24
18
00
10
18
18
2C
24
3C
46
C7
00
10
ENDCHAR
STARTCHAR uni1EB7
ENCODING 7863
SWIDTH 480 0
DWIDTH 5 0
BBX 5 10 0 -2
BITMAP
50
70
50
50
30
50
90
78
00
20
ENDCHAR
STARTCHAR uni1EB8
ENCODING 7864
SWIDTH 626 0
DWIDTH 7 0
BBX 7 10 0 -2
BITMAP
FC
42
44
78
44
42
42
FC
00
10
ENDCHAR
STARTCHAR uni1EB9
ENCODING 7865
SWIDTH 464 0
DWIDTH 5 0
BBX 5 8 0 -2
BITMAP
70
88
F8
80
48
70
00
20
ENDCHAR
STARTCHAR uni1EBA
ENCODING 7866
SWIDTH 626 0
DWIDTH 7 0
BBX 7 11 0 0
BITMAP
10
08
10
FC
42
44
78
44
42
42
FC
ENDCHAR
STARTCHAR uni1EBB
ENCODING 7867
SWIDTH 464 0
DWIDTH 5 0
BBX 5 9 0 0
BITMAP
20
10
20
70
88
F8
80
48
70
ENDCHAR
STARTCHAR uni1EBC
ENCODING 7868
SWIDTH 626 0
DWIDTH 7 0
BBX 7 10 0 0
BITMAP
38
00
FC
42
44
78
44
42
42
FC
ENDCHAR
STARTCHAR uni1EBD
ENCODING 7869
SWIDTH 464 0
DWIDTH 5 0
BBX 5 8 0 0
BITMAP
68
50
70
88
F8
80
48
70
ENDCHAR
STARTCHAR uni1EBE
ENCODING 7870
SWIDTH 626 0
DWIDTH 7 0
BBX 7 12 0 0
BITMAP
02
14
28
00
FC
42
44
78
44
42
42
FC
ENDCHAR
STARTCHAR uni1EBF
ENCODING 7871
SWIDTH 464 0
DWIDTH 5 0
BBX 5 9 0 0
BITMAP
08
30
40
70
88
F8
80
48
70
ENDCHAR
STARTCHAR uni1EC0
ENCODING 7872
SWIDTH 626 0
DWIDTH 7 0
BBX 7 11 0 0
BITMAP
1C
28
00
FC
42
44
78
44
42
42
FC
ENDCHAR
STARTCHAR uni1EC1
ENCODING 7873
SWIDTH 464 0
DWIDTH 5 0
BBX 5 9 0 0
BITMAP
10
28
50
70
88
F8
80
48
70
ENDCHAR
STARTCHAR uni1EC2
ENCODING 7874
SWIDTH 626 0
DWIDTH 7 0
BBX 7 12 0 0
BITMAP
0C
04
18
28
FC
42
44
78
44
42
42
FC
ENDCHAR
STARTCHAR uni1EC3
ENCODING 7875
SWIDTH 464 0
DWIDTH 5 0
BBX 5 10 0 0
BITMAP
18
08
30
50
70
88
F8
80
48
70
ENDCHAR
STARTCHAR uni1EC4
ENCODING 7876
SWIDTH 626 0
DWIDTH 7 0
BBX 7 12 0 0
BITMAP
38
10
28
00
FC
42
44
78
44
42
42
FC
ENDCHAR
STARTCHAR uni1EC5
ENCODING 7877
SWIDTH 464 0
DWIDTH 5 0
BBX 5 9 0 0
BITMAP
70
20
50
70
88
F8
80
48
70
ENDCHAR
STARTCHAR uni1EC6
ENCODING 7878
SWIDTH 626 0
DWIDTH 7 0
BBX 7 13 0 -2
BITMAP
10
28
00
FC
42
44
78
44
42
42
FC
00
10
ENDCHAR
STARTCHAR uni1EC7
ENCODING 7879
SWIDTH 464 0
DWIDTH 5 0
BBX 5 10 0 -2
BITMAP
20
50
70
88
F8
80
48
70
00
20
ENDCHAR
STARTCHAR uni1EC8
ENCODING 7880
SWIDTH 357 0
DWIDTH 4 0
BBX 4 11 0 0
BITMAP
60
20
40
F0
40
40
40
40
40
40
F0
ENDCHAR
STARTCHAR uni1EC9
ENCODING 7881
SWIDTH 285 0
DWIDTH 3 0
BBX 3 9 0 0
BITMAP
40
20
40
C0
40
40
40
40
E0
ENDCHAR
STARTCHAR uni1ECA
ENCODING 7882
SWIDTH 357 0
DWIDTH 4 0
BBX 4 10 0 -2
BITMAP
F0
40
40
40
40
40
40
F0
00
60
ENDCHAR
STARTCHAR uni1ECB
ENCODING 7883
SWIDTH 285 0
DWIDTH 3 0
BBX 3 10 0 -2
BITMAP
40
00
C0
40
40
40
40
E0
00
40
ENDCHAR
STARTCHAR uni1ECC
ENCODING 7884
SWIDTH 738 0
DWIDTH 8 0
BBX 7 10 1 -2
BITMAP
78
84
84
86
86
84
84
78
00
30
ENDCHAR
STARTCHAR uni1ECD
ENCODING 7885
SWIDTH 514 0
DWIDTH 6 0
BBX 5 8 0 -2
BITMAP
70
48
88
88
48
70
00
30
ENDCHAR
STARTCHAR uni1ECE
ENCODING 7886
SWIDTH 738 0
DWIDTH 8 0
BBX 7 11 1 0
BITMAP
30
10
10
78
84
84
86
86
84
84
78
ENDCHAR
STARTCHAR uni1ECF
ENCODING 7887
SWIDTH 514 0
DWIDTH 6 0
BBX 5 9 0 0
BITMAP
30
10
20
50
48
88
88
48
70
ENDCHAR
STARTCHAR uni1ED0
ENCODING 7888
SWIDTH 738 0
DWIDTH 8 0
BBX 7 12 1 0
BITMAP
04
18
78
00
78
84
84
86
86
84
84
78
ENDCHAR
STARTCHAR uni1ED1
ENCODING 7889
SWIDTH 514 0
DWIDTH 6 0
BBX 6 9 0 0
BITMAP
0C
30
40
70
48
88
88
48
70
ENDCHAR
STARTCHAR uni1ED2
ENCODING 7890
SWIDTH 738 0
DWIDTH 8 0
BBX 7 11 1 0
BITMAP
18
7C
00
78
84
84
86
86
84
84
78
ENDCHAR
STARTCHAR uni1ED3
ENCODING 7891
SWIDTH 514 0
DWIDTH 6 0
BBX 5 9 0 0
BITMAP
10
38
50
70
48
88
88
48
70
ENDCHAR
STARTCHAR uni1ED4
ENCODING 7892
SWIDTH 738 0
DWIDTH 8 0
BBX 7 12 1 0
BITMAP
08
04
38
48
78
84
84
86
86
84
84
78
ENDCHAR
STARTCHAR uni1ED5
ENCODING 7893
SWIDTH 514 0
DWIDTH 6 0
BBX 5 10 0 0
BITMAP
18
08
30
50
70
48
88
88
48
70
ENDCHAR
STARTCHAR uni1ED6
ENCODING 7894
SWIDTH 738 0
DWIDTH 8 0
BBX 7 12 1 0
BITMAP
78
30
78
00
78
84
84
86
86
84
84
78
ENDCHAR
STARTCHAR uni1ED7
ENCODING 7895
SWIDTH 514 0
DWIDTH 6 0
BBX 5 9 0 0
BITMAP
78
30
50
70
48
88
88
48
70
ENDCHAR
STARTCHAR uni1ED8
ENCODING 7896
SWIDTH 738 0
DWIDTH 8 0
BBX 7 13 1 -2
BITMAP
10
78
00
78
84
84
86
86
84
84
78
00
30
ENDCHAR
STARTCHAR uni1ED9
ENCODING 7897
SWIDTH 514 0
DWIDTH 6 0
BBX 5 10 0 -2
BITMAP
30
50
70
48
88
88
48
70
00
30
ENDCHAR
STARTCHAR uni1EDA
ENCODING 7898
SWIDTH 737 0
DWIDTH 8 0
BBX 7 11 1 0
BITMAP
10
22
02
7C
84
84
86
86
84
84
78
ENDCHAR
STARTCHAR uni1EDB
ENCODING 7899
SWIDTH 516 0
DWIDTH 6 0
BBX 6 8 0 0
BITMAP
14
24
58
48
88
88
48
70
ENDCHAR
STARTCHAR uni1EDC
ENCODING 7900
SWIDTH 737 0
DWIDTH 8 0
BBX 7 11 1 0
BITMAP
20
12
02
7C
84
84
86
86
84
84
78
ENDCHAR
STARTCHAR uni1EDD
ENCODING 7901
SWIDTH 516 0
DWIDTH 6 0
BBX 6 8 0 0
BITMAP
24
24
58
48
88
88
48
70
ENDCHAR
STARTCHAR uni1EDE
ENCODING 7902
SWIDTH 737 0
DWIDTH 8 0
BBX 7 11 1 0
BITMAP
30
12
12
7C
84
84
86
86
84
84
78
ENDCHAR
STARTCHAR uni1EDF
ENCODING 7903
SWIDTH 516 0
DWIDTH 6 0
BBX 6 9 0 0
BITMAP
30
14
24
58
48
88
88
48
70
ENDCHAR
STARTCHAR uni1EE0
ENCODING 7904
SWIDTH 737 0
DWIDTH 8 0
BBX 7 10 1 0
BITMAP
7A
02
7C
84
84
86
86
84
84
78
ENDCHAR
STARTCHAR uni1EE1
ENCODING 7905
SWIDTH 516 0
DWIDTH 6 0
BBX 6 8 0 0
BITMAP
7C
04
78
48
88
88
48
70
ENDCHAR
STARTCHAR uni1EE2
ENCODING 7906
SWIDTH 737 0
DWIDTH 8 0
BBX 7 12 1 -2
BITMAP
02
02
7C
84
84
86
86
84
84
78
00
30
ENDCHAR
STARTCHAR uni1EE3
ENCODING 7907
SWIDTH 516 0
DWIDTH 6 0
BBX 6 10 0 -2
BITMAP
04
04
78
48
88
88
48
70
00
30
ENDCHAR
STARTCHAR uni1EE4
ENCODING 7908
SWIDTH 752 0
DWIDTH 8 0
BBX 8 10 0 -2
BITMAP
E7
42
42
42
42
42
22
3C
00
08
ENDCHAR
STARTCHAR uni1EE5
ENCODING 7909
SWIDTH 570 0
DWIDTH 6 0
BBX 6 8 0 -2
BITMAP
D8
48
48
48
48
7C
00
30
ENDCHAR
STARTCHAR uni1EE6
ENCODING 7910
SWIDTH 752 0
DWIDTH 8 0
BBX 8 11 0 0
BITMAP
08
04
08
E7
42
42
42
42
42
22
3C
ENDCHAR
STARTCHAR uni1EE7
ENCODING 7911
SWIDTH 570 0
DWIDTH 6 0
BBX 6 9 0 0
BITMAP
30
10
10
D8
48
48
48
48
7C
ENDCHAR
STARTCHAR uni1EE8
ENCODING 7912
SWIDTH 762 0
DWIDTH 8 0
BBX 9 11 0 0
BITMAP
0C80
1880
0080
E700
4200
4200
4200
4200
4200
2200
3C00
ENDCHAR
STARTCHAR uni1EE9
ENCODING 7913
SWIDTH 574 0
DWIDTH 6 0
BBX 6 8 0 0
BITMAP
14
24
D8
48
48
48
48
7C
ENDCHAR
STARTCHAR uni1EEA
ENCODING 7914
SWIDTH 762 0
DWIDTH 8 0
BBX 9 11 0 0
BITMAP
1080
0880
0080
E700
4200
4200
4200
4200
4200
2200
3C00
ENDCHAR
STARTCHAR uni1EEB
ENCODING 7915
SWIDTH 574 0
DWIDTH 6 0
BBX 6 8 0 0
BITMAP
24
14
D8
48
48
48
48
7C
ENDCHAR
STARTCHAR uni1EEC
ENCODING 7916
SWIDTH 762 0
DWIDTH 8 0
BBX 9 11 0 0
BITMAP
0880
0480
0880
E700
4200
4200
4200
4200
4200
2200
3C00
ENDCHAR
STARTCHAR uni1EED
ENCODING 7917
SWIDTH 574 0
DWIDTH 6 0
BBX 6 9 0 0
BITMAP
30
14
24
D8
48
48
48
48
7C
ENDCHAR
STARTCHAR uni1EEE
ENCODING 7918
SWIDTH 762 0
DWIDTH 8 0
BBX 9 11 0 0
BITMAP
0080
1C80
0080
E700
4200
4200
4200
4200
4200
2200
3C00
ENDCHAR
STARTCHAR uni1EEF
ENCODING 7919
SWIDTH 574 0
DWIDTH 6 0
BBX 6 8 0 0
BITMAP
2C
54
D8
48
48
48
48
7C
ENDCHAR
STARTCHAR uni1EF0
ENCODING 7920
SWIDTH 762 0
DWIDTH 8 0
BBX 9 13 0 -2
BITMAP
0080
0080
0080
E700
4200
4200
4200
4200
4200
2200
3C00
0000
0800
ENDCHAR
STARTCHAR uni1EF1
ENCODING 7921
SWIDTH 574 0
DWIDTH 6 0
BBX 6 10 0 -2
BITMAP
04
04
D8
48
48
48
48
7C
00
30
ENDCHAR
STARTCHAR Ygrave
ENCODING 7922
SWIDTH 647 0
DWIDTH 7 0
BBX 7 11 0 0
BITMAP
10
18
00
E6
64
28
38
10
10
10
38
ENDCHAR
STARTCHAR ygrave
ENCODING 7923
SWIDTH 483 0
DWIDTH 5 0
BBX 5 11 0 -3
BITMAP
20
20
C8
48
50
30
30
20
20
20
C0
ENDCHAR
STARTCHAR uni1EF4
ENCODING 7924
SWIDTH 647 0
DWIDTH 7 0
BBX 7 10 0 -2
BITMAP
E6
64
28
38
10
10
10
38
00
10
ENDCHAR
STARTCHAR uni1EF5
ENCODING 7925
SWIDTH 483 0
DWIDTH 5 0
BBX 5 9 0 -3
BITMAP
C8
48
50
30
30
20
20
30
C0
ENDCHAR
STARTCHAR uni1EF6
ENCODING 7926
SWIDTH 647 0
DWIDTH 7 0
BBX 7 11 0 0
BITMAP
18
08
10
E6
64
28
38
10
10
10
38
ENDCHAR
STARTCHAR uni1EF7
ENCODING 7927
SWIDTH 483 0
DWIDTH 5 0
BBX 5 12 0 -3
BITMAP
30
10
20
C8
48
50
30
30
20
20
20
C0
ENDCHAR
STARTCHAR uni1EF8
ENCODING 7928
SWIDTH 647 0
DWIDTH 7 0
BBX 7 10 0 0
BITMAP
3C
00
E6
64
28
38
10
10
10
38
ENDCHAR
STARTCHAR uni1EF9
ENCODING 7929
SWIDTH 483 0
DWIDTH 5 0
BBX 5 11 0 -3
BITMAP
28
50
C8
48
50
30
30
20
20
20
C0
ENDCHAR
STARTCHAR uni2000
ENCODING 8192
SWIDTH 500 0
DWIDTH 6 0
BBX 1 1 0 0
BITMAP
00
ENDCHAR
STARTCHAR uni2001
ENCODING 8193
SWIDTH 1000 0
DWIDTH 11 0
BBX 1 1 0 0
BITMAP
00
ENDCHAR
STARTCHAR uni2002
ENCODING 8194
SWIDTH 500 0
DWIDTH 6 0
BBX 1 1 0 0
BITMAP
00
ENDCHAR
STARTCHAR uni2003
ENCODING 8195
SWIDTH 1000 0
DWIDTH 11 0
BBX 1 1 0 0
BITMAP
00
ENDCHAR
STARTCHAR uni2004
ENCODING 8196
SWIDTH 334 0
DWIDTH 4 0
BBX 1 1 0 0
BITMAP
00
ENDCHAR
STARTCHAR uni2005
ENCODING 8197
SWIDTH 250 0
DWIDTH 3 0
BBX 1 1 0 0
BITMAP
00
ENDCHAR
STARTCHAR uni2006
ENCODING 8198
SWIDTH 167 0
DWIDTH 2 0
BBX 1 1 0 0
BITMAP
00
ENDCHAR
STARTCHAR uni2007
ENCODING 8199
SWIDTH 560 0
DWIDTH 6 0
BBX 1 1 0 0
BITMAP
00
ENDCHAR
STARTCHAR uni2008
ENCODING 8200
SWIDTH 297 0
DWIDTH 3 0
BBX 1 1 0 0
BITMAP
00
ENDCHAR
STARTCHAR uni2009
ENCODING 8201
SWIDTH 125 0
DWIDTH 1 0
BBX 1 1 0 0
BITMAP
00
ENDCHAR
STARTCHAR uni200A
ENCODING 8202
SWIDTH 63 0
DWIDTH 1 0
BBX 1 1 0 0
BITMAP
00
ENDCHAR
STARTCHAR uni200B
ENCODING 8203
SWIDTH 0 0
DWIDTH 0 0
BBX 1 1 0 0
BITMAP
00
ENDCHAR
STARTCHAR uni200C
ENCODING 8204
SWIDTH 0 0
DWIDTH 0 0
BBX 1 13 0 -3
BITMAP
80
80
80
80
80
80
80
80
80
80
80
80
80
ENDCHAR
STARTCHAR uni200D
ENCODING 8205
SWIDTH 0 0
DWIDTH 0 0
BBX 2 14 -1 -3
BITMAP
C0
C0
C0
80
80
80
80
80
80
80
80
80
80
80
ENDCHAR
STARTCHAR uni2010
ENCODING 8208
SWIDTH 315 0
DWIDTH 3 0
BBX 3 1 0 3
BITMAP
E0
ENDCHAR
STARTCHAR uni2011
ENCODING 8209
SWIDTH 315 0
DWIDTH 3 0
BBX 3 1 0 3
BITMAP
E0
ENDCHAR
STARTCHAR figuredash
ENCODING 8210
SWIDTH 495 0
DWIDTH 5 0
BBX 5 1 0 3
BITMAP
F8
ENDCHAR
STARTCHAR endash
ENCODING 8211
SWIDTH 500 0
DWIDTH 6 0
BBX 5 1 0 3
BITMAP
F8
ENDCHAR
STARTCHAR emdash
ENCODING 8212
SWIDTH 1000 0
DWIDTH 11 0
BBX 11 1 0 3
BITMAP
FFE0
ENDCHAR
STARTCHAR uni2015
ENCODING 8213
SWIDTH 940 0
DWIDTH 10 0
BBX 10 1 0 3
BITMAP
FFC0
ENDCHAR
STARTCHAR uni2016
ENCODING 8214
SWIDTH 427 0
DWIDTH 5 0
BBX 3 12 1 -3
BITMAP
A0
A0
A0
A0
A0
A0
A0
A0
A0
A0
A0
A0
ENDCHAR
STARTCHAR underscoredbl
ENCODING 8215
SWIDTH 512 0
DWIDTH 6 0
BBX 6 2 0 -3
BITMAP
FC
FC
ENDCHAR
STARTCHAR quoteleft
ENCODING 8216
SWIDTH 245 0
DWIDTH 3 0
BBX 1 3 1 6
BITMAP
80
80
80
ENDCHAR
STARTCHAR quoteright
ENCODING 8217
SWIDTH 245 0
DWIDTH 3 0
BBX 1 3 1 6
BITMAP
80
80
80
ENDCHAR
STARTCHAR quotesinglbase
ENCODING 8218
SWIDTH 243 0
DWIDTH 3 0
BBX 1 3 1 -2
BITMAP
80
80
80
ENDCHAR
STARTCHAR quotereversed
ENCODING 8219
SWIDTH 243 0
DWIDTH 3 0
BBX 1 3 1 6
BITMAP
80
80
80
ENDCHAR
STARTCHAR quotedblleft
ENCODING 8220
SWIDTH 435 0
DWIDTH 5 0
BBX 3 3 1 6
BITMAP
A0
A0
A0
ENDCHAR
STARTCHAR quotedblright
ENCODING 8221
SWIDTH 434 0
DWIDTH 5 0
BBX 3 3 1 6
BITMAP
A0
A0
A0
ENDCHAR
STARTCHAR quotedblbase
ENCODING 8222
SWIDTH 433 0
DWIDTH 5 0
BBX 3 3 1 -2
BITMAP
A0
A0
C0
ENDCHAR
STARTCHAR uni201F
ENCODING 8223
SWIDTH 434 0
DWIDTH 5 0
BBX 3 3 1 6
BITMAP
A0
A0
A0
ENDCHAR
STARTCHAR dagger
ENCODING 8224
SWIDTH 512 0
DWIDTH 6 0
BBX 4 11 1 -2
BITMAP
40
40
40
B0
40
40
40
40
40
40
40
ENDCHAR
STARTCHAR daggerdbl
ENCODING 8225
SWIDTH 512 0
DWIDTH 6 0
BBX 4 10 1 -1
BITMAP
40
40
40
B0
40
40
40
B0
40
40
ENDCHAR
STARTCHAR bullet
ENCODING 8226
SWIDTH 457 0
DWIDTH 5 0
BBX 3 3 1 2
BITMAP
E0
E0
60
ENDCHAR
STARTCHAR twodotenleader
ENCODING 8229
SWIDTH 500 0
DWIDTH 6 0
BBX 5 1 0 0
BITMAP
C8
ENDCHAR
STARTCHAR ellipsis
ENCODING 8230
SWIDTH 887 0
DWIDTH 10 0
BBX 8 1 1 0
BITMAP
9B
ENDCHAR
STARTCHAR uni202F
ENCODING 8239
SWIDTH 125 0
DWIDTH 1 0
BBX 1 1 0 0
BITMAP
00
ENDCHAR
STARTCHAR perthousand
ENCODING 8240
SWIDTH 1017 0
DWIDTH 11 0
BBX 11 8 0 0
BITMAP
7C00
9400
9800
6800
1640
1AA0
2AA0
4EC0
ENDCHAR
STARTCHAR uni2031
ENCODING 8241
SWIDTH 1342 0
DWIDTH 15 0
BBX 14 8 0 0
BITMAP
7C00
9400
9800
6800
164C
1AB4
2AB4
4EDC
ENDCHAR
STARTCHAR minute
ENCODING 8242
SWIDTH 296 0
DWIDTH 3 0
BBX 2 4 1 5
BITMAP
40
80
80
80
ENDCHAR
STARTCHAR second
ENCODING 8243
SWIDTH 436 0
DWIDTH 5 0
BBX 3 4 1 5
BITMAP
60
A0
C0
C0
ENDCHAR
STARTCHAR uni2034
ENCODING 8244
SWIDTH 576 0
DWIDTH 6 0
BBX 5 4 1 5
BITMAP
68
B0
D0
D0
ENDCHAR
STARTCHAR uni2035
ENCODING 8245
SWIDTH 296 0
DWIDTH 3 0
BBX 2 4 1 5
BITMAP
80
80
80
40
ENDCHAR
STARTCHAR uni2036
ENCODING 8246
SWIDTH 436 0
DWIDTH 5 0
BBX 3 4 1 5
BITMAP
C0
A0
A0
60
ENDCHAR
STARTCHAR uni2037
ENCODING 8247
SWIDTH 576 0
DWIDTH 6 0
BBX 5 4 1 5
BITMAP
D0
B0
B0
68
ENDCHAR
STARTCHAR uni2038
ENCODING 8248
SWIDTH 523 0
DWIDTH 6 0
BBX 4 3 1 -2
BITMAP
40
60
90
ENDCHAR
STARTCHAR guilsinglleft
ENCODING 8249
SWIDTH 307 0
DWIDTH 3 0
BBX 3 5 0 0
BITMAP
20
40
80
40
20
ENDCHAR
STARTCHAR guilsinglright
ENCODING 8250
SWIDTH 307 0
DWIDTH 3 0
BBX 2 5 1 0
BITMAP
80
80
40
80
80
ENDCHAR
STARTCHAR uni203B
ENCODING 8251
SWIDTH 701 0
DWIDTH 8 0
BBX 6 7 1 0
BITMAP
B4
48
50
A4
30
48
B4
ENDCHAR
STARTCHAR exclamdbl
ENCODING 8252
SWIDTH 565 0
DWIDTH 6 0
BBX 4 8 1 0
BITMAP
90
90
90
90
90
90
00
90
ENDCHAR
STARTCHAR uni203E
ENCODING 8254
SWIDTH 512 0
DWIDTH 6 0
BBX 6 1 0 10
BITMAP
FC
ENDCHAR
STARTCHAR uni2040
ENCODING 8256
SWIDTH 810 0
DWIDTH 9 0
BBX 7 3 1 6
BITMAP
7C
82
80
ENDCHAR
STARTCHAR uni2043
ENCODING 8259
SWIDTH 352 0
DWIDTH 4 0
BBX 2 2 1 2
BITMAP
C0
C0
ENDCHAR
STARTCHAR fraction
ENCODING 8260
SWIDTH 205 0
DWIDTH 2 0
BBX 5 9 -1 0
BITMAP
08
10
10
20
20
40
40
80
80
ENDCHAR
STARTCHAR uni2047
ENCODING 8263
SWIDTH 822 0
DWIDTH 9 0
BBX 9 8 0 0
BITMAP
7700
9480
1080
1100
2100
2200
0000
2200
ENDCHAR
STARTCHAR uni204B
ENCODING 8267
SWIDTH 605 0
DWIDTH 7 0
BBX 5 10 1 -2
BITMAP
F0
68
68
68
70
60
60
60
60
B0
ENDCHAR
STARTCHAR uni204C
ENCODING 8268
SWIDTH 479 0
DWIDTH 5 0
BBX 4 4 1 1
BITMAP
70
E0
E0
70
ENDCHAR
STARTCHAR uni204D
ENCODING 8269
SWIDTH 479 0
DWIDTH 5 0
BBX 3 4 1 1
BITMAP
E0
A0
A0
E0
ENDCHAR
STARTCHAR uni204E
ENCODING 8270
SWIDTH 410 0
DWIDTH 5 0
BBX 4 5 0 -2
BITMAP
20
B0
60
F0
20
ENDCHAR
STARTCHAR uni204F
ENCODING 8271
SWIDTH 245 0
DWIDTH 3 0
BBX 1 8 1 -2
BITMAP
80
80
00
00
00
80
80
80
ENDCHAR
STARTCHAR uni2050
ENCODING 8272
SWIDTH 809 0
DWIDTH 9 0
BBX 7 9 1 0
BITMAP
7C
82
82
00
00
00
82
82
7C
ENDCHAR
STARTCHAR uni2051
ENCODING 8273
SWIDTH 410 0
DWIDTH 5 0
BBX 4 10 0 -1
BITMAP
20
B0
60
B0
20
20
B0
60
F0
20
ENDCHAR
STARTCHAR uni2052
ENCODING 8274
SWIDTH 482 0
DWIDTH 5 0
BBX 4 12 1 -3
BITMAP
90
20
20
20
20
40
40
40
80
80
B0
80
ENDCHAR
STARTCHAR uni2057
ENCODING 8279
SWIDTH 727 0
DWIDTH 8 0
BBX 6 4 1 5
BITMAP
6C
B4
D4
D8
ENDCHAR
STARTCHAR uni205F
ENCODING 8287
SWIDTH 222 0
DWIDTH 2 0
BBX 1 1 0 0
BITMAP
00
ENDCHAR
STARTCHAR uni2061
ENCODING 8289
SWIDTH 0 0
DWIDTH 0 0
BBX 1 1 0 0
BITMAP
00
ENDCHAR
STARTCHAR uni2062
ENCODING 8290
SWIDTH 0 0
DWIDTH 0 0
BBX 1 1 0 0
BITMAP
00
ENDCHAR
STARTCHAR uni2063
ENCODING 8291
SWIDTH 0 0
DWIDTH 0 0
BBX 1 1 0 0
BITMAP
00
ENDCHAR
STARTCHAR uni2064
ENCODING 8292
SWIDTH 0 0
DWIDTH 0 0
BBX 1 1 0 0
BITMAP
00
ENDCHAR
STARTCHAR zerosuperior
ENCODING 8304
SWIDTH 412 0
DWIDTH 5 0
BBX 4 5 0 3
BITMAP
70
90
90
90
70
ENDCHAR
STARTCHAR uni2071
ENCODING 8305
SWIDTH 245 0
DWIDTH 3 0
BBX 2 6 0 3
BITMAP
40
00
C0
40
40
C0
ENDCHAR
STARTCHAR foursuperior
ENCODING 8308
SWIDTH 403 0
DWIDTH 4 0
BBX 4 5 0 3
BITMAP
20
60
60
F0
20
ENDCHAR
STARTCHAR fivesuperior
ENCODING 8309
SWIDTH 358 0
DWIDTH 4 0
BBX 4 5 0 3
BITMAP
60
60
10
10
E0
ENDCHAR
STARTCHAR sixsuperior
ENCODING 8310
SWIDTH 390 0
DWIDTH 4 0
BBX 4 5 0 3
BITMAP
70
E0
90
90
70
ENDCHAR
STARTCHAR sevensuperior
ENCODING 8311
SWIDTH 364 0
DWIDTH 4 0
BBX 4 5 0 3
BITMAP
F0
10
20
20
40
ENDCHAR
STARTCHAR eightsuperior
ENCODING 8312
SWIDTH 374 0
DWIDTH 4 0
BBX 4 5 0 3
BITMAP
F0
90
60
90
F0
ENDCHAR
STARTCHAR ninesuperior
ENCODING 8313
SWIDTH 390 0
DWIDTH 4 0
BBX 4 5 0 3
BITMAP
70
90
70
10
60
ENDCHAR
STARTCHAR uni207A
ENCODING 8314
SWIDTH 536 0
DWIDTH 6 0
BBX 4 5 1 3
BITMAP
40
40
F0
40
40
ENDCHAR
STARTCHAR uni207B
ENCODING 8315
SWIDTH 536 0
DWIDTH 6 0
BBX 4 1 1 5
BITMAP
F0
ENDCHAR
STARTCHAR uni207C
ENCODING 8316
SWIDTH 534 0
DWIDTH 6 0
BBX 4 3 1 4
BITMAP
F0
00
F0
ENDCHAR
STARTCHAR parenleftsuperior
ENCODING 8317
SWIDTH 268 0
DWIDTH 3 0
BBX 3 8 0 1
BITMAP
60
40
80
80
80
80
40
20
ENDCHAR
STARTCHAR parenrightsuperior
ENCODING 8318
SWIDTH 268 0
DWIDTH 3 0
BBX 3 8 0 1
BITMAP
C0
40
20
20
20
40
40
80
ENDCHAR
STARTCHAR nsuperior
ENCODING 8319
SWIDTH 491 0
DWIDTH 5 0
BBX 5 4 0 3
BITMAP
F0
48
48
D8
ENDCHAR
STARTCHAR zeroinferior
ENCODING 8320
SWIDTH 412 0
DWIDTH 5 0
BBX 4 5 0 -2
BITMAP
70
90
90
90
70
ENDCHAR
STARTCHAR oneinferior
ENCODING 8321
SWIDTH 333 0
DWIDTH 4 0
BBX 3 5 0 -2
BITMAP
C0
40
40
40
60
ENDCHAR
STARTCHAR twoinferior
ENCODING 8322
SWIDTH 373 0
DWIDTH 4 0
BBX 4 5 0 -2
BITMAP
60
90
20
40
F0
ENDCHAR
STARTCHAR threeinferior
ENCODING 8323
SWIDTH 374 0
DWIDTH 4 0
BBX 4 5 0 -2
BITMAP
E0
20
60
10
E0
ENDCHAR
STARTCHAR fourinferior
ENCODING 8324
SWIDTH 403 0
DWIDTH 4 0
BBX 4 5 0 -2
BITMAP
20
60
60
F0
20
ENDCHAR
STARTCHAR fiveinferior
ENCODING 8325
SWIDTH 358 0
DWIDTH 4 0
BBX 4 5 0 -2
BITMAP
60
60
10
10
E0
ENDCHAR
STARTCHAR sixinferior
ENCODING 8326
SWIDTH 390 0
DWIDTH 4 0
BBX 4 5 0 -2
BITMAP
70
E0
90
90
70
ENDCHAR
STARTCHAR seveninferior
ENCODING 8327
SWIDTH 364 0
DWIDTH 4 0
BBX 4 5 0 -2
BITMAP
F0
10
20
20
40
ENDCHAR
STARTCHAR eightinferior
ENCODING 8328
SWIDTH 374 0
DWIDTH 4 0
BBX 4 5 0 -2
BITMAP
F0
90
60
90
F0
ENDCHAR
STARTCHAR nineinferior
ENCODING 8329
SWIDTH 390 0
DWIDTH 4 0
BBX 4 5 0 -2
BITMAP
70
90
70
10
60
ENDCHAR
STARTCHAR uni208A
ENCODING 8330
SWIDTH 536 0
DWIDTH 6 0
BBX 4 5 1 -2
BITMAP
40
40
F0
40
40
ENDCHAR
STARTCHAR uni208B
ENCODING 8331
SWIDTH 536 0
DWIDTH 6 0
BBX 4 1 1 0
BITMAP
F0
ENDCHAR
STARTCHAR uni208C
ENCODING 8332
SWIDTH 534 0
DWIDTH 6 0
BBX 4 3 1 -1
BITMAP
F0
00
F0
ENDCHAR
STARTCHAR parenleftinferior
ENCODING 8333
SWIDTH 268 0
DWIDTH 3 0
BBX 3 8 0 -4
BITMAP
60
40
80
80
80
80
40
20
ENDCHAR
STARTCHAR parenrightinferior
ENCODING 8334
SWIDTH 268 0
DWIDTH 3 0
BBX 3 8 0 -4
BITMAP
C0
40
20
20
20
40
40
80
ENDCHAR
STARTCHAR uni20A3
ENCODING 8355
SWIDTH 495 0
DWIDTH 5 0
BBX 5 8 0 0
BITMAP
F8
48
40
F0
F0
40
40
E0
ENDCHAR
STARTCHAR uni20A4
ENCODING 8356
SWIDTH 495 0
DWIDTH 5 0
BBX 5 8 0 0
BITMAP
38
28
40
70
70
20
C8
F8
ENDCHAR
STARTCHAR uni20A7
ENCODING 8359
SWIDTH 1193 0
DWIDTH 13 0
BBX 13 8 0 0
BITMAP
7800
4500
47B8
4548
7920
4118
4148
E1F8
ENDCHAR
STARTCHAR uni20AB
ENCODING 8363
SWIDTH 495 0
DWIDTH 5 0
BBX 5 8 0 0
BITMAP
10
38
70
50
90
50
78
78
ENDCHAR
STARTCHAR Euro
ENCODING 8364
SWIDTH 495 0
DWIDTH 5 0
BBX 5 8 0 0
BITMAP
38
48
40
F0
F0
40
48
38
ENDCHAR
STARTCHAR uni20B9
ENCODING 8377
SWIDTH 495 0
DWIDTH 5 0
BBX 4 8 1 0
BITMAP
F0
20
F0
20
C0
40
20
10
ENDCHAR
STARTCHAR uni20BA
ENCODING 8378
SWIDTH 495 0
DWIDTH 5 0
BBX 5 8 0 0
BITMAP
E0
40
50
E0
70
C8
48
F0
ENDCHAR
STARTCHAR uni20BD
ENCODING 8381
SWIDTH 495 0
DWIDTH 5 0
BBX 5 8 0 0
BITMAP
F0
48
48
48
F0
F0
40
E0
ENDCHAR
STARTCHAR uni20D0
ENCODING 8400
SWIDTH 0 0
DWIDTH 0 0
BBX 5 2 -5 7
BITMAP
40
F8
ENDCHAR
STARTCHAR uni20D1
ENCODING 8401
SWIDTH 0 0
DWIDTH 0 0
BBX 5 2 -5 7
BITMAP
10
F8
ENDCHAR
STARTCHAR uni20D2
ENCODING 8402
SWIDTH 0 0
DWIDTH 0 0
BBX 1 10 -3 -1
BITMAP
80
80
80
80
80
80
80
80
80
80
ENDCHAR
STARTCHAR uni20D3
ENCODING 8403
SWIDTH 0 0
DWIDTH 0 0
BBX 1 8 -3 -2
BITMAP
80
80
80
80
80
80
80
80
ENDCHAR
STARTCHAR uni20D4
ENCODING 8404
SWIDTH 0 0
DWIDTH 0 0
BBX 6 3 -6 6
BITMAP
38
C4
64
ENDCHAR
STARTCHAR uni20D5
ENCODING 8405
SWIDTH 0 0
DWIDTH 0 0
BBX 6 3 -5 6
BITMAP
70
8C
98
ENDCHAR
STARTCHAR uni20D6
ENCODING 8406
SWIDTH 0 0
DWIDTH 0 0
BBX 5 3 -5 6
BITMAP
40
F8
40
ENDCHAR
STARTCHAR uni20D7
ENCODING 8407
SWIDTH 0 0
DWIDTH 0 0
BBX 5 3 -5 6
BITMAP
10
F8
10
ENDCHAR
STARTCHAR uni20D8
ENCODING 8408
SWIDTH 0 0
DWIDTH 0 0
BBX 3 4 -4 1
BITMAP
40
A0
A0
40
ENDCHAR
STARTCHAR uni20D9
ENCODING 8409
SWIDTH 0 0
DWIDTH 0 0
BBX 4 4 -4 1
BITMAP
40
B0
A0
40
ENDCHAR
STARTCHAR uni20DA
ENCODING 8410
SWIDTH 0 0
DWIDTH 0 0
BBX 4 4 -4 1
BITMAP
C0
A0
B0
40
ENDCHAR
STARTCHAR uni20DB
ENCODING 8411
SWIDTH 0 0
DWIDTH 0 0
BBX 5 1 -5 6
BITMAP
A8
ENDCHAR
STARTCHAR uni20DC
ENCODING 8412
SWIDTH 0 0
DWIDTH 0 0
BBX 7 1 -6 6
BITMAP
AA
ENDCHAR
STARTCHAR uni20DD
ENCODING 8413
SWIDTH 0 0
DWIDTH 0 0
BBX 11 11 -8 -3
BITMAP
1F00
2080
4040
8020
8020
8020
8020
8020
4040
2080
1F00
ENDCHAR
STARTCHAR uni20DE
ENCODING 8414
SWIDTH 0 0
DWIDTH 0 0
BBX 11 11 -8 -2
BITMAP
FFE0
8020
8020
8020
8020
8020
8020
8020
8020
8020
FFE0
ENDCHAR
STARTCHAR uni20DF
ENCODING 8415
SWIDTH 0 0
DWIDTH 0 0
BBX 13 14 -9 -4
BITMAP
0200
0600
0D00
1880
3040
6020
C010
8008
4010
2020
1040
0880
0500
0200
ENDCHAR
STARTCHAR uni20E1
ENCODING 8417
SWIDTH 0 0
DWIDTH 0 0
BBX 5 3 -5 6
BITMAP
50
F8
50
ENDCHAR
STARTCHAR uni20E4
ENCODING 8420
SWIDTH 0 0
DWIDTH 0 0
BBX 17 13 -11 -2
BITMAP
008000
014000
014000
022000
042000
041000
080800
080800
100400
200200
200200
400100
FFFF80
ENDCHAR
STARTCHAR uni20E5
ENCODING 8421
SWIDTH 0 0
DWIDTH 0 0
BBX 5 9 -5 -2
BITMAP
80
40
40
20
20
20
10
10
08
ENDCHAR
STARTCHAR uni20E6
ENCODING 8422
SWIDTH 0 0
DWIDTH 0 0
BBX 3 9 -4 -2
BITMAP
A0
A0
A0
A0
A0
A0
A0
A0
A0
ENDCHAR
STARTCHAR uni20E7
ENCODING 8423
SWIDTH 0 0
DWIDTH 0 0
BBX 9 10 -7 -2
BITMAP
FF80
0080
0080
0080
0080
0080
0080
0080
0080
0080
ENDCHAR
STARTCHAR uni20E8
ENCODING 8424
SWIDTH 0 0
DWIDTH 0 0
BBX 5 1 -5 -2
BITMAP
A8
ENDCHAR
STARTCHAR uni20E9
ENCODING 8425
SWIDTH 0 0
DWIDTH 0 0
BBX 6 2 -6 6
BITMAP
FC
84
ENDCHAR
STARTCHAR uni20EA
ENCODING 8426
SWIDTH 0 0
DWIDTH 0 0
BBX 9 3 -7 1
BITMAP
4000
FF80
4000
ENDCHAR
STARTCHAR uni20EB
ENCODING 8427
SWIDTH 0 0
DWIDTH 0 0
BBX 7 11 -6 -2
BITMAP
0A
0A
14
14
28
28
28
50
50
A0
A0
ENDCHAR
STARTCHAR uni20EC
ENCODING 8428
SWIDTH 0 0
DWIDTH 0 0
BBX 5 2 -5 -3
BITMAP
F8
10
ENDCHAR
STARTCHAR uni20ED
ENCODING 8429
SWIDTH 0 0
DWIDTH 0 0
BBX 5 2 -5 -3
BITMAP
F8
40
ENDCHAR
STARTCHAR uni20EE
ENCODING 8430
SWIDTH 0 0
DWIDTH 0 0
BBX 5 3 -5 -3
BITMAP
40
F8
40
ENDCHAR
STARTCHAR uni20EF
ENCODING 8431
SWIDTH 0 0
DWIDTH 0 0
BBX 5 3 -5 -3
BITMAP
10
F8
10
ENDCHAR
STARTCHAR uni20F0
ENCODING 8432
SWIDTH 0 0
DWIDTH 0 0
BBX 3 4 -4 6
BITMAP
40
E0
E0
40
ENDCHAR
STARTCHAR uni2100
ENCODING 8448
SWIDTH 939 0
DWIDTH 10 0
BBX 10 8 0 0
BITMAP
6100
5100
7200
9280
7D40
0A00
0940
1180
ENDCHAR
STARTCHAR uni2101
ENCODING 8449
SWIDTH 936 0
DWIDTH 10 0
BBX 10 8 0 0
BITMAP
6100
5100
7200
95C0
7D00
08C0
0940
1180
ENDCHAR
STARTCHAR uni2102
ENCODING 8450
SWIDTH 695 0
DWIDTH 8 0
BBX 7 8 0 0
BITMAP
3C
42
40
A0
A0
40
42
3C
ENDCHAR
STARTCHAR uni2103
ENCODING 8451
SWIDTH 1028 0
DWIDTH 11 0
BBX 10 9 1 0
BITMAP
C000
A7C0
A840
C840
0800
1800
0800
0840
0780
ENDCHAR
STARTCHAR uni2104
ENCODING 8452
SWIDTH 646 0
DWIDTH 7 0
BBX 7 8 0 0
BITMAP
70
20
70
A8
A0
78
22
7E
ENDCHAR
STARTCHAR uni2105
ENCODING 8453
SWIDTH 953 0
DWIDTH 10 0
BBX 10 8 0 0
BITMAP
6100
9200
8200
8580
7A40
0A40
1240
2180
ENDCHAR
STARTCHAR uni2106
ENCODING 8454
SWIDTH 1072 0
DWIDTH 12 0
BBX 11 8 0 0
BITMAP
2100
5200
8200
5560
6520
0920
1120
10E0
ENDCHAR
STARTCHAR uni2107
ENCODING 8455
SWIDTH 612 0
DWIDTH 7 0
BBX 6 8 0 0
BITMAP
7C
44
44
30
C0
C0
44
38
ENDCHAR
STARTCHAR uni2108
ENCODING 8456
SWIDTH 669 0
DWIDTH 7 0
BBX 7 8 0 0
BITMAP
B8
44
92
1E
12
06
84
78
ENDCHAR
STARTCHAR uni2109
ENCODING 8457
SWIDTH 949 0
DWIDTH 10 0
BBX 9 9 1 0
BITMAP
C000
BF80
A880
C880
0F00
0880
0800
0800
1E00
ENDCHAR
STARTCHAR uni210A
ENCODING 8458
SWIDTH 657 0
DWIDTH 7 0
BBX 8 8 -1 -3
BITMAP
0E
12
32
57
9C
24
44
38
ENDCHAR
STARTCHAR uni210B
ENCODING 8459
SWIDTH 951 0
DWIDTH 10 0
BBX 11 8 0 0
BITMAP
3C60
4880
4900
0F00
0900
1100
9200
E180
ENDCHAR
STARTCHAR uni210C
ENCODING 8460
SWIDTH 728 0
DWIDTH 8 0
BBX 8 10 0 -3
BITMAP
3C
20
6E
32
33
12
62
A2
34
48
ENDCHAR
STARTCHAR uni210D
ENCODING 8461
SWIDTH 715 0
DWIDTH 8 0
BBX 6 8 1 0
BITMAP
CC
CC
CC
CC
FC
CC
CC
CC
ENDCHAR
STARTCHAR uni210E
ENCODING 8462
SWIDTH 569 0
DWIDTH 6 0
BBX 5 8 1 0
BITMAP
C0
40
50
A8
D0
90
98
90
ENDCHAR
STARTCHAR uni210F
ENCODING 8463
SWIDTH 569 0
DWIDTH 6 0
BBX 6 8 0 0
BITMAP
60
78
A8
54
68
48
4C
48
ENDCHAR
STARTCHAR uni2110
ENCODING 8464
SWIDTH 496 0
DWIDTH 5 0
BBX 6 8 0 0
BITMAP
3C
48
48
08
10
10
90
E0
ENDCHAR
STARTCHAR uni2111
ENCODING 8465
SWIDTH 673 0
DWIDTH 7 0
BBX 7 8 0 -1
BITMAP
32
4C
46
28
04
66
A4
18
ENDCHAR
STARTCHAR uni2112
ENCODING 8466
SWIDTH 699 0
DWIDTH 8 0
BBX 7 8 0 0
BITMAP
0C
14
20
20
20
42
E2
9C
ENDCHAR
STARTCHAR uni2113
ENCODING 8467
SWIDTH 529 0
DWIDTH 6 0
BBX 6 8 0 0
BITMAP
08
14
24
38
60
C0
50
60
ENDCHAR
STARTCHAR uni2114
ENCODING 8468
SWIDTH 787 0
DWIDTH 9 0
BBX 8 8 0 0
BITMAP
D8
FE
4E
49
49
49
49
EE
ENDCHAR
STARTCHAR uni2115
ENCODING 8469
SWIDTH 692 0
DWIDTH 8 0
BBX 6 8 1 0
BITMAP
84
C4
A4
D4
B4
9C
94
8C
ENDCHAR
STARTCHAR uni2116
ENCODING 8470
SWIDTH 1070 0
DWIDTH 12 0
BBX 11 8 0 0
BITMAP
6180
3280
3A60
2AA0
26A0
2660
A200
C2E0
ENDCHAR
STARTCHAR uni2117
ENCODING 8471
SWIDTH 781 0
DWIDTH 9 0
BBX 7 8 1 0
BITMAP
78
84
B2
AA
B2
F2
84
78
ENDCHAR
STARTCHAR uni2118
ENCODING 8472
SWIDTH 846 0
DWIDTH 9 0
BBX 8 9 1 -3
BITMAP
70
86
99
A1
E1
6A
AC
A0
C0
ENDCHAR
STARTCHAR uni2119
ENCODING 8473
SWIDTH 665 0
DWIDTH 7 0
BBX 6 8 1 0
BITMAP
F8
CC
CC
CC
F8
C0
C0
C0
ENDCHAR
STARTCHAR uni211A
ENCODING 8474
SWIDTH 751 0
DWIDTH 8 0
BBX 8 9 0 -1
BITMAP
3C
42
43
A3
A3
43
5A
3C
03
ENDCHAR
STARTCHAR uni211B
ENCODING 8475
SWIDTH 789 0
DWIDTH 9 0
BBX 8 8 0 0
BITMAP
1E
29
49
0A
14
14
95
E2
ENDCHAR
STARTCHAR uni211C
ENCODING 8476
SWIDTH 778 0
DWIDTH 9 0
BBX 8 8 0 0
BITMAP
6E
92
52
3C
56
16
53
A2
ENDCHAR
STARTCHAR uni211D
ENCODING 8477
SWIDTH 729 0
DWIDTH 8 0
BBX 7 8 1 0
BITMAP
F8
CC
CC
CC
F8
D8
D4
CE
ENDCHAR
STARTCHAR uni211E
ENCODING 8478
SWIDTH 725 0
DWIDTH 8 0
BBX 8 9 0 -1
BITMAP
F8
44
44
44
78
4B
44
EA
10
ENDCHAR
STARTCHAR uni211F
ENCODING 8479
SWIDTH 659 0
DWIDTH 7 0
BBX 7 12 0 -3
BITMAP
18
08
F8
4C
54
78
68
68
44
F6
50
20
ENDCHAR
STARTCHAR uni2120
ENCODING 8480
SWIDTH 937 0
DWIDTH 10 0
BBX 10 5 0 2
BITMAP
6CC0
8480
6B80
9A80
EEC0
ENDCHAR
STARTCHAR uni2121
ENCODING 8481
SWIDTH 1200 0
DWIDTH 13 0
BBX 13 5 0 2
BITMAP
F760
2520
2720
24A8
6778
ENDCHAR
STARTCHAR trademark
ENCODING 8482
SWIDTH 881 0
DWIDTH 10 0
BBX 9 4 0 3
BITMAP
FC80
2580
2A80
6E80
ENDCHAR
STARTCHAR uni2123
ENCODING 8483
SWIDTH 680 0
DWIDTH 7 0
BBX 8 12 0 -3
BITMAP
18
08
EF
4A
74
34
28
38
30
40
50
20
ENDCHAR
STARTCHAR uni2124
ENCODING 8484
SWIDTH 648 0
DWIDTH 7 0
BBX 7 8 0 0
BITMAP
7E
0A
14
18
28
50
A0
FE
ENDCHAR
STARTCHAR uni2125
ENCODING 8485
SWIDTH 434 0
DWIDTH 5 0
BBX 4 11 0 -3
BITMAP
70
A0
20
70
20
60
10
10
10
10
E0
ENDCHAR
STARTCHAR uni2126
ENCODING 8486
SWIDTH 763 0
DWIDTH 8 0
BBX 8 8 0 0
BITMAP
1C
62
43
41
43
62
95
F7
ENDCHAR
STARTCHAR uni2127
ENCODING 8487
SWIDTH 763 0
DWIDTH 8 0
BBX 8 8 0 0
BITMAP
F7
95
62
43
43
43
62
1C
ENDCHAR
STARTCHAR uni2128
ENCODING 8488
SWIDTH 641 0
DWIDTH 7 0
BBX 7 10 0 -2
BITMAP
38
44
44
24
18
24
06
66
A4
18
ENDCHAR
STARTCHAR uni2129
ENCODING 8489
SWIDTH 368 0
DWIDTH 4 0
BBX 3 5 0 0
BITMAP
60
A0
20
20
20
ENDCHAR
STARTCHAR uni212A
ENCODING 8490
SWIDTH 702 0
DWIDTH 8 0
BBX 8 8 0 0
BITMAP
FE
44
48
50
70
48
44
FF
ENDCHAR
STARTCHAR uni212B
ENCODING 8491
SWIDTH 722 0
DWIDTH 8 0
BBX 8 10 0 0
BITMAP
18
18
18
18
18
2C
24
3C
42
C7
ENDCHAR
STARTCHAR uni212C
ENCODING 8492
SWIDTH 754 0
DWIDTH 8 0
BBX 8 8 0 0
BITMAP
1E
69
4A
1E
13
11
22
FC
ENDCHAR
STARTCHAR uni212D
ENCODING 8493
SWIDTH 639 0
DWIDTH 7 0
BBX 7 8 0 0
BITMAP
3A
4C
50
D8
C8
48
74
38
ENDCHAR
STARTCHAR estimated
ENCODING 8494
SWIDTH 863 0
DWIDTH 10 0
BBX 9 8 0 -1
BITMAP
1E00
6100
4180
FF80
C000
4000
6100
1E00
ENDCHAR
STARTCHAR uni212F
ENCODING 8495
SWIDTH 527 0
DWIDTH 6 0
BBX 5 6 0 0
BITMAP
18
28
50
60
C8
70
ENDCHAR
STARTCHAR uni2130
ENCODING 8496
SWIDTH 572 0
DWIDTH 6 0
BBX 6 8 0 0
BITMAP
18
24
20
38
40
80
C8
30
ENDCHAR
STARTCHAR uni2131
ENCODING 8497
SWIDTH 713 0
DWIDTH 8 0
BBX 9 8 0 0
BITMAP
1C80
6B00
4800
1E00
0800
1000
9000
E000
ENDCHAR
STARTCHAR uni2132
ENCODING 8498
SWIDTH 588 0
DWIDTH 6 0
BBX 6 8 0 0
BITMAP
1C
08
08
48
78
48
88
FC
ENDCHAR
STARTCHAR uni2133
ENCODING 8499
SWIDTH 1038 0
DWIDTH 11 0
BBX 12 8 0 0
BITMAP
3030
48C0
1940
1580
1680
2480
A4A0
C4C0
ENDCHAR
STARTCHAR uni2134
ENCODING 8500
SWIDTH 691 0
DWIDTH 8 0
BBX 9 6 -1 0
BITMAP
0C00
1280
1300
3200
D200
0C00
ENDCHAR
STARTCHAR uni2135
ENCODING 8501
SWIDTH 698 0
DWIDTH 8 0
BBX 7 8 0 0
BITMAP
84
46
22
54
4C
46
22
42
ENDCHAR
STARTCHAR uni2136
ENCODING 8502
SWIDTH 654 0
DWIDTH 7 0
BBX 5 7 1 0
BITMAP
F8
08
08
08
08
08
F8
ENDCHAR
STARTCHAR uni2137
ENCODING 8503
SWIDTH 517 0
DWIDTH 6 0
BBX 5 7 0 0
BITMAP
70
10
10
10
10
18
E8
ENDCHAR
STARTCHAR uni2138
ENCODING 8504
SWIDTH 613 0
DWIDTH 7 0
BBX 5 8 1 0
BITMAP
80
F8
10
10
10
10
10
10
ENDCHAR
STARTCHAR uni2139
ENCODING 8505
SWIDTH 361 0
DWIDTH 4 0
BBX 4 8 0 0
BITMAP
60
60
E0
60
60
60
60
F0
ENDCHAR
STARTCHAR uni213A
ENCODING 8506
SWIDTH 907 0
DWIDTH 10 0
BBX 9 7 1 0
BITMAP
7880
8480
8300
8300
8200
8200
7C00
ENDCHAR
STARTCHAR uni213B
ENCODING 8507
SWIDTH 1216 0
DWIDTH 13 0
BBX 13 5 0 2
BITMAP
F278
5630
7620
4730
C9D8
ENDCHAR
STARTCHAR uni213C
ENCODING 8508
SWIDTH 689 0
DWIDTH 8 0
BBX 7 6 0 0
BITMAP
FE
68
68
68
6A
64
ENDCHAR
STARTCHAR uni213D
ENCODING 8509
SWIDTH 552 0
DWIDTH 6 0
BBX 6 8 0 -3
BITMAP
44
A8
58
30
10
38
38
10
ENDCHAR
STARTCHAR uni213E
ENCODING 8510
SWIDTH 550 0
DWIDTH 6 0
BBX 5 8 1 0
BITMAP
F8
C0
C0
C0
C0
C0
C0
C0
ENDCHAR
STARTCHAR uni213F
ENCODING 8511
SWIDTH 714 0
DWIDTH 8 0
BBX 6 8 1 0
BITMAP
FC
CC
CC
CC
CC
CC
CC
CC
ENDCHAR
STARTCHAR uni2140
ENCODING 8512
SWIDTH 945 0
DWIDTH 10 0
BBX 9 12 1 -3
BITMAP
FF00
A000
5000
4800
2800
2400
3400
2800
4800
5000
A000
FF80
ENDCHAR
STARTCHAR uni2141
ENCODING 8513
SWIDTH 711 0
DWIDTH 8 0
BBX 7 8 1 0
BITMAP
F8
8C
84
C6
06
84
8C
70
ENDCHAR
STARTCHAR uni2142
ENCODING 8514
SWIDTH 572 0
DWIDTH 6 0
BBX 5 7 0 1
BITMAP
F8
08
08
08
08
08
08
ENDCHAR
STARTCHAR uni2143
ENCODING 8515
SWIDTH 572 0
DWIDTH 6 0
BBX 5 8 0 0
BITMAP
08
08
08
08
08
08
08
F8
ENDCHAR
STARTCHAR uni2144
ENCODING 8516
SWIDTH 645 0
DWIDTH 7 0
BBX 7 8 0 0
BITMAP
10
10
10
10
18
28
44
C6
ENDCHAR
STARTCHAR uni2145
ENCODING 8517
SWIDTH 717 0
DWIDTH 8 0
BBX 7 8 0 0
BITMAP
3C
62
62
66
66
A6
C4
F8
ENDCHAR
STARTCHAR uni2146
ENCODING 8518
SWIDTH 607 0
DWIDTH 7 0
BBX 7 8 0 0
BITMAP
06
06
3A
4C
AC
CC
D4
68
ENDCHAR
STARTCHAR uni2147
ENCODING 8519
SWIDTH 520 0
DWIDTH 6 0
BBX 5 6 0 0
BITMAP
30
48
D8
F8
C8
70
ENDCHAR
STARTCHAR uni2148
ENCODING 8520
SWIDTH 285 0
DWIDTH 3 0
BBX 3 8 0 0
BITMAP
20
60
60
60
A0
C0
C0
C0
ENDCHAR
STARTCHAR uni2149
ENCODING 8521
SWIDTH 284 0
DWIDTH 3 0
BBX 5 11 -2 -3
BITMAP
08
18
18
18
18
28
30
30
30
20
C0
ENDCHAR
STARTCHAR uni214A
ENCODING 8522
SWIDTH 680 0
DWIDTH 7 0
BBX 7 8 0 0
BITMAP
20
20
FC
A2
A2
1C
20
1C
ENDCHAR
STARTCHAR uni214B
ENCODING 8523
SWIDTH 736 0
DWIDTH 8 0
BBX 8 8 0 0
BITMAP
6E
91
29
2A
6C
14
14
0C
ENDCHAR
STARTCHAR uni214C
ENCODING 8524
SWIDTH 794 0
DWIDTH 9 0
BBX 8 8 0 0
BITMAP
66
A9
3D
6B
3D
29
28
10
ENDCHAR
STARTCHAR uni214D
ENCODING 8525
SWIDTH 1010 0
DWIDTH 11 0
BBX 11 8 0 0
BITMAP
2080
6100
5100
72E0
DA80
0440
0920
08C0
ENDCHAR
STARTCHAR uni214E
ENCODING 8526
SWIDTH 473 0
DWIDTH 5 0
BBX 3 6 1 0
BITMAP
20
20
E0
20
20
E0
ENDCHAR
STARTCHAR uni214F
ENCODING 8527
SWIDTH 1161 0
DWIDTH 13 0
BBX 13 5 0 0
BITMAP
3660
55A0
55A0
3660
FFF8
ENDCHAR
STARTCHAR onethird
ENCODING 8531
SWIDTH 899 0
DWIDTH 10 0
BBX 9 9 0 0
BITMAP
0200
C200
4400
4580
4A80
6880
1180
1080
2380
ENDCHAR
STARTCHAR twothirds
ENCODING 8532
SWIDTH 948 0
DWIDTH 10 0
BBX 10 9 0 0
BITMAP
0100
E200
1200
2480
5540
F840
0880
1040
11C0
ENDCHAR
STARTCHAR uni2155
ENCODING 8533
SWIDTH 867 0
DWIDTH 10 0
BBX 9 9 0 0
BITMAP
0200
C200
4400
4400
4980
6B00
1080
1080
2380
ENDCHAR
STARTCHAR uni2156
ENCODING 8534
SWIDTH 916 0
DWIDTH 10 0
BBX 10 9 0 0
BITMAP
0100
6200
9200
2400
55C0
F980
0840
1040
1380
ENDCHAR
STARTCHAR uni2157
ENCODING 8535
SWIDTH 896 0
DWIDTH 10 0
BBX 9 9 0 0
BITMAP
0100
6200
A400
6400
1980
E980
1080
1080
2380
ENDCHAR
STARTCHAR uni2158
ENCODING 8536
SWIDTH 929 0
DWIDTH 10 0
BBX 10 9 0 0
BITMAP
0100
2200
6200
6400
F5C0
0980
0840
1040
1180
ENDCHAR
STARTCHAR uni2159
ENCODING 8537
SWIDTH 871 0
DWIDTH 10 0
BBX 9 9 0 0
BITMAP
0200
C200
4400
4480
4B00
6B80
1280
1280
2380
ENDCHAR
STARTCHAR uni215A
ENCODING 8538
SWIDTH 871 0
DWIDTH 10 0
BBX 9 9 0 0
BITMAP
0200
6200
6400
1580
1A00
EB80
1280
1280
2380
ENDCHAR
STARTCHAR oneeighth
ENCODING 8539
SWIDTH 887 0
DWIDTH 10 0
BBX 9 9 0 0
BITMAP
0200
C200
4400
4500
4A80
6A80
1180
1280
2380
ENDCHAR
STARTCHAR threeeighths
ENCODING 8540
SWIDTH 911 0
DWIDTH 10 0
BBX 10 9 0 0
BITMAP
0100
6200
A400
6580
1A40
E980
1180
1240
23C0
ENDCHAR
STARTCHAR fiveeighths
ENCODING 8541
SWIDTH 891 0
DWIDTH 10 0
BBX 9 9 0 0
BITMAP
0200
6200
6400
1580
1A80
EA80
1180
1280
2380
ENDCHAR
STARTCHAR seveneighths
ENCODING 8542
SWIDTH 847 0
DWIDTH 9 0
BBX 9 9 0 0
BITMAP
0200
F400
2400
2B00
4C80
5300
1300
2480
2380
ENDCHAR
STARTCHAR uni2190
ENCODING 8592
SWIDTH 948 0
DWIDTH 10 0
BBX 9 5 1 0
BITMAP
2000
4000
FF80
4000
2000
ENDCHAR
STARTCHAR uni2191
ENCODING 8593
SWIDTH 523 0
DWIDTH 6 0
BBX 4 9 1 -2
BITMAP
40
60
D0
40
40
40
40
40
40
ENDCHAR
STARTCHAR uni2192
ENCODING 8594
SWIDTH 948 0
DWIDTH 10 0
BBX 9 5 1 0
BITMAP
0400
0200
FF80
0200
0400
ENDCHAR
STARTCHAR uni2193
ENCODING 8595
SWIDTH 523 0
DWIDTH 6 0
BBX 4 9 1 -2
BITMAP
40
40
40
40
40
40
D0
60
40
ENDCHAR
STARTCHAR uni2194
ENCODING 8596
SWIDTH 948 0
DWIDTH 10 0
BBX 10 5 0 0
BITMAP
1100
2080
FFC0
2080
1100
ENDCHAR
STARTCHAR uni2195
ENCODING 8597
SWIDTH 523 0
DWIDTH 6 0
BBX 4 11 1 -3
BITMAP
40
60
D0
40
40
40
40
40
D0
60
40
ENDCHAR
STARTCHAR uni2196
ENCODING 8598
SWIDTH 948 0
DWIDTH 10 0
BBX 9 9 1 -2
BITMAP
E000
C000
A000
1000
0800
0400
0200
0100
0080
ENDCHAR
STARTCHAR uni2197
ENCODING 8599
SWIDTH 948 0
DWIDTH 10 0
BBX 9 9 1 -2
BITMAP
0780
0100
0280
0400
0800
1000
2000
4000
8000
ENDCHAR
STARTCHAR uni2198
ENCODING 8600
SWIDTH 948 0
DWIDTH 10 0
BBX 9 9 1 -2
BITMAP
8000
4000
2000
1000
0800
0400
0280
0100
0780
ENDCHAR
STARTCHAR uni2199
ENCODING 8601
SWIDTH 948 0
DWIDTH 10 0
BBX 9 9 1 -2
BITMAP
0080
0100
0200
0400
0800
1000
A000
C000
E000
ENDCHAR
STARTCHAR uni219A
ENCODING 8602
SWIDTH 948 0
DWIDTH 10 0
BBX 9 5 1 0
BITMAP
2200
4400
FF80
4800
2800
ENDCHAR
STARTCHAR uni219B
ENCODING 8603
SWIDTH 948 0
DWIDTH 10 0
BBX 9 5 1 0
BITMAP
0A00
1200
FF80
2100
6200
ENDCHAR
STARTCHAR uni219C
ENCODING 8604
SWIDTH 948 0
DWIDTH 10 0
BBX 9 3 1 1
BITMAP
E700
B880
8000
ENDCHAR
STARTCHAR uni219D
ENCODING 8605
SWIDTH 948 0
DWIDTH 10 0
BBX 9 3 1 1
BITMAP
6780
9F00
0100
ENDCHAR
STARTCHAR uni219E
ENCODING 8606
SWIDTH 948 0
DWIDTH 10 0
BBX 9 5 1 0
BITMAP
2800
5000
FF80
5000
2800
ENDCHAR
STARTCHAR uni219F
ENCODING 8607
SWIDTH 523 0
DWIDTH 6 0
BBX 4 9 1 -2
BITMAP
40
60
D0
60
D0
40
40
40
40
ENDCHAR
STARTCHAR uni21A0
ENCODING 8608
SWIDTH 948 0
DWIDTH 10 0
BBX 9 5 1 0
BITMAP
1400
0A00
FF80
0A00
1400
ENDCHAR
STARTCHAR uni21A1
ENCODING 8609
SWIDTH 523 0
DWIDTH 6 0
BBX 4 9 1 -2
BITMAP
40
40
40
40
D0
60
D0
60
40
ENDCHAR
STARTCHAR uni21A2
ENCODING 8610
SWIDTH 948 0
DWIDTH 10 0
BBX 9 5 1 0
BITMAP
2080
4100
FE00
4100
2080
ENDCHAR
STARTCHAR uni21A3
ENCODING 8611
SWIDTH 948 0
DWIDTH 10 0
BBX 9 5 1 0
BITMAP
8400
8200
7F80
8200
8400
ENDCHAR
STARTCHAR uni21A4
ENCODING 8612
SWIDTH 948 0
DWIDTH 10 0
BBX 9 5 1 0
BITMAP
2080
4080
FF80
4080
2080
ENDCHAR
STARTCHAR uni21A5
ENCODING 8613
SWIDTH 523 0
DWIDTH 6 0
BBX 4 9 1 -2
BITMAP
60
D0
40
40
40
40
40
40
F0
ENDCHAR
STARTCHAR uni21A6
ENCODING 8614
SWIDTH 948 0
DWIDTH 10 0
BBX 9 5 1 0
BITMAP
8400
8200
FF80
8200
8200
ENDCHAR
STARTCHAR uni21A7
ENCODING 8615
SWIDTH 523 0
DWIDTH 6 0
BBX 4 9 1 -1
BITMAP
F0
40
40
40
40
40
D0
60
40
ENDCHAR
STARTCHAR uni21A8
ENCODING 8616
SWIDTH 523 0
DWIDTH 6 0
BBX 4 9 1 -2
BITMAP
60
D0
40
40
40
D0
60
40
F0
ENDCHAR
STARTCHAR uni21A9
ENCODING 8617
SWIDTH 948 0
DWIDTH 10 0
BBX 9 6 1 0
BITMAP
0300
2080
4080
FF00
4000
2000
ENDCHAR
STARTCHAR uni21AA
ENCODING 8618
SWIDTH 948 0
DWIDTH 10 0
BBX 9 6 1 0
BITMAP
E000
8400
8200
7F80
0200
0400
ENDCHAR
STARTCHAR uni21AB
ENCODING 8619
SWIDTH 948 0
DWIDTH 10 0
BBX 9 6 1 0
BITMAP
0300
2480
4480
FF00
4400
2400
ENDCHAR
STARTCHAR uni21AC
ENCODING 8620
SWIDTH 948 0
DWIDTH 10 0
BBX 9 6 1 0
BITMAP
E000
A400
9200
7F80
1200
1400
ENDCHAR
STARTCHAR uni21AD
ENCODING 8621
SWIDTH 1229 0
DWIDTH 14 0
BBX 12 5 1 0
BITMAP
2040
4420
EAF0
5920
2040
ENDCHAR
STARTCHAR uni21AE
ENCODING 8622
SWIDTH 948 0
DWIDTH 10 0
BBX 10 5 0 0
BITMAP
1300
2480
FFC0
2880
1900
ENDCHAR
STARTCHAR uni21AF
ENCODING 8623
SWIDTH 523 0
DWIDTH 6 0
BBX 4 9 1 -1
BITMAP
10
20
20
40
F0
20
C0
C0
E0
ENDCHAR
STARTCHAR uni21B0
ENCODING 8624
SWIDTH 474 0
DWIDTH 5 0
BBX 5 9 0 -1
BITMAP
10
20
F8
28
18
08
08
08
08
ENDCHAR
STARTCHAR uni21B1
ENCODING 8625
SWIDTH 474 0
DWIDTH 5 0
BBX 5 9 0 -1
BITMAP
20
10
F8
90
A0
80
80
80
80
ENDCHAR
STARTCHAR uni21B2
ENCODING 8626
SWIDTH 474 0
DWIDTH 5 0
BBX 5 10 0 -2
BITMAP
08
08
08
08
08
28
28
F8
20
20
ENDCHAR
STARTCHAR uni21B3
ENCODING 8627
SWIDTH 474 0
DWIDTH 5 0
BBX 5 10 0 -2
BITMAP
80
80
80
80
80
A0
90
F8
10
20
ENDCHAR
STARTCHAR uni21B4
ENCODING 8628
SWIDTH 948 0
DWIDTH 10 0
BBX 9 9 1 -1
BITMAP
FE00
0200
0200
0200
0200
0200
0A80
0700
0200
ENDCHAR
STARTCHAR uni21B5
ENCODING 8629
SWIDTH 948 0
DWIDTH 10 0
BBX 9 10 1 -2
BITMAP
0080
0080
0080
0080
0080
2080
4080
FF80
4000
2000
ENDCHAR
STARTCHAR uni21B6
ENCODING 8630
SWIDTH 948 0
DWIDTH 10 0
BBX 10 6 0 0
BITMAP
0F00
1080
2040
A840
7000
2000
ENDCHAR
STARTCHAR uni21B7
ENCODING 8631
SWIDTH 948 0
DWIDTH 10 0
BBX 10 6 0 0
BITMAP
1C00
6200
4100
8540
0380
0100
ENDCHAR
STARTCHAR uni21B8
ENCODING 8632
SWIDTH 948 0
DWIDTH 10 0
BBX 9 10 1 -2
BITMAP
FF80
E000
C000
A000
1000
0800
0400
0200
0100
0080
ENDCHAR
STARTCHAR uni21B9
ENCODING 8633
SWIDTH 948 0
DWIDTH 10 0
BBX 9 7 1 0
BITMAP
A000
FF80
C000
A480
0280
FF80
0680
ENDCHAR
STARTCHAR uni21BA
ENCODING 8634
SWIDTH 997 0
DWIDTH 11 0
BBX 9 9 1 -1
BITMAP
0100
2600
4300
8280
8080
8080
4100
6300
1C00
ENDCHAR
STARTCHAR uni21BB
ENCODING 8635
SWIDTH 997 0
DWIDTH 11 0
BBX 9 9 1 -1
BITMAP
4000
3200
6100
A080
8080
8080
4100
6300
1C00
ENDCHAR
STARTCHAR uni21BC
ENCODING 8636
SWIDTH 978 0
DWIDTH 11 0
BBX 9 3 1 2
BITMAP
2000
4000
FF80
ENDCHAR
STARTCHAR uni21BD
ENCODING 8637
SWIDTH 978 0
DWIDTH 11 0
BBX 9 3 1 0
BITMAP
FF80
4000
2000
ENDCHAR
STARTCHAR uni21BE
ENCODING 8638
SWIDTH 523 0
DWIDTH 6 0
BBX 3 9 2 -2
BITMAP
80
C0
A0
80
80
80
80
80
80
ENDCHAR
STARTCHAR uni21BF
ENCODING 8639
SWIDTH 523 0
DWIDTH 6 0
BBX 2 9 1 -2
BITMAP
40
40
C0
40
40
40
40
40
40
ENDCHAR
STARTCHAR uni21C0
ENCODING 8640
SWIDTH 978 0
DWIDTH 11 0
BBX 9 3 1 2
BITMAP
0200
0100
FF80
ENDCHAR
STARTCHAR uni21C1
ENCODING 8641
SWIDTH 978 0
DWIDTH 11 0
BBX 9 3 1 0
BITMAP
FF80
0100
0200
ENDCHAR
STARTCHAR uni21C2
ENCODING 8642
SWIDTH 523 0
DWIDTH 6 0
BBX 3 10 2 -2
BITMAP
80
80
80
80
80
80
80
A0
C0
80
ENDCHAR
STARTCHAR uni21C3
ENCODING 8643
SWIDTH 523 0
DWIDTH 6 0
BBX 2 10 1 -2
BITMAP
40
40
40
40
40
40
40
C0
40
40
ENDCHAR
STARTCHAR uni21C4
ENCODING 8644
SWIDTH 948 0
DWIDTH 10 0
BBX 9 9 1 -1
BITMAP
0400
0200
FF80
0200
2200
4000
FF80
4000
2000
ENDCHAR
STARTCHAR uni21C5
ENCODING 8645
SWIDTH 791 0
DWIDTH 9 0
BBX 8 9 0 -2
BITMAP
22
72
AA
22
22
22
2B
26
22
ENDCHAR
STARTCHAR uni21C6
ENCODING 8646
SWIDTH 948 0
DWIDTH 10 0
BBX 9 9 1 -1
BITMAP
2000
4000
FF80
4000
2200
0200
FF80
0200
0400
ENDCHAR
STARTCHAR uni21C7
ENCODING 8647
SWIDTH 948 0
DWIDTH 10 0
BBX 9 9 1 -1
BITMAP
2000
4000
FF80
4000
2000
4000
FF80
4000
2000
ENDCHAR
STARTCHAR uni21C8
ENCODING 8648
SWIDTH 791 0
DWIDTH 9 0
BBX 8 9 0 -2
BITMAP
22
76
AB
22
22
22
22
22
22
ENDCHAR
STARTCHAR uni21C9
ENCODING 8649
SWIDTH 948 0
DWIDTH 10 0
BBX 9 9 1 -1
BITMAP
0400
0200
FF80
0200
0200
0200
FF80
0200
0400
ENDCHAR
STARTCHAR uni21CA
ENCODING 8650
SWIDTH 791 0
DWIDTH 9 0
BBX 8 9 0 -2
BITMAP
22
22
22
22
22
22
EB
36
22
ENDCHAR
STARTCHAR uni21CB
ENCODING 8651
SWIDTH 948 0
DWIDTH 10 0
BBX 9 7 1 -1
BITMAP
2000
4000
FF80
0000
FF80
0200
0400
ENDCHAR
STARTCHAR uni21CC
ENCODING 8652
SWIDTH 948 0
DWIDTH 10 0
BBX 9 7 1 -1
BITMAP
0400
0200
FF80
0000
FF80
4000
2000
ENDCHAR
STARTCHAR uni21CD
ENCODING 8653
SWIDTH 948 0
DWIDTH 10 0
BBX 9 7 1 -1
BITMAP
1100
2100
7F80
8200
7F80
2400
1400
ENDCHAR
STARTCHAR uni21CE
ENCODING 8654
SWIDTH 948 0
DWIDTH 10 0
BBX 10 6 0 0
BITMAP
1600
2500
7F80
C440
3F80
1B00
ENDCHAR
STARTCHAR uni21CF
ENCODING 8655
SWIDTH 948 0
DWIDTH 10 0
BBX 9 7 1 -1
BITMAP
1800
2400
FF00
4180
FE00
4400
8800
ENDCHAR
STARTCHAR uni21D0
ENCODING 8656
SWIDTH 887 0
DWIDTH 10 0
BBX 9 7 1 -1
BITMAP
1000
2000
7F80
8000
7F80
2000
1000
ENDCHAR
STARTCHAR uni21D1
ENCODING 8657
SWIDTH 720 0
DWIDTH 8 0
BBX 6 9 1 -2
BITMAP
20
30
48
CC
48
48
48
48
48
ENDCHAR
STARTCHAR uni21D2
ENCODING 8658
SWIDTH 887 0
DWIDTH 10 0
BBX 9 7 0 -1
BITMAP
0800
0600
FF00
0080
FF00
0400
0800
ENDCHAR
STARTCHAR uni21D3
ENCODING 8659
SWIDTH 720 0
DWIDTH 8 0
BBX 6 9 1 -2
BITMAP
48
48
48
48
48
CC
48
30
30
ENDCHAR
STARTCHAR uni21D4
ENCODING 8660
SWIDTH 948 0
DWIDTH 10 0
BBX 10 5 0 0
BITMAP
1300
3F80
C040
3F80
1300
ENDCHAR
STARTCHAR uni21D5
ENCODING 8661
SWIDTH 720 0
DWIDTH 8 0
BBX 6 10 1 -2
BITMAP
20
30
48
CC
48
48
CC
48
50
30
ENDCHAR
STARTCHAR uni21D6
ENCODING 8662
SWIDTH 948 0
DWIDTH 10 0
BBX 9 9 1 -2
BITMAP
F800
B000
9000
C800
A400
1200
0980
0400
0200
ENDCHAR
STARTCHAR uni21D7
ENCODING 8663
SWIDTH 948 0
DWIDTH 10 0
BBX 9 9 1 -2
BITMAP
0F80
0480
0900
1280
2480
4800
9000
2000
4000
ENDCHAR
STARTCHAR uni21D8
ENCODING 8664
SWIDTH 948 0
DWIDTH 10 0
BBX 9 9 1 -1
BITMAP
4000
2000
9000
4800
2480
1280
0900
0480
0F80
ENDCHAR
STARTCHAR uni21D9
ENCODING 8665
SWIDTH 948 0
DWIDTH 10 0
BBX 9 9 1 -1
BITMAP
0200
0600
0C80
1100
A200
C400
8800
B000
F800
ENDCHAR
STARTCHAR uni21DA
ENCODING 8666
SWIDTH 872 0
DWIDTH 10 0
BBX 9 10 1 -2
BITMAP
1000
1000
3F80
4000
8000
FF80
4000
3F80
2000
1000
ENDCHAR
STARTCHAR uni21DB
ENCODING 8667
SWIDTH 872 0
DWIDTH 10 0
BBX 9 10 0 -2
BITMAP
0800
0400
FC00
0200
0100
FF80
0100
FE00
0400
0800
ENDCHAR
STARTCHAR uni21DC
ENCODING 8668
SWIDTH 948 0
DWIDTH 10 0
BBX 9 5 1 0
BITMAP
2000
4400
ED80
5200
2000
ENDCHAR
STARTCHAR uni21DD
ENCODING 8669
SWIDTH 948 0
DWIDTH 10 0
BBX 9 5 1 0
BITMAP
0200
1200
F780
4A00
0200
ENDCHAR
STARTCHAR uni21DE
ENCODING 8670
SWIDTH 523 0
DWIDTH 6 0
BBX 4 9 1 -1
BITMAP
40
60
D0
40
40
F0
F0
40
40
ENDCHAR
STARTCHAR uni21DF
ENCODING 8671
SWIDTH 523 0
DWIDTH 6 0
BBX 4 9 1 -1
BITMAP
40
40
40
F0
F0
40
D0
60
40
ENDCHAR
STARTCHAR uni21E0
ENCODING 8672
SWIDTH 948 0
DWIDTH 10 0
BBX 9 5 1 0
BITMAP
2000
4000
EA80
4000
2000
ENDCHAR
STARTCHAR uni21E1
ENCODING 8673
SWIDTH 523 0
DWIDTH 6 0
BBX 4 9 1 -2
BITMAP
40
60
D0
00
40
00
40
00
40
ENDCHAR
STARTCHAR uni21E2
ENCODING 8674
SWIDTH 948 0
DWIDTH 10 0
BBX 9 5 1 0
BITMAP
0200
0200
BF80
0200
0200
ENDCHAR
STARTCHAR uni21E3
ENCODING 8675
SWIDTH 523 0
DWIDTH 6 0
BBX 4 9 1 -1
BITMAP
40
00
40
00
40
00
D0
60
40
ENDCHAR
STARTCHAR uni21E4
ENCODING 8676
SWIDTH 948 0
DWIDTH 10 0
BBX 9 5 1 0
BITMAP
A000
A000
FF80
C000
A000
ENDCHAR
STARTCHAR uni21E5
ENCODING 8677
SWIDTH 948 0
DWIDTH 10 0
BBX 9 5 1 0
BITMAP
0480
0280
FF80
0280
0480
ENDCHAR
STARTCHAR uni21E6
ENCODING 8678
SWIDTH 948 0
DWIDTH 10 0
BBX 9 7 1 -1
BITMAP
1000
3000
5F80
8080
5F80
3000
1000
ENDCHAR
STARTCHAR uni21E7
ENCODING 8679
SWIDTH 720 0
DWIDTH 8 0
BBX 6 9 1 -2
BITMAP
20
50
48
CC
48
48
48
48
70
ENDCHAR
STARTCHAR uni21E8
ENCODING 8680
SWIDTH 948 0
DWIDTH 10 0
BBX 9 7 1 -1
BITMAP
0800
0C00
FA00
8180
FA00
0C00
0800
ENDCHAR
STARTCHAR uni21E9
ENCODING 8681
SWIDTH 720 0
DWIDTH 8 0
BBX 6 9 1 -2
BITMAP
70
48
48
48
48
CC
48
48
30
ENDCHAR
STARTCHAR uni21EA
ENCODING 8682
SWIDTH 720 0
DWIDTH 8 0
BBX 6 10 1 -2
BITMAP
20
30
48
84
CC
48
70
00
70
70
ENDCHAR
STARTCHAR uni21F4
ENCODING 8692
SWIDTH 948 0
DWIDTH 10 0
BBX 9 4 1 1
BITMAP
1200
2900
FF80
3A00
ENDCHAR
STARTCHAR uni21F5
ENCODING 8693
SWIDTH 791 0
DWIDTH 9 0
BBX 8 9 0 -2
BITMAP
22
26
2B
22
22
22
AA
72
22
ENDCHAR
STARTCHAR uni21F6
ENCODING 8694
SWIDTH 948 0
DWIDTH 10 0
BBX 9 12 1 -3
BITMAP
0200
0200
FF80
0100
0200
0100
FF80
0200
0200
FF80
0200
0200
ENDCHAR
STARTCHAR uni21F7
ENCODING 8695
SWIDTH 948 0
DWIDTH 10 0
BBX 9 5 1 0
BITMAP
2400
4400
FF80
4400
2400
ENDCHAR
STARTCHAR uni21F8
ENCODING 8696
SWIDTH 948 0
DWIDTH 10 0
BBX 9 5 1 0
BITMAP
1400
1200
FF80
1200
1200
ENDCHAR
STARTCHAR uni21F9
ENCODING 8697
SWIDTH 948 0
DWIDTH 10 0
BBX 9 5 1 0
BITMAP
2A00
4900
FF80
4900
2A00
ENDCHAR
STARTCHAR uni21FA
ENCODING 8698
SWIDTH 948 0
DWIDTH 10 0
BBX 9 5 1 0
BITMAP
2C00
4C00
FF80
4C00
2C00
ENDCHAR
STARTCHAR uni21FB
ENCODING 8699
SWIDTH 948 0
DWIDTH 10 0
BBX 9 5 1 0
BITMAP
3200
3200
FF80
3100
3200
ENDCHAR
STARTCHAR uni21FC
ENCODING 8700
SWIDTH 948 0
DWIDTH 10 0
BBX 10 5 0 0
BITMAP
1D00
2C80
FFC0
2C80
1D00
ENDCHAR
STARTCHAR uni21FD
ENCODING 8701
SWIDTH 948 0
DWIDTH 10 0
BBX 9 5 1 0
BITMAP
2000
6000
BF80
6000
2000
ENDCHAR
STARTCHAR uni21FE
ENCODING 8702
SWIDTH 948 0
DWIDTH 10 0
BBX 9 5 1 0
BITMAP
0400
0200
FD80
0200
0400
ENDCHAR
STARTCHAR uni21FF
ENCODING 8703
SWIDTH 948 0
DWIDTH 10 0
BBX 10 5 0 0
BITMAP
1100
2180
DF40
2180
1100
ENDCHAR
STARTCHAR uni2200
ENCODING 8704
SWIDTH 573 0
DWIDTH 6 0
BBX 6 7 0 0
BITMAP
84
44
78
48
28
30
30
ENDCHAR
STARTCHAR uni2201
ENCODING 8705
SWIDTH 474 0
DWIDTH 5 0
BBX 4 9 1 0
BITMAP
E0
90
90
80
80
80
90
90
E0
ENDCHAR
STARTCHAR partialdiff
ENCODING 8706
SWIDTH 478 0
DWIDTH 5 0
BBX 5 8 0 0
BITMAP
70
10
08
78
88
88
88
70
ENDCHAR
STARTCHAR uni2203
ENCODING 8707
SWIDTH 573 0
DWIDTH 6 0
BBX 4 8 1 0
BITMAP
F0
10
10
10
F0
10
10
F0
ENDCHAR
STARTCHAR uni2204
ENCODING 8708
SWIDTH 573 0
DWIDTH 6 0
BBX 4 10 1 -1
BITMAP
10
F0
30
30
30
F0
50
50
F0
80
ENDCHAR
STARTCHAR uni2205
ENCODING 8709
SWIDTH 780 0
DWIDTH 9 0
BBX 7 8 1 -1
BITMAP
3A
C4
8A
92
A2
C2
C4
B8
ENDCHAR
STARTCHAR uni2206
ENCODING 8710
SWIDTH 748 0
DWIDTH 8 0
BBX 6 8 1 0
BITMAP
10
30
30
58
48
88
84
FC
ENDCHAR
STARTCHAR uni2207
ENCODING 8711
SWIDTH 748 0
DWIDTH 8 0
BBX 7 8 1 0
BITMAP
FE
84
44
48
28
30
30
10
ENDCHAR
STARTCHAR uni2208
ENCODING 8712
SWIDTH 720 0
DWIDTH 8 0
BBX 6 7 1 0
BITMAP
7C
80
80
FC
80
80
7C
ENDCHAR
STARTCHAR uni2209
ENCODING 8713
SWIDTH 720 0
DWIDTH 8 0
BBX 6 9 1 -1
BITMAP
04
7C
90
90
FC
A0
A0
7C
C0
ENDCHAR
STARTCHAR uni220A
ENCODING 8714
SWIDTH 497 0
DWIDTH 5 0
BBX 4 5 1 0
BITMAP
70
80
F0
80
70
ENDCHAR
STARTCHAR uni220B
ENCODING 8715
SWIDTH 720 0
DWIDTH 8 0
BBX 6 7 1 0
BITMAP
F8
04
04
FC
04
04
F8
ENDCHAR
STARTCHAR uni220C
ENCODING 8716
SWIDTH 720 0
DWIDTH 8 0
BBX 6 9 1 -1
BITMAP
04
F8
0C
14
FC
24
24
F8
C0
ENDCHAR
STARTCHAR uni220D
ENCODING 8717
SWIDTH 497 0
DWIDTH 5 0
BBX 4 5 1 0
BITMAP
E0
10
F0
10
E0
ENDCHAR
STARTCHAR uni220E
ENCODING 8718
SWIDTH 558 0
DWIDTH 6 0
BBX 4 7 1 0
BITMAP
F0
F0
F0
F0
F0
F0
F0
ENDCHAR
STARTCHAR uni220F
ENCODING 8719
SWIDTH 1135 0
DWIDTH 12 0
BBX 11 12 1 -3
BITMAP
FFE0
6080
6080
6080
6080
6080
6080
6080
6080
6080
6080
F3E0
ENDCHAR
STARTCHAR uni2210
ENCODING 8720
SWIDTH 1135 0
DWIDTH 12 0
BBX 11 12 1 -3
BITMAP
F3E0
6080
6080
6080
6080
6080
6080
6080
6080
6080
6080
FFE0
ENDCHAR
STARTCHAR uni2211
ENCODING 8721
SWIDTH 936 0
DWIDTH 10 0
BBX 8 11 1 -3
BITMAP
FF
41
61
30
18
08
10
20
41
41
FF
ENDCHAR
STARTCHAR uni2212
ENCODING 8722
SWIDTH 720 0
DWIDTH 8 0
BBX 6 1 1 2
BITMAP
FC
ENDCHAR
STARTCHAR uni2213
ENCODING 8723
SWIDTH 720 0
DWIDTH 8 0
BBX 6 7 1 -1
BITMAP
FC
00
20
20
FC
20
20
ENDCHAR
STARTCHAR uni2214
ENCODING 8724
SWIDTH 720 0
DWIDTH 8 0
BBX 6 9 1 -1
BITMAP
30
00
20
20
20
FC
20
20
20
ENDCHAR
STARTCHAR uni2215
ENCODING 8725
SWIDTH 535 0
DWIDTH 6 0
BBX 4 11 1 -2
BITMAP
10
10
10
20
20
20
40
40
80
80
80
ENDCHAR
STARTCHAR uni2216
ENCODING 8726
SWIDTH 535 0
DWIDTH 6 0
BBX 4 11 1 -2
BITMAP
80
80
80
40
40
40
20
20
20
10
10
ENDCHAR
STARTCHAR uni2217
ENCODING 8727
SWIDTH 536 0
DWIDTH 6 0
BBX 4 5 1 0
BITMAP
40
D0
60
D0
40
ENDCHAR
STARTCHAR uni2218
ENCODING 8728
SWIDTH 436 0
DWIDTH 5 0
BBX 3 4 1 1
BITMAP
C0
A0
A0
E0
ENDCHAR
STARTCHAR uni2219
ENCODING 8729
SWIDTH 457 0
DWIDTH 5 0
BBX 3 3 1 1
BITMAP
40
E0
E0
ENDCHAR
STARTCHAR uni221A
ENCODING 8730
SWIDTH 794 0
DWIDTH 9 0
BBX 9 13 0 -3
BITMAP
0180
0100
0100
0200
0200
0200
4200
A400
2400
1400
1800
1800
0800
ENDCHAR
STARTCHAR uni221B
ENCODING 8731
SWIDTH 794 0
DWIDTH 9 0
BBX 9 14 0 -3
BITMAP
6000
2180
6100
1100
6200
0200
0200
4200
A400
2400
1400
1800
1800
0800
ENDCHAR
STARTCHAR uni221C
ENCODING 8732
SWIDTH 794 0
DWIDTH 9 0
BBX 9 14 0 -3
BITMAP
2000
6180
6100
F100
2200
0200
0200
4200
A400
2400
1400
1800
1800
0800
ENDCHAR
STARTCHAR uni221D
ENCODING 8733
SWIDTH 720 0
DWIDTH 8 0
BBX 6 5 1 0
BITMAP
E4
98
98
98
E4
ENDCHAR
STARTCHAR uni221E
ENCODING 8734
SWIDTH 953 0
DWIDTH 10 0
BBX 9 5 1 0
BITMAP
6700
9880
8880
9C80
6700
ENDCHAR
STARTCHAR uni221F
ENCODING 8735
SWIDTH 720 0
DWIDTH 8 0
BBX 6 7 1 0
BITMAP
80
80
80
80
80
80
FC
ENDCHAR
STARTCHAR uni2220
ENCODING 8736
SWIDTH 720 0
DWIDTH 8 0
BBX 7 6 0 0
BITMAP
02
04
08
10
20
FE
ENDCHAR
STARTCHAR uni2221
ENCODING 8737
SWIDTH 720 0
DWIDTH 8 0
BBX 7 7 0 -1
BITMAP
02
0C
08
14
24
FE
04
ENDCHAR
STARTCHAR uni2222
ENCODING 8738
SWIDTH 720 0
DWIDTH 8 0
BBX 6 6 1 0
BITMAP
0C
18
64
E4
18
0C
ENDCHAR
STARTCHAR uni2223
ENCODING 8739
SWIDTH 272 0
DWIDTH 3 0
BBX 1 10 1 -2
BITMAP
80
80
80
80
80
80
80
80
80
80
ENDCHAR
STARTCHAR uni2224
ENCODING 8740
SWIDTH 413 0
DWIDTH 5 0
BBX 4 10 0 -2
BITMAP
20
20
20
20
30
E0
20
20
20
20
ENDCHAR
STARTCHAR uni2225
ENCODING 8741
SWIDTH 535 0
DWIDTH 6 0
BBX 3 10 1 -2
BITMAP
A0
A0
A0
A0
A0
A0
A0
A0
A0
A0
ENDCHAR
STARTCHAR uni2226
ENCODING 8742
SWIDTH 623 0
DWIDTH 7 0
BBX 7 10 0 -2
BITMAP
28
28
28
2A
2C
38
E8
28
28
28
ENDCHAR
STARTCHAR uni2227
ENCODING 8743
SWIDTH 636 0
DWIDTH 7 0
BBX 7 7 0 0
BITMAP
10
10
28
28
44
44
86
ENDCHAR
STARTCHAR uni2228
ENCODING 8744
SWIDTH 636 0
DWIDTH 7 0
BBX 7 7 0 0
BITMAP
82
44
44
28
28
10
10
ENDCHAR
STARTCHAR uni2229
ENCODING 8745
SWIDTH 636 0
DWIDTH 7 0
BBX 5 6 1 0
BITMAP
70
88
88
88
88
88
ENDCHAR
STARTCHAR uni222A
ENCODING 8746
SWIDTH 636 0
DWIDTH 7 0
BBX 5 7 1 0
BITMAP
88
88
88
88
88
88
70
ENDCHAR
STARTCHAR uni222B
ENCODING 8747
SWIDTH 684 0
DWIDTH 8 0
BBX 7 11 0 -3
BITMAP
06
0A
08
08
10
10
10
10
20
A0
40
ENDCHAR
STARTCHAR uni222C
ENCODING 8748
SWIDTH 1016 0
DWIDTH 11 0
BBX 11 11 0 -3
BITMAP
0660
0AA0
0900
0900
1100
1100
1100
1200
2200
AA00
4C00
ENDCHAR
STARTCHAR uni222D
ENCODING 8749
SWIDTH 1348 0
DWIDTH 15 0
BBX 15 11 0 -3
BITMAP
0664
0AAE
0910
0910
1110
1130
1120
1220
2220
AAC0
4C80
ENDCHAR
STARTCHAR uni222E
ENCODING 8750
SWIDTH 684 0
DWIDTH 8 0
BBX 7 11 0 -3
BITMAP
06
0A
08
38
54
54
54
38
20
A0
40
ENDCHAR
STARTCHAR uni222F
ENCODING 8751
SWIDTH 1016 0
DWIDTH 11 0
BBX 11 11 0 -3
BITMAP
0660
0AA0
0880
3F00
51C0
5140
5140
3F80
2200
AA00
4C00
ENDCHAR
STARTCHAR uni2230
ENCODING 8752
SWIDTH 1348 0
DWIDTH 15 0
BBX 15 11 0 -3
BITMAP
0664
0AAE
0890
1FF0
7118
5134
712C
1FF0
2220
AAC0
4C80
ENDCHAR
STARTCHAR uni2231
ENCODING 8753
SWIDTH 684 0
DWIDTH 8 0
BBX 7 11 0 -3
BITMAP
06
0A
08
08
38
56
52
10
20
A0
40
ENDCHAR
STARTCHAR uni2232
ENCODING 8754
SWIDTH 684 0
DWIDTH 8 0
BBX 7 11 0 -3
BITMAP
06
0A
38
5E
52
52
54
38
20
A0
40
ENDCHAR
STARTCHAR uni2233
ENCODING 8755
SWIDTH 684 0
DWIDTH 8 0
BBX 7 11 0 -3
BITMAP
06
0A
08
38
56
5C
54
38
20
A0
40
ENDCHAR
STARTCHAR uni2234
ENCODING 8756
SWIDTH 635 0
DWIDTH 7 0
BBX 7 6 0 0
BITMAP
10
00
00
00
00
C6
ENDCHAR
STARTCHAR uni2235
ENCODING 8757
SWIDTH 635 0
DWIDTH 7 0
BBX 7 6 0 0
BITMAP
C6
00
00
00
00
10
ENDCHAR
STARTCHAR uni2236
ENCODING 8758
SWIDTH 523 0
DWIDTH 6 0
BBX 2 6 2 0
BITMAP
C0
00
00
00
00
C0
ENDCHAR
STARTCHAR uni2237
ENCODING 8759
SWIDTH 720 0
DWIDTH 8 0
BBX 6 6 1 0
BITMAP
8C
00
00
00
00
8C
ENDCHAR
STARTCHAR uni2238
ENCODING 8760
SWIDTH 720 0
DWIDTH 8 0
BBX 6 3 1 2
BITMAP
30
00
FC
ENDCHAR
STARTCHAR uni2239
ENCODING 8761
SWIDTH 720 0
DWIDTH 8 0
BBX 6 5 1 0
BITMAP
04
00
F0
00
04
ENDCHAR
STARTCHAR uni223A
ENCODING 8762
SWIDTH 720 0
DWIDTH 8 0
BBX 6 5 1 0
BITMAP
84
00
FC
00
84
ENDCHAR
STARTCHAR uni223B
ENCODING 8763
SWIDTH 720 0
DWIDTH 8 0
BBX 6 6 1 0
BITMAP
30
00
44
B4
88
30
ENDCHAR
STARTCHAR uni223C
ENCODING 8764
SWIDTH 720 0
DWIDTH 8 0
BBX 6 3 1 2
BITMAP
04
E4
98
ENDCHAR
STARTCHAR uni223D
ENCODING 8765
SWIDTH 720 0
DWIDTH 8 0
BBX 6 3 1 2
BITMAP
80
9C
64
ENDCHAR
STARTCHAR uni223E
ENCODING 8766
SWIDTH 720 0
DWIDTH 8 0
BBX 6 4 1 1
BITMAP
C4
A4
94
8C
ENDCHAR
STARTCHAR uni223F
ENCODING 8767
SWIDTH 720 0
DWIDTH 8 0
BBX 6 5 1 0
BITMAP
E0
A0
24
14
18
ENDCHAR
STARTCHAR uni2240
ENCODING 8768
SWIDTH 293 0
DWIDTH 3 0
BBX 3 7 0 0
BITMAP
80
60
20
40
40
80
60
ENDCHAR
STARTCHAR uni2241
ENCODING 8769
SWIDTH 720 0
DWIDTH 8 0
BBX 6 4 1 1
BITMAP
14
F4
B8
20
ENDCHAR
STARTCHAR uni2242
ENCODING 8770
SWIDTH 720 0
DWIDTH 8 0
BBX 6 5 1 1
BITMAP
FC
00
00
E4
9C
ENDCHAR
STARTCHAR uni2243
ENCODING 8771
SWIDTH 720 0
DWIDTH 8 0
BBX 6 5 1 0
BITMAP
64
94
88
00
FC
ENDCHAR
STARTCHAR uni2244
ENCODING 8772
SWIDTH 720 0
DWIDTH 8 0
BBX 6 6 1 -1
BITMAP
5C
B4
98
20
FC
40
ENDCHAR
STARTCHAR uni2245
ENCODING 8773
SWIDTH 720 0
DWIDTH 8 0
BBX 6 7 1 0
BITMAP
44
B4
88
00
FC
00
FC
ENDCHAR
STARTCHAR uni2246
ENCODING 8774
SWIDTH 720 0
DWIDTH 8 0
BBX 6 8 1 -1
BITMAP
E4
9C
00
08
FC
20
FC
40
ENDCHAR
STARTCHAR uni2247
ENCODING 8775
SWIDTH 720 0
DWIDTH 8 0
BBX 6 10 1 -2
BITMAP
08
0C
EC
98
10
FC
20
FC
40
40
ENDCHAR
STARTCHAR uni2248
ENCODING 8776
SWIDTH 720 0
DWIDTH 8 0
BBX 6 5 1 0
BITMAP
E4
9C
00
E4
98
ENDCHAR
STARTCHAR uni2249
ENCODING 8777
SWIDTH 720 0
DWIDTH 8 0
BBX 6 7 1 -1
BITMAP
08
F4
9C
64
B4
C8
40
ENDCHAR
STARTCHAR uni224A
ENCODING 8778
SWIDTH 720 0
DWIDTH 8 0
BBX 6 7 1 -1
BITMAP
64
94
08
E4
98
00
FC
ENDCHAR
STARTCHAR uni224B
ENCODING 8779
SWIDTH 720 0
DWIDTH 8 0
BBX 6 7 1 0
BITMAP
C4
B4
88
E4
9C
E4
9C
ENDCHAR
STARTCHAR uni224C
ENCODING 8780
SWIDTH 720 0
DWIDTH 8 0
BBX 6 7 1 0
BITMAP
88
B4
44
00
FC
00
FC
ENDCHAR
STARTCHAR uni224D
ENCODING 8781
SWIDTH 720 0
DWIDTH 8 0
BBX 6 5 1 0
BITMAP
84
78
00
78
84
ENDCHAR
STARTCHAR uni224E
ENCODING 8782
SWIDTH 720 0
DWIDTH 8 0
BBX 6 5 1 0
BITMAP
30
CC
00
CC
30
ENDCHAR
STARTCHAR uni224F
ENCODING 8783
SWIDTH 720 0
DWIDTH 8 0
BBX 6 4 1 1
BITMAP
30
CC
00
FC
ENDCHAR
STARTCHAR uni2250
ENCODING 8784
SWIDTH 720 0
DWIDTH 8 0
BBX 6 6 1 1
BITMAP
30
00
00
FC
00
FC
ENDCHAR
STARTCHAR uni2251
ENCODING 8785
SWIDTH 720 0
DWIDTH 8 0
BBX 6 8 1 -1
BITMAP
30
00
00
FC
00
FC
00
30
ENDCHAR
STARTCHAR uni2252
ENCODING 8786
SWIDTH 720 0
DWIDTH 8 0
BBX 6 8 1 -1
BITMAP
80
00
00
FC
00
FC
00
04
ENDCHAR
STARTCHAR uni2253
ENCODING 8787
SWIDTH 720 0
DWIDTH 8 0
BBX 6 8 1 -1
BITMAP
04
00
00
FC
00
FC
00
80
ENDCHAR
STARTCHAR uni2254
ENCODING 8788
SWIDTH 844 0
DWIDTH 9 0
BBX 8 3 1 1
BITMAP
BF
00
BF
ENDCHAR
STARTCHAR uni2255
ENCODING 8789
SWIDTH 844 0
DWIDTH 9 0
BBX 8 3 1 1
BITMAP
FB
00
FB
ENDCHAR
STARTCHAR uni2256
ENCODING 8790
SWIDTH 720 0
DWIDTH 8 0
BBX 6 4 1 1
BITMAP
FC
30
30
FC
ENDCHAR
STARTCHAR uni2257
ENCODING 8791
SWIDTH 720 0
DWIDTH 8 0
BBX 6 7 1 1
BITMAP
30
48
30
00
FC
00
FC
ENDCHAR
STARTCHAR uni2258
ENCODING 8792
SWIDTH 720 0
DWIDTH 8 0
BBX 6 7 1 1
BITMAP
78
84
00
00
FC
00
FC
ENDCHAR
STARTCHAR uni2259
ENCODING 8793
SWIDTH 720 0
DWIDTH 8 0
BBX 6 8 1 1
BITMAP
20
30
48
48
00
FC
00
FC
ENDCHAR
STARTCHAR uni225A
ENCODING 8794
SWIDTH 720 0
DWIDTH 8 0
BBX 6 9 1 1
BITMAP
88
48
30
30
20
00
FC
00
FC
ENDCHAR
STARTCHAR uni225B
ENCODING 8795
SWIDTH 720 0
DWIDTH 8 0
BBX 6 7 1 1
BITMAP
20
78
30
00
FC
00
FC
ENDCHAR
STARTCHAR uni225C
ENCODING 8796
SWIDTH 720 0
DWIDTH 8 0
BBX 6 8 1 1
BITMAP
20
30
48
78
00
FC
00
FC
ENDCHAR
STARTCHAR uni225D
ENCODING 8797
SWIDTH 720 0
DWIDTH 8 0
BBX 8 8 0 1
BITMAP
21
6A
BA
6E
00
7E
00
7E
ENDCHAR
STARTCHAR uni225E
ENCODING 8798
SWIDTH 720 0
DWIDTH 8 0
BBX 6 7 1 1
BITMAP
78
68
68
78
FC
00
FC
ENDCHAR
STARTCHAR uni225F
ENCODING 8799
SWIDTH 720 0
DWIDTH 8 0
BBX 6 9 1 1
BITMAP
30
30
10
20
20
00
FC
00
FC
ENDCHAR
STARTCHAR uni2260
ENCODING 8800
SWIDTH 720 0
DWIDTH 8 0
BBX 6 9 1 -2
BITMAP
08
08
10
FC
20
FC
40
40
40
ENDCHAR
STARTCHAR uni2261
ENCODING 8801
SWIDTH 720 0
DWIDTH 8 0
BBX 6 5 1 0
BITMAP
FC
00
FC
00
FC
ENDCHAR
STARTCHAR uni2262
ENCODING 8802
SWIDTH 720 0
DWIDTH 8 0
BBX 6 9 1 -2
BITMAP
08
08
FC
10
FC
20
FC
40
40
ENDCHAR
STARTCHAR uni2263
ENCODING 8803
SWIDTH 720 0
DWIDTH 8 0
BBX 6 7 1 -1
BITMAP
FC
00
FC
00
FC
00
FC
ENDCHAR
STARTCHAR uni2264
ENCODING 8804
SWIDTH 720 0
DWIDTH 8 0
BBX 6 8 1 -1
BITMAP
04
18
60
C0
38
04
00
FC
ENDCHAR
STARTCHAR uni2265
ENCODING 8805
SWIDTH 720 0
DWIDTH 8 0
BBX 6 8 1 -1
BITMAP
80
60
18
1C
60
80
00
FC
ENDCHAR
STARTCHAR uni2266
ENCODING 8806
SWIDTH 720 0
DWIDTH 8 0
BBX 6 10 1 -2
BITMAP
0C
30
C0
60
18
04
00
FC
00
FC
ENDCHAR
STARTCHAR uni2267
ENCODING 8807
SWIDTH 720 0
DWIDTH 8 0
BBX 6 10 1 -2
BITMAP
C0
30
0C
18
60
80
00
FC
00
FC
ENDCHAR
STARTCHAR uni2268
ENCODING 8808
SWIDTH 720 0
DWIDTH 8 0
BBX 6 11 1 -3
BITMAP
0C
30
C0
60
18
04
08
FC
20
FC
40
ENDCHAR
STARTCHAR uni2269
ENCODING 8809
SWIDTH 720 0
DWIDTH 8 0
BBX 6 11 1 -3
BITMAP
C0
30
0C
18
60
80
08
FC
20
FC
40
ENDCHAR
STARTCHAR uni226A
ENCODING 8810
SWIDTH 955 0
DWIDTH 11 0
BBX 10 6 0 0
BITMAP
0640
1980
2600
EC00
1B00
06C0
ENDCHAR
STARTCHAR uni226B
ENCODING 8811
SWIDTH 955 0
DWIDTH 11 0
BBX 10 6 0 0
BITMAP
C800
3600
0980
0EC0
3300
CC00
ENDCHAR
STARTCHAR uni226C
ENCODING 8812
SWIDTH 477 0
DWIDTH 5 0
BBX 3 11 1 -3
BITMAP
A0
40
40
A0
A0
A0
A0
A0
40
A0
A0
ENDCHAR
STARTCHAR uni226D
ENCODING 8813
SWIDTH 720 0
DWIDTH 8 0
BBX 6 7 1 -1
BITMAP
08
94
78
20
78
A4
40
ENDCHAR
STARTCHAR uni226E
ENCODING 8814
SWIDTH 720 0
DWIDTH 8 0
BBX 6 9 1 -2
BITMAP
08
0C
0C
30
D0
70
28
44
40
ENDCHAR
STARTCHAR uni226F
ENCODING 8815
SWIDTH 720 0
DWIDTH 8 0
BBX 6 9 1 -2
BITMAP
08
88
D0
30
2C
38
40
C0
40
ENDCHAR
STARTCHAR uni2270
ENCODING 8816
SWIDTH 720 0
DWIDTH 8 0
BBX 6 11 1 -2
BITMAP
08
08
0C
10
70
D0
30
2C
40
FC
40
ENDCHAR
STARTCHAR uni2271
ENCODING 8817
SWIDTH 720 0
DWIDTH 8 0
BBX 6 11 1 -2
BITMAP
08
08
88
70
18
3C
60
A0
40
FC
C0
ENDCHAR
STARTCHAR uni2272
ENCODING 8818
SWIDTH 720 0
DWIDTH 8 0
BBX 6 10 1 -2
BITMAP
04
08
30
C0
60
18
04
04
E4
98
ENDCHAR
STARTCHAR uni2273
ENCODING 8819
SWIDTH 720 0
DWIDTH 8 0
BBX 6 10 1 -2
BITMAP
80
C0
30
0C
10
60
80
04
E4
98
ENDCHAR
STARTCHAR uni2274
ENCODING 8820
SWIDTH 720 0
DWIDTH 8 0
BBX 6 11 1 -3
BITMAP
08
0C
30
D0
60
38
24
24
E4
D8
40
ENDCHAR
STARTCHAR uni2275
ENCODING 8821
SWIDTH 720 0
DWIDTH 8 0
BBX 6 11 1 -3
BITMAP
10
D0
30
1C
38
60
A0
44
E4
D8
40
ENDCHAR
STARTCHAR uni2276
ENCODING 8822
SWIDTH 720 0
DWIDTH 8 0
BBX 6 10 1 -2
BITMAP
04
38
C0
60
18
C4
30
0C
30
C0
ENDCHAR
STARTCHAR uni2277
ENCODING 8823
SWIDTH 720 0
DWIDTH 8 0
BBX 6 10 1 -2
BITMAP
80
60
1C
18
60
8C
30
C0
30
0C
ENDCHAR
STARTCHAR uni2278
ENCODING 8824
SWIDTH 720 0
DWIDTH 8 0
BBX 6 12 1 -3
BITMAP
08
14
18
F0
70
18
E4
30
2C
30
C0
C0
ENDCHAR
STARTCHAR uni2279
ENCODING 8825
SWIDTH 720 0
DWIDTH 8 0
BBX 6 12 1 -3
BITMAP
08
90
70
1C
18
60
AC
30
E0
70
2C
44
ENDCHAR
STARTCHAR uni227A
ENCODING 8826
SWIDTH 720 0
DWIDTH 8 0
BBX 6 6 1 0
BITMAP
04
0C
30
F0
08
04
ENDCHAR
STARTCHAR uni227B
ENCODING 8827
SWIDTH 720 0
DWIDTH 8 0
BBX 6 6 1 0
BITMAP
80
C0
30
3C
40
80
ENDCHAR
STARTCHAR uni227C
ENCODING 8828
SWIDTH 720 0
DWIDTH 8 0
BBX 6 9 1 -2
BITMAP
04
0C
30
E0
18
E4
18
04
04
ENDCHAR
STARTCHAR uni227D
ENCODING 8829
SWIDTH 720 0
DWIDTH 8 0
BBX 6 9 1 -2
BITMAP
80
80
70
1C
60
9C
60
80
80
ENDCHAR
STARTCHAR uni227E
ENCODING 8830
SWIDTH 720 0
DWIDTH 8 0
BBX 6 10 1 -2
BITMAP
04
04
18
E0
18
04
04
04
E4
98
ENDCHAR
STARTCHAR uni227F
ENCODING 8831
SWIDTH 720 0
DWIDTH 8 0
BBX 6 10 1 -2
BITMAP
80
80
60
1C
60
80
80
04
E4
98
ENDCHAR
STARTCHAR uni2280
ENCODING 8832
SWIDTH 720 0
DWIDTH 8 0
BBX 6 9 1 -2
BITMAP
04
0C
0C
18
F0
18
24
24
40
ENDCHAR
STARTCHAR uni2281
ENCODING 8833
SWIDTH 720 0
DWIDTH 8 0
BBX 6 9 1 -2
BITMAP
08
90
90
60
3C
60
C0
C0
80
ENDCHAR
STARTCHAR uni2282
ENCODING 8834
SWIDTH 720 0
DWIDTH 8 0
BBX 6 7 1 0
BITMAP
7C
80
80
80
80
80
7C
ENDCHAR
STARTCHAR uni2283
ENCODING 8835
SWIDTH 720 0
DWIDTH 8 0
BBX 6 7 1 0
BITMAP
F8
04
04
04
04
04
F8
ENDCHAR
STARTCHAR uni2284
ENCODING 8836
SWIDTH 720 0
DWIDTH 8 0
BBX 6 9 1 -1
BITMAP
08
7C
90
90
90
A0
A0
7C
40
ENDCHAR
STARTCHAR uni2285
ENCODING 8837
SWIDTH 720 0
DWIDTH 8 0
BBX 6 9 1 -1
BITMAP
08
F8
1C
14
24
24
2C
F0
40
ENDCHAR
STARTCHAR uni2286
ENCODING 8838
SWIDTH 720 0
DWIDTH 8 0
BBX 6 8 1 -1
BITMAP
7C
80
80
80
80
7C
00
FC
ENDCHAR
STARTCHAR uni2287
ENCODING 8839
SWIDTH 720 0
DWIDTH 8 0
BBX 6 8 1 -1
BITMAP
F8
04
04
04
04
F8
00
FC
ENDCHAR
STARTCHAR uni2288
ENCODING 8840
SWIDTH 720 0
DWIDTH 8 0
BBX 6 11 1 -2
BITMAP
08
08
7C
90
90
90
A0
7C
40
FC
40
ENDCHAR
STARTCHAR uni2289
ENCODING 8841
SWIDTH 720 0
DWIDTH 8 0
BBX 6 11 1 -2
BITMAP
08
08
F8
14
14
14
24
F8
40
FC
40
ENDCHAR
STARTCHAR uni228A
ENCODING 8842
SWIDTH 720 0
DWIDTH 8 0
BBX 6 10 1 -2
BITMAP
7C
80
80
80
80
80
7C
10
FC
20
ENDCHAR
STARTCHAR uni228B
ENCODING 8843
SWIDTH 720 0
DWIDTH 8 0
BBX 6 10 1 -2
BITMAP
F8
04
04
04
04
04
F8
10
FC
20
ENDCHAR
STARTCHAR uni228C
ENCODING 8844
SWIDTH 636 0
DWIDTH 7 0
BBX 5 7 1 0
BITMAP
88
A8
A8
F8
A8
88
70
ENDCHAR
STARTCHAR uni228D
ENCODING 8845
SWIDTH 636 0
DWIDTH 7 0
BBX 5 7 1 0
BITMAP
88
88
88
A8
88
88
70
ENDCHAR
STARTCHAR uni228E
ENCODING 8846
SWIDTH 636 0
DWIDTH 7 0
BBX 5 7 1 0
BITMAP
88
A8
A8
F8
A8
88
70
ENDCHAR
STARTCHAR uni228F
ENCODING 8847
SWIDTH 720 0
DWIDTH 8 0
BBX 6 7 1 0
BITMAP
FC
80
80
80
80
80
FC
ENDCHAR
STARTCHAR uni2290
ENCODING 8848
SWIDTH 720 0
DWIDTH 8 0
BBX 6 7 1 0
BITMAP
FC
04
04
04
04
04
FC
ENDCHAR
STARTCHAR uni2291
ENCODING 8849
SWIDTH 720 0
DWIDTH 8 0
BBX 6 8 1 -1
BITMAP
FC
80
80
80
80
FC
00
FC
ENDCHAR
STARTCHAR uni2292
ENCODING 8850
SWIDTH 720 0
DWIDTH 8 0
BBX 6 8 1 -1
BITMAP
FC
04
04
04
04
FC
00
FC
ENDCHAR
STARTCHAR uni2293
ENCODING 8851
SWIDTH 635 0
DWIDTH 7 0
BBX 5 6 1 0
BITMAP
F8
88
88
88
88
88
ENDCHAR
STARTCHAR uni2294
ENCODING 8852
SWIDTH 635 0
DWIDTH 7 0
BBX 5 7 1 0
BITMAP
88
88
88
88
88
88
F8
ENDCHAR
STARTCHAR uni2295
ENCODING 8853
SWIDTH 862 0
DWIDTH 9 0
BBX 8 9 1 -2
BITMAP
38
56
92
91
FF
91
91
52
3C
ENDCHAR
STARTCHAR uni2296
ENCODING 8854
SWIDTH 862 0
DWIDTH 9 0
BBX 8 9 1 -1
BITMAP
3C
42
81
81
FF
81
81
42
3C
ENDCHAR
STARTCHAR uni2297
ENCODING 8855
SWIDTH 862 0
DWIDTH 9 0
BBX 8 9 1 -1
BITMAP
3C
42
C5
A9
91
A9
C5
42
3C
ENDCHAR
STARTCHAR uni2298
ENCODING 8856
SWIDTH 862 0
DWIDTH 9 0
BBX 8 9 1 -1
BITMAP
3C
42
86
89
91
A1
C1
42
3C
ENDCHAR
STARTCHAR uni2299
ENCODING 8857
SWIDTH 862 0
DWIDTH 9 0
BBX 8 9 1 -1
BITMAP
3C
42
81
81
99
91
81
42
3C
ENDCHAR
STARTCHAR uni229A
ENCODING 8858
SWIDTH 862 0
DWIDTH 9 0
BBX 8 9 1 -1
BITMAP
3C
42
81
99
A9
99
81
42
3C
ENDCHAR
STARTCHAR uni229B
ENCODING 8859
SWIDTH 862 0
DWIDTH 9 0
BBX 8 9 1 -1
BITMAP
3C
42
91
B5
99
BD
91
42
3C
ENDCHAR
STARTCHAR uni229C
ENCODING 8860
SWIDTH 862 0
DWIDTH 9 0
BBX 8 9 1 -1
BITMAP
3C
42
81
FD
81
FD
81
42
3C
ENDCHAR
STARTCHAR uni229D
ENCODING 8861
SWIDTH 862 0
DWIDTH 9 0
BBX 8 9 1 -1
BITMAP
3C
42
81
81
FD
81
81
42
3C
ENDCHAR
STARTCHAR uni229E
ENCODING 8862
SWIDTH 932 0
DWIDTH 10 0
BBX 10 9 0 -2
BITMAP
FFC0
8440
8440
8440
FFC0
8440
8440
8440
FFC0
ENDCHAR
STARTCHAR uni229F
ENCODING 8863
SWIDTH 932 0
DWIDTH 10 0
BBX 10 9 0 -2
BITMAP
FFC0
8040
8040
8040
FFC0
8040
8040
8040
FFC0
ENDCHAR
STARTCHAR uni22A0
ENCODING 8864
SWIDTH 932 0
DWIDTH 10 0
BBX 10 9 0 -2
BITMAP
FFC0
C0C0
A140
9A40
8440
8A40
B140
C0C0
FFC0
ENDCHAR
STARTCHAR uni22A1
ENCODING 8865
SWIDTH 932 0
DWIDTH 10 0
BBX 10 9 0 -2
BITMAP
FFC0
8040
8040
8040
8C40
8040
8040
8040
FFC0
ENDCHAR
STARTCHAR uni22A2
ENCODING 8866
SWIDTH 720 0
DWIDTH 8 0
BBX 6 7 1 0
BITMAP
80
80
80
FC
80
80
80
ENDCHAR
STARTCHAR uni22A3
ENCODING 8867
SWIDTH 720 0
DWIDTH 8 0
BBX 6 7 1 0
BITMAP
04
04
04
FC
04
04
04
ENDCHAR
STARTCHAR uni22A4
ENCODING 8868
SWIDTH 720 0
DWIDTH 8 0
BBX 6 7 1 1
BITMAP
FC
20
20
20
20
20
20
ENDCHAR
STARTCHAR uni22A5
ENCODING 8869
SWIDTH 720 0
DWIDTH 8 0
BBX 6 8 1 0
BITMAP
20
20
20
20
20
20
20
FC
ENDCHAR
STARTCHAR uni22A6
ENCODING 8870
SWIDTH 509 0
DWIDTH 6 0
BBX 4 7 1 0
BITMAP
80
80
80
F0
80
80
80
ENDCHAR
STARTCHAR uni22A7
ENCODING 8871
SWIDTH 510 0
DWIDTH 6 0
BBX 4 7 1 0
BITMAP
80
80
F0
80
F0
80
80
ENDCHAR
STARTCHAR uni22A8
ENCODING 8872
SWIDTH 720 0
DWIDTH 8 0
BBX 6 7 1 0
BITMAP
80
80
FC
80
FC
80
80
ENDCHAR
STARTCHAR uni22A9
ENCODING 8873
SWIDTH 880 0
DWIDTH 10 0
BBX 8 7 1 0
BITMAP
A0
A0
A0
BF
A0
A0
A0
ENDCHAR
STARTCHAR uni22AA
ENCODING 8874
SWIDTH 880 0
DWIDTH 10 0
BBX 9 7 0 0
BITMAP
9400
9400
9400
9780
9400
9400
9400
ENDCHAR
STARTCHAR uni22AB
ENCODING 8875
SWIDTH 880 0
DWIDTH 10 0
BBX 8 7 1 0
BITMAP
A0
A0
BF
A0
BF
A0
A0
ENDCHAR
STARTCHAR uni22AC
ENCODING 8876
SWIDTH 805 0
DWIDTH 9 0
BBX 8 7 0 0
BITMAP
21
22
24
3F
30
20
E0
ENDCHAR
STARTCHAR uni22AD
ENCODING 8877
SWIDTH 805 0
DWIDTH 9 0
BBX 8 7 0 0
BITMAP
21
22
3F
28
3F
60
A0
ENDCHAR
STARTCHAR uni22AE
ENCODING 8878
SWIDTH 991 0
DWIDTH 11 0
BBX 10 7 0 0
BITMAP
28C0
2900
2A00
2FC0
3800
2800
E800
ENDCHAR
STARTCHAR uni22AF
ENCODING 8879
SWIDTH 991 0
DWIDTH 11 0
BBX 10 7 0 0
BITMAP
2840
2980
2FC0
2C00
3FC0
2800
E800
ENDCHAR
STARTCHAR uni22B0
ENCODING 8880
SWIDTH 720 0
DWIDTH 8 0
BBX 6 7 1 -1
BITMAP
0C
04
0C
F0
0C
04
0C
ENDCHAR
STARTCHAR uni22B1
ENCODING 8881
SWIDTH 720 0
DWIDTH 8 0
BBX 6 7 1 -1
BITMAP
C0
80
C0
3C
C0
80
C0
ENDCHAR
STARTCHAR uni22B2
ENCODING 8882
SWIDTH 720 0
DWIDTH 8 0
BBX 6 6 1 0
BITMAP
04
1C
64
C4
34
0C
ENDCHAR
STARTCHAR uni22B3
ENCODING 8883
SWIDTH 720 0
DWIDTH 8 0
BBX 6 6 1 0
BITMAP
80
E0
98
8C
F0
80
ENDCHAR
STARTCHAR uni22B4
ENCODING 8884
SWIDTH 720 0
DWIDTH 8 0
BBX 6 8 1 -1
BITMAP
04
1C
64
E4
1C
04
00
FC
ENDCHAR
STARTCHAR uni22B5
ENCODING 8885
SWIDTH 720 0
DWIDTH 8 0
BBX 6 8 1 -1
BITMAP
80
E0
98
9C
E0
80
00
FC
ENDCHAR
STARTCHAR uni22B6
ENCODING 8886
SWIDTH 1172 0
DWIDTH 13 0
BBX 11 4 1 1
BITMAP
C060
A0E0
BFE0
C060
ENDCHAR
STARTCHAR uni22B7
ENCODING 8887
SWIDTH 1172 0
DWIDTH 13 0
BBX 11 4 1 1
BITMAP
C060
E0A0
FFA0
C060
ENDCHAR
STARTCHAR uni22B8
ENCODING 8888
SWIDTH 869 0
DWIDTH 10 0
BBX 8 4 1 1
BITMAP
02
05
F9
06
ENDCHAR
STARTCHAR uni22B9
ENCODING 8889
SWIDTH 720 0
DWIDTH 8 0
BBX 6 6 1 0
BITMAP
20
20
CC
00
20
20
ENDCHAR
STARTCHAR uni22BA
ENCODING 8890
SWIDTH 491 0
DWIDTH 5 0
BBX 4 7 1 -2
BITMAP
F0
40
40
40
40
40
40
ENDCHAR
STARTCHAR uni22BB
ENCODING 8891
SWIDTH 635 0
DWIDTH 7 0
BBX 7 8 0 -2
BITMAP
82
44
44
28
28
10
00
7C
ENDCHAR
STARTCHAR uni22BC
ENCODING 8892
SWIDTH 635 0
DWIDTH 7 0
BBX 7 8 0 -1
BITMAP
7C
10
10
28
28
44
44
82
ENDCHAR
STARTCHAR uni22BD
ENCODING 8893
SWIDTH 635 0
DWIDTH 7 0
BBX 7 8 0 -1
BITMAP
7C
82
44
44
28
28
10
10
ENDCHAR
STARTCHAR uni22BE
ENCODING 8894
SWIDTH 720 0
DWIDTH 8 0
BBX 6 7 1 0
BITMAP
80
80
80
E0
90
90
FC
ENDCHAR
STARTCHAR uni22BF
ENCODING 8895
SWIDTH 933 0
DWIDTH 10 0
BBX 10 9 0 -2
BITMAP
0040
00C0
0140
0240
0440
0840
1040
2040
FFC0
ENDCHAR
STARTCHAR uni22C0
ENCODING 8896
SWIDTH 946 0
DWIDTH 10 0
BBX 9 12 1 -3
BITMAP
0800
0800
1800
1400
2400
2400
2200
4200
4100
8100
8100
8080
ENDCHAR
STARTCHAR uni22C1
ENCODING 8897
SWIDTH 946 0
DWIDTH 10 0
BBX 9 12 1 -3
BITMAP
8080
8100
8100
4100
4200
4200
2200
2400
1400
1800
1800
0800
ENDCHAR
STARTCHAR uni22C2
ENCODING 8898
SWIDTH 946 0
DWIDTH 10 0
BBX 8 12 1 -3
BITMAP
3C
42
81
81
81
81
81
81
81
81
81
81
ENDCHAR
STARTCHAR uni22C3
ENCODING 8899
SWIDTH 946 0
DWIDTH 10 0
BBX 8 12 1 -3
BITMAP
81
81
81
81
81
81
81
81
81
81
42
3C
ENDCHAR
STARTCHAR uni22C4
ENCODING 8900
SWIDTH 535 0
DWIDTH 6 0
BBX 6 5 0 0
BITMAP
30
48
CC
30
20
ENDCHAR
STARTCHAR uni22C5
ENCODING 8901
SWIDTH 293 0
DWIDTH 3 0
BBX 1 1 1 2
BITMAP
80
ENDCHAR
STARTCHAR uni22C6
ENCODING 8902
SWIDTH 716 0
DWIDTH 8 0
BBX 7 7 0 0
BITMAP
10
10
18
FE
38
3C
24
ENDCHAR
STARTCHAR uni22C7
ENCODING 8903
SWIDTH 720 0
DWIDTH 8 0
BBX 6 7 1 -1
BITMAP
B4
48
30
FC
48
B4
84
ENDCHAR
STARTCHAR uni22C8
ENCODING 8904
SWIDTH 829 0
DWIDTH 9 0
BBX 8 8 1 -1
BITMAP
81
83
C5
A9
99
E5
83
81
ENDCHAR
STARTCHAR uni22C9
ENCODING 8905
SWIDTH 829 0
DWIDTH 9 0
BBX 7 8 1 -1
BITMAP
82
82
C4
A8
90
AC
C2
82
ENDCHAR
STARTCHAR uni22CA
ENCODING 8906
SWIDTH 829 0
DWIDTH 9 0
BBX 7 8 1 -1
BITMAP
82
82
46
2A
12
2E
C2
82
ENDCHAR
STARTCHAR uni22CB
ENCODING 8907
SWIDTH 829 0
DWIDTH 9 0
BBX 7 8 1 -1
BITMAP
80
80
40
20
10
28
44
82
ENDCHAR
STARTCHAR uni22CC
ENCODING 8908
SWIDTH 829 0
DWIDTH 9 0
BBX 7 8 1 -1
BITMAP
02
02
04
08
10
28
44
82
ENDCHAR
STARTCHAR uni22CD
ENCODING 8909
SWIDTH 720 0
DWIDTH 8 0
BBX 6 5 1 0
BITMAP
98
A4
44
00
FC
ENDCHAR
STARTCHAR uni22CE
ENCODING 8910
SWIDTH 594 0
DWIDTH 7 0
BBX 6 7 0 0
BITMAP
84
48
28
30
30
10
10
ENDCHAR
STARTCHAR uni22CF
ENCODING 8911
SWIDTH 594 0
DWIDTH 7 0
BBX 6 7 0 0
BITMAP
10
10
10
30
28
48
C4
ENDCHAR
STARTCHAR uni22D0
ENCODING 8912
SWIDTH 720 0
DWIDTH 8 0
BBX 6 7 1 0
BITMAP
7C
80
BC
C0
BC
80
7C
ENDCHAR
STARTCHAR uni22D1
ENCODING 8913
SWIDTH 720 0
DWIDTH 8 0
BBX 6 7 1 0
BITMAP
F8
04
F4
0C
F4
04
F8
ENDCHAR
STARTCHAR uni22D2
ENCODING 8914
SWIDTH 635 0
DWIDTH 7 0
BBX 5 7 1 0
BITMAP
70
88
A8
D8
D8
D8
D8
ENDCHAR
STARTCHAR uni22D3
ENCODING 8915
SWIDTH 635 0
DWIDTH 7 0
BBX 5 7 1 0
BITMAP
D8
D8
D8
D8
A8
88
70
ENDCHAR
STARTCHAR uni22D4
ENCODING 8916
SWIDTH 635 0
DWIDTH 7 0
BBX 5 8 1 0
BITMAP
20
20
F8
A8
A8
A8
A8
A8
ENDCHAR
STARTCHAR uni22D5
ENCODING 8917
SWIDTH 720 0
DWIDTH 8 0
BBX 6 10 1 -2
BITMAP
48
48
48
48
FC
48
FC
48
48
48
ENDCHAR
STARTCHAR uni22D6
ENCODING 8918
SWIDTH 720 0
DWIDTH 8 0
BBX 6 6 1 0
BITMAP
04
18
68
C8
30
0C
ENDCHAR
STARTCHAR uni22D7
ENCODING 8919
SWIDTH 720 0
DWIDTH 8 0
BBX 6 6 1 0
BITMAP
80
60
58
4C
30
C0
ENDCHAR
STARTCHAR uni22D8
ENCODING 8920
SWIDTH 1304 0
DWIDTH 14 0
BBX 14 6 0 0
BITMAP
0244
0D98
3660
EDC0
1B30
06CC
ENDCHAR
STARTCHAR uni22D9
ENCODING 8921
SWIDTH 1304 0
DWIDTH 14 0
BBX 14 6 0 0
BITMAP
C980
3660
0D98
0EDC
3360
CD80
ENDCHAR
STARTCHAR uni22DA
ENCODING 8922
SWIDTH 720 0
DWIDTH 8 0
BBX 6 13 1 -4
BITMAP
04
38
C0
38
04
00
FC
00
80
70
0C
70
80
ENDCHAR
STARTCHAR uni22DB
ENCODING 8923
SWIDTH 720 0
DWIDTH 8 0
BBX 6 13 1 -4
BITMAP
80
70
0C
70
80
00
FC
00
04
38
C0
30
0C
ENDCHAR
STARTCHAR uni22DC
ENCODING 8924
SWIDTH 720 0
DWIDTH 8 0
BBX 6 8 1 -1
BITMAP
FC
00
04
18
E0
60
18
04
ENDCHAR
STARTCHAR uni22DD
ENCODING 8925
SWIDTH 720 0
DWIDTH 8 0
BBX 6 8 1 -1
BITMAP
FC
00
80
60
1C
18
60
80
ENDCHAR
STARTCHAR uni22DE
ENCODING 8926
SWIDTH 720 0
DWIDTH 8 0
BBX 6 9 1 -1
BITMAP
04
04
18
E4
18
E0
30
0C
04
ENDCHAR
STARTCHAR uni22DF
ENCODING 8927
SWIDTH 720 0
DWIDTH 8 0
BBX 6 9 1 -1
BITMAP
80
80
60
9C
60
1C
70
80
80
ENDCHAR
STARTCHAR uni22E0
ENCODING 8928
SWIDTH 720 0
DWIDTH 8 0
BBX 6 11 1 -3
BITMAP
04
0C
0C
18
F0
38
94
74
2C
24
40
ENDCHAR
STARTCHAR uni22E1
ENCODING 8929
SWIDTH 720 0
DWIDTH 8 0
BBX 6 11 1 -3
BITMAP
10
90
90
60
3C
60
CC
F0
C0
80
80
ENDCHAR
STARTCHAR uni22E2
ENCODING 8930
SWIDTH 720 0
DWIDTH 8 0
BBX 6 11 1 -2
BITMAP
08
08
FC
90
90
90
A0
FC
40
FC
40
ENDCHAR
STARTCHAR uni22E3
ENCODING 8931
SWIDTH 720 0
DWIDTH 8 0
BBX 6 11 1 -2
BITMAP
04
08
FC
0C
14
14
24
FC
20
FC
40
ENDCHAR
STARTCHAR uni22E4
ENCODING 8932
SWIDTH 720 0
DWIDTH 8 0
BBX 6 10 1 -2
BITMAP
FC
80
80
80
80
80
FC
10
FC
20
ENDCHAR
STARTCHAR uni22E5
ENCODING 8933
SWIDTH 720 0
DWIDTH 8 0
BBX 6 10 1 -2
BITMAP
FC
04
04
04
04
04
FC
10
FC
20
ENDCHAR
STARTCHAR uni22E6
ENCODING 8934
SWIDTH 720 0
DWIDTH 8 0
BBX 6 10 1 -3
BITMAP
0C
30
C0
60
18
04
14
E4
B8
20
ENDCHAR
STARTCHAR uni22E7
ENCODING 8935
SWIDTH 720 0
DWIDTH 8 0
BBX 6 10 1 -3
BITMAP
C0
30
0C
10
60
80
14
F4
B8
20
ENDCHAR
STARTCHAR uni22E8
ENCODING 8936
SWIDTH 720 0
DWIDTH 8 0
BBX 6 11 1 -3
BITMAP
04
04
18
E0
38
04
04
14
E4
B8
20
ENDCHAR
STARTCHAR uni22E9
ENCODING 8937
SWIDTH 720 0
DWIDTH 8 0
BBX 6 11 1 -3
BITMAP
80
80
60
1C
60
80
80
14
F4
B8
20
ENDCHAR
STARTCHAR uni22EA
ENCODING 8938
SWIDTH 650 0
DWIDTH 7 0
BBX 7 9 0 -2
BITMAP
04
04
0E
32
D2
32
2E
22
20
ENDCHAR
STARTCHAR uni22EB
ENCODING 8939
SWIDTH 650 0
DWIDTH 7 0
BBX 6 9 1 -2
BITMAP
08
10
D0
B0
AC
B0
C0
80
80
ENDCHAR
STARTCHAR uni22EC
ENCODING 8940
SWIDTH 650 0
DWIDTH 7 0
BBX 7 11 0 -2
BITMAP
04
04
0E
1A
6A
F2
1A
16
20
FE
60
ENDCHAR
STARTCHAR uni22ED
ENCODING 8941
SWIDTH 650 0
DWIDTH 7 0
BBX 6 11 1 -2
BITMAP
10
10
90
E0
98
BC
E0
C0
40
FC
40
ENDCHAR
STARTCHAR uni22EE
ENCODING 8942
SWIDTH 519 0
DWIDTH 6 0
BBX 2 8 2 -1
BITMAP
C0
00
00
00
C0
00
00
C0
ENDCHAR
STARTCHAR uni22EF
ENCODING 8943
SWIDTH 953 0
DWIDTH 10 0
BBX 8 1 1 2
BITMAP
89
ENDCHAR
STARTCHAR uni22F0
ENCODING 8944
SWIDTH 962 0
DWIDTH 11 0
BBX 6 6 2 0
BITMAP
04
00
00
10
00
C0
ENDCHAR
STARTCHAR uni22F1
ENCODING 8945
SWIDTH 962 0
DWIDTH 11 0
BBX 6 6 2 0
BITMAP
C0
00
00
10
00
04
ENDCHAR
STARTCHAR uni22F2
ENCODING 8946
SWIDTH 838 0
DWIDTH 9 0
BBX 8 7 1 0
BITMAP
1F
20
40
FF
40
20
1F
ENDCHAR
STARTCHAR uni22F3
ENCODING 8947
SWIDTH 720 0
DWIDTH 8 0
BBX 6 7 1 0
BITMAP
7C
80
84
FC
84
80
7C
ENDCHAR
STARTCHAR uni22F4
ENCODING 8948
SWIDTH 497 0
DWIDTH 5 0
BBX 4 5 1 0
BITMAP
70
80
F0
90
70
ENDCHAR
STARTCHAR uni22F5
ENCODING 8949
SWIDTH 720 0
DWIDTH 8 0
BBX 6 8 1 0
BITMAP
30
7C
80
80
FC
80
80
7C
ENDCHAR
STARTCHAR uni22F6
ENCODING 8950
SWIDTH 720 0
DWIDTH 8 0
BBX 6 8 1 0
BITMAP
FC
7C
80
80
FC
80
80
7C
ENDCHAR
STARTCHAR uni22F7
ENCODING 8951
SWIDTH 497 0
DWIDTH 5 0
BBX 4 7 1 0
BITMAP
F0
00
70
80
F0
80
70
ENDCHAR
STARTCHAR uni22F8
ENCODING 8952
SWIDTH 720 0
DWIDTH 8 0
BBX 6 8 1 -2
BITMAP
7C
80
80
FC
80
7C
00
FC
ENDCHAR
STARTCHAR uni22F9
ENCODING 8953
SWIDTH 720 0
DWIDTH 8 0
BBX 6 7 1 0
BITMAP
7C
C0
80
FC
FC
80
7C
ENDCHAR
STARTCHAR uni22FA
ENCODING 8954
SWIDTH 838 0
DWIDTH 9 0
BBX 8 7 1 0
BITMAP
F0
08
04
FF
04
08
F0
ENDCHAR
STARTCHAR uni22FB
ENCODING 8955
SWIDTH 720 0
DWIDTH 8 0
BBX 6 7 1 0
BITMAP
F0
0C
84
FC
84
0C
F0
ENDCHAR
STARTCHAR uni22FC
ENCODING 8956
SWIDTH 497 0
DWIDTH 5 0
BBX 4 5 1 0
BITMAP
E0
10
F0
90
E0
ENDCHAR
STARTCHAR uni22FD
ENCODING 8957
SWIDTH 720 0
DWIDTH 8 0
BBX 6 8 1 0
BITMAP
FC
F8
0C
04
FC
04
0C
F0
ENDCHAR
STARTCHAR uni22FE
ENCODING 8958
SWIDTH 497 0
DWIDTH 5 0
BBX 4 7 1 0
BITMAP
F0
00
E0
10
F0
10
E0
ENDCHAR
STARTCHAR uni22FF
ENCODING 8959
SWIDTH 932 0
DWIDTH 10 0
BBX 10 10 0 -2
BITMAP
FFC0
8000
8000
8000
8000
FFC0
8000
8000
8000
FFC0
ENDCHAR
STARTCHAR uni2300
ENCODING 8960
SWIDTH 620 0
DWIDTH 7 0
BBX 7 6 0 0
BITMAP
3E
4C
5C
74
64
F8
ENDCHAR
STARTCHAR uni2301
ENCODING 8961
SWIDTH 598 0
DWIDTH 7 0
BBX 6 3 0 1
BITMAP
D0
3C
14
ENDCHAR
STARTCHAR uni2302
ENCODING 8962
SWIDTH 948 0
DWIDTH 10 0
BBX 9 9 1 0
BITMAP
0800
1400
2200
C100
8080
8080
8080
8080
FF80
ENDCHAR
STARTCHAR uni2303
ENCODING 8963
SWIDTH 630 0
DWIDTH 7 0
BBX 6 4 0 4
BITMAP
10
10
28
C4
ENDCHAR
STARTCHAR uni2304
ENCODING 8964
SWIDTH 630 0
DWIDTH 7 0
BBX 6 4 0 -1
BITMAP
C4
28
10
10
ENDCHAR
STARTCHAR uni2305
ENCODING 8965
SWIDTH 635 0
DWIDTH 7 0
BBX 5 6 1 1
BITMAP
F8
20
60
50
88
88
ENDCHAR
STARTCHAR uni2306
ENCODING 8966
SWIDTH 635 0
DWIDTH 7 0
BBX 5 8 1 1
BITMAP
F8
00
F8
20
60
50
88
88
ENDCHAR
STARTCHAR uni2307
ENCODING 8967
SWIDTH 470 0
DWIDTH 5 0
BBX 3 10 1 -2
BITMAP
80
60
20
C0
C0
20
60
80
C0
20
ENDCHAR
STARTCHAR uni2308
ENCODING 8968
SWIDTH 349 0
DWIDTH 4 0
BBX 3 11 1 -3
BITMAP
E0
80
80
80
80
80
80
80
80
80
80
ENDCHAR
STARTCHAR uni2309
ENCODING 8969
SWIDTH 349 0
DWIDTH 4 0
BBX 3 11 0 -3
BITMAP
E0
20
20
20
20
20
20
20
20
20
20
ENDCHAR
STARTCHAR uni230A
ENCODING 8970
SWIDTH 349 0
DWIDTH 4 0
BBX 3 10 1 -2
BITMAP
80
80
80
80
80
80
80
80
80
E0
ENDCHAR
STARTCHAR uni230B
ENCODING 8971
SWIDTH 349 0
DWIDTH 4 0
BBX 3 10 0 -2
BITMAP
20
20
20
20
20
20
20
20
20
E0
ENDCHAR
STARTCHAR uni230C
ENCODING 8972
SWIDTH 474 0
DWIDTH 5 0
BBX 4 4 1 -2
BITMAP
F0
80
80
80
ENDCHAR
STARTCHAR uni230D
ENCODING 8973
SWIDTH 474 0
DWIDTH 5 0
BBX 4 4 1 -2
BITMAP
E0
10
10
10
ENDCHAR
STARTCHAR uni230E
ENCODING 8974
SWIDTH 474 0
DWIDTH 5 0
BBX 4 5 1 5
BITMAP
80
80
80
80
F0
ENDCHAR
STARTCHAR uni230F
ENCODING 8975
SWIDTH 474 0
DWIDTH 5 0
BBX 4 5 1 5
BITMAP
10
10
10
10
E0
ENDCHAR
STARTCHAR uni2310
ENCODING 8976
SWIDTH 614 0
DWIDTH 7 0
BBX 5 3 1 2
BITMAP
F8
80
80
ENDCHAR
STARTCHAR uni2311
ENCODING 8977
SWIDTH 535 0
DWIDTH 6 0
BBX 4 4 1 1
BITMAP
F0
90
90
F0
ENDCHAR
STARTCHAR uni2312
ENCODING 8978
SWIDTH 780 0
DWIDTH 9 0
BBX 7 4 1 0
BITMAP
38
C4
82
82
ENDCHAR
STARTCHAR uni2313
ENCODING 8979
SWIDTH 780 0
DWIDTH 9 0
BBX 7 4 1 0
BITMAP
38
C4
82
FE
ENDCHAR
STARTCHAR uni2314
ENCODING 8980
SWIDTH 604 0
DWIDTH 7 0
BBX 6 5 0 2
BITMAP
78
84
44
28
10
ENDCHAR
STARTCHAR uni2315
ENCODING 8981
SWIDTH 867 0
DWIDTH 10 0
BBX 9 9 0 -2
BITMAP
0E00
3100
2080
4080
4080
2080
3100
4E00
8000
ENDCHAR
STARTCHAR uni2316
ENCODING 8982
SWIDTH 1126 0
DWIDTH 12 0
BBX 11 11 1 -3
BITMAP
0400
0400
1E00
2500
4480
FFE0
4480
2500
1E00
0400
0400
ENDCHAR
STARTCHAR uni2317
ENCODING 8983
SWIDTH 1126 0
DWIDTH 12 0
BBX 11 12 1 -3
BITMAP
2100
2100
2100
FFE0
2100
2100
2100
2100
FFE0
2100
2100
2100
ENDCHAR
STARTCHAR uni2318
ENCODING 8984
SWIDTH 948 0
DWIDTH 10 0
BBX 9 9 1 -2
BITMAP
E300
A480
9480
FF00
1400
FF00
9480
A480
E300
ENDCHAR
STARTCHAR uni2319
ENCODING 8985
SWIDTH 614 0
DWIDTH 7 0
BBX 5 3 1 1
BITMAP
80
80
F8
ENDCHAR
STARTCHAR uni231A
ENCODING 8986
SWIDTH 720 0
DWIDTH 8 0
BBX 6 9 1 -1
BITMAP
30
48
78
94
A4
84
78
48
30
ENDCHAR
STARTCHAR uni231B
ENCODING 8987
SWIDTH 633 0
DWIDTH 7 0
BBX 5 7 1 0
BITMAP
F8
88
70
70
70
F8
F8
ENDCHAR
STARTCHAR uni231C
ENCODING 8988
SWIDTH 474 0
DWIDTH 5 0
BBX 4 4 1 4
BITMAP
F0
80
80
80
ENDCHAR
STARTCHAR uni231D
ENCODING 8989
SWIDTH 474 0
DWIDTH 5 0
BBX 4 4 1 4
BITMAP
F0
10
10
10
ENDCHAR
STARTCHAR uni231E
ENCODING 8990
SWIDTH 474 0
DWIDTH 5 0
BBX 4 5 1 -3
BITMAP
80
80
80
80
F0
ENDCHAR
STARTCHAR uni231F
ENCODING 8991
SWIDTH 474 0
DWIDTH 5 0
BBX 4 5 1 -3
BITMAP
10
10
10
10
F0
ENDCHAR
STARTCHAR uni2320
ENCODING 8992
SWIDTH 767 0
DWIDTH 8 0
BBX 4 18 3 0
BITMAP
30
50
40
40
C0
C0
C0
C0
C0
C0
C0
C0
C0
C0
C0
C0
C0
C0
ENDCHAR
STARTCHAR uni2321
ENCODING 8993
SWIDTH 767 0
DWIDTH 8 0
BBX 5 21 0 0
BITMAP
18
18
18
18
18
18
18
18
18
10
10
10
10
10
10
10
10
10
90
E0
60
ENDCHAR
STARTCHAR uni2322
ENCODING 8994
SWIDTH 1043 0
DWIDTH 11 0
BBX 10 2 1 2
BITMAP
3E00
C1C0
ENDCHAR
STARTCHAR uni2323
ENCODING 8995
SWIDTH 1043 0
DWIDTH 11 0
BBX 10 2 1 2
BITMAP
C1C0
3E00
ENDCHAR
STARTCHAR uni2324
ENCODING 8996
SWIDTH 630 0
DWIDTH 7 0
BBX 6 4 0 3
BITMAP
D4
28
48
C4
ENDCHAR
STARTCHAR uni2325
ENCODING 8997
SWIDTH 695 0
DWIDTH 8 0
BBX 7 8 0 0
BITMAP
E6
20
10
10
08
08
08
06
ENDCHAR
STARTCHAR uni2326
ENCODING 8998
SWIDTH 987 0
DWIDTH 11 0
BBX 10 8 1 0
BITMAP
FE00
8100
A500
9880
98C0
A480
8100
FE00
ENDCHAR
STARTCHAR uni2327
ENCODING 8999
SWIDTH 934 0
DWIDTH 10 0
BBX 8 10 1 -1
BITMAP
42
FF
A5
99
89
89
99
A5
FF
42
ENDCHAR
STARTCHAR uni2328
ENCODING 9000
SWIDTH 1235 0
DWIDTH 14 0
BBX 12 7 1 0
BITMAP
FFF0
EAF0
FFF0
FFB0
FFB0
EF70
FFF0
ENDCHAR
STARTCHAR uni2329
ENCODING 9001
SWIDTH 409 0
DWIDTH 5 0
BBX 3 11 1 -2
BITMAP
20
20
40
40
80
80
80
80
40
40
20
ENDCHAR
STARTCHAR uni232A
ENCODING 9002
SWIDTH 409 0
DWIDTH 5 0
BBX 3 11 1 -2
BITMAP
80
80
80
40
40
20
40
40
40
80
80
ENDCHAR
STARTCHAR uni232B
ENCODING 9003
SWIDTH 987 0
DWIDTH 11 0
BBX 10 8 0 0
BITMAP
1FC0
2040
4940
8640
8640
4940
2040
1FC0
ENDCHAR
STARTCHAR uni232C
ENCODING 9004
SWIDTH 948 0
DWIDTH 10 0
BBX 9 10 1 -2
BITMAP
1800
2600
D900
C680
C080
C080
C680
D900
2600
1800
ENDCHAR
STARTCHAR uni232D
ENCODING 9005
SWIDTH 1009 0
DWIDTH 11 0
BBX 9 7 1 -1
BITMAP
1080
1C80
2300
2200
6200
9C00
8400
ENDCHAR
STARTCHAR uni232E
ENCODING 9006
SWIDTH 639 0
DWIDTH 7 0
BBX 6 7 0 -2
BITMAP
18
24
4C
54
A4
D8
E0
ENDCHAR
STARTCHAR uni232F
ENCODING 9007
SWIDTH 592 0
DWIDTH 7 0
BBX 6 4 0 1
BITMAP
38
00
FC
38
ENDCHAR
STARTCHAR uni2330
ENCODING 9008
SWIDTH 685 0
DWIDTH 8 0
BBX 8 7 0 0
BITMAP
36
63
24
44
44
48
F8
ENDCHAR
STARTCHAR uni2331
ENCODING 9009
SWIDTH 734 0
DWIDTH 8 0
BBX 8 7 0 0
BITMAP
20
70
AA
BF
AA
70
20
ENDCHAR
STARTCHAR uni2332
ENCODING 9010
SWIDTH 910 0
DWIDTH 10 0
BBX 8 7 1 -1
BITMAP
80
F0
8C
FF
8C
F0
80
ENDCHAR
STARTCHAR uni2333
ENCODING 9011
SWIDTH 810 0
DWIDTH 9 0
BBX 8 4 1 1
BITMAP
80
E0
98
FF
ENDCHAR
STARTCHAR uni2334
ENCODING 9012
SWIDTH 657 0
DWIDTH 7 0
BBX 5 4 1 0
BITMAP
88
88
88
F8
ENDCHAR
STARTCHAR uni2335
ENCODING 9013
SWIDTH 577 0
DWIDTH 6 0
BBX 5 4 1 1
BITMAP
88
90
60
20
ENDCHAR
STARTCHAR uni2336
ENCODING 9014
SWIDTH 678 0
DWIDTH 7 0
BBX 7 11 0 -2
BITMAP
FE
10
10
10
10
10
10
10
10
10
FE
ENDCHAR
STARTCHAR uni2337
ENCODING 9015
SWIDTH 488 0
DWIDTH 5 0
BBX 3 11 1 -2
BITMAP
E0
A0
A0
A0
A0
A0
A0
A0
A0
A0
E0
ENDCHAR
STARTCHAR uni2338
ENCODING 9016
SWIDTH 678 0
DWIDTH 7 0
BBX 6 11 1 -2
BITMAP
FC
84
84
84
84
FC
84
84
FC
84
FC
ENDCHAR
STARTCHAR uni2339
ENCODING 9017
SWIDTH 678 0
DWIDTH 7 0
BBX 6 11 1 -2
BITMAP
FC
84
84
A4
84
FC
84
A4
84
84
FC
ENDCHAR
STARTCHAR uni233A
ENCODING 9018
SWIDTH 678 0
DWIDTH 7 0
BBX 6 11 1 -2
BITMAP
FC
84
84
A4
D4
8C
D4
A4
84
84
FC
ENDCHAR
STARTCHAR uni233B
ENCODING 9019
SWIDTH 678 0
DWIDTH 7 0
BBX 6 11 1 -2
BITMAP
FC
84
84
84
B4
CC
B4
84
84
84
FC
ENDCHAR
STARTCHAR uni233C
ENCODING 9020
SWIDTH 678 0
DWIDTH 7 0
BBX 6 11 1 -2
BITMAP
FC
84
84
F4
8C
84
84
8C
F4
84
FC
ENDCHAR
STARTCHAR uni233D
ENCODING 9021
SWIDTH 832 0
DWIDTH 9 0
BBX 8 10 1 -2
BITMAP
10
3C
D2
92
91
91
92
92
7C
10
ENDCHAR
STARTCHAR uni233E
ENCODING 9022
SWIDTH 832 0
DWIDTH 9 0
BBX 8 8 1 -1
BITMAP
3C
C2
BA
C5
C5
BA
C2
3C
ENDCHAR
STARTCHAR uni233F
ENCODING 9023
SWIDTH 638 0
DWIDTH 7 0
BBX 5 11 1 -3
BITMAP
08
08
10
10
20
F8
20
40
40
80
80
ENDCHAR
STARTCHAR uni2340
ENCODING 9024
SWIDTH 638 0
DWIDTH 7 0
BBX 5 11 1 -3
BITMAP
80
80
40
40
20
F8
20
10
10
08
08
ENDCHAR
STARTCHAR uni2341
ENCODING 9025
SWIDTH 678 0
DWIDTH 7 0
BBX 6 11 1 -2
BITMAP
FC
8C
8C
94
94
A4
A4
C4
C4
84
FC
ENDCHAR
STARTCHAR uni2342
ENCODING 9026
SWIDTH 678 0
DWIDTH 7 0
BBX 6 11 1 -2
BITMAP
FC
84
C4
C4
A4
A4
94
94
8C
8C
FC
ENDCHAR
STARTCHAR uni2343
ENCODING 9027
SWIDTH 678 0
DWIDTH 7 0
BBX 6 11 1 -2
BITMAP
FC
84
84
8C
B4
C4
A4
9C
84
84
FC
ENDCHAR
STARTCHAR uni2344
ENCODING 9028
SWIDTH 678 0
DWIDTH 7 0
BBX 6 11 1 -2
BITMAP
FC
84
84
C4
A4
9C
B4
C4
84
84
FC
ENDCHAR
STARTCHAR uni2345
ENCODING 9029
SWIDTH 783 0
DWIDTH 9 0
BBX 8 11 0 -3
BITMAP
08
08
08
08
48
FF
48
08
08
08
08
ENDCHAR
STARTCHAR uni2346
ENCODING 9030
SWIDTH 783 0
DWIDTH 9 0
BBX 8 11 0 -3
BITMAP
10
10
10
10
12
FF
12
10
10
10
10
ENDCHAR
STARTCHAR uni2347
ENCODING 9031
SWIDTH 678 0
DWIDTH 7 0
BBX 6 11 1 -2
BITMAP
FC
84
84
84
A4
FC
A4
84
84
84
FC
ENDCHAR
STARTCHAR uni2348
ENCODING 9032
SWIDTH 678 0
DWIDTH 7 0
BBX 6 11 1 -2
BITMAP
FC
84
84
84
94
FC
94
84
84
84
FC
ENDCHAR
STARTCHAR uni2349
ENCODING 9033
SWIDTH 832 0
DWIDTH 9 0
BBX 8 10 1 -2
BITMAP
40
7C
E2
A2
91
91
8A
CA
3C
04
ENDCHAR
STARTCHAR uni234A
ENCODING 9034
SWIDTH 678 0
DWIDTH 7 0
BBX 7 10 0 -2
BITMAP
10
10
10
10
10
10
10
10
FE
FE
ENDCHAR
STARTCHAR uni234B
ENCODING 9035
SWIDTH 746 0
DWIDTH 8 0
BBX 8 10 0 -2
BITMAP
08
08
18
14
2C
2A
4A
4A
FF
08
ENDCHAR
STARTCHAR uni234C
ENCODING 9036
SWIDTH 678 0
DWIDTH 7 0
BBX 6 11 1 -2
BITMAP
FC
84
84
8C
D4
D4
A4
A4
84
84
FC
ENDCHAR
STARTCHAR uni234D
ENCODING 9037
SWIDTH 678 0
DWIDTH 7 0
BBX 6 11 1 -2
BITMAP
FC
84
84
A4
A4
D4
D4
FC
84
84
FC
ENDCHAR
STARTCHAR uni234E
ENCODING 9038
SWIDTH 678 0
DWIDTH 7 0
BBX 7 10 0 -2
BITMAP
10
10
18
34
54
34
18
10
10
FE
ENDCHAR
STARTCHAR uni234F
ENCODING 9039
SWIDTH 712 0
DWIDTH 8 0
BBX 7 11 0 -3
BITMAP
10
18
10
10
10
FE
10
10
10
10
10
ENDCHAR
STARTCHAR uni2350
ENCODING 9040
SWIDTH 678 0
DWIDTH 7 0
BBX 6 11 1 -2
BITMAP
FC
A4
F4
A4
A4
A4
A4
A4
A4
A4
FC
ENDCHAR
STARTCHAR uni2351
ENCODING 9041
SWIDTH 678 0
DWIDTH 7 0
BBX 7 10 0 -2
BITMAP
FE
FE
10
10
10
10
10
10
10
10
ENDCHAR
STARTCHAR uni2352
ENCODING 9042
SWIDTH 746 0
DWIDTH 8 0
BBX 8 10 0 -2
BITMAP
08
FF
4A
4A
2A
2C
2C
18
08
08
ENDCHAR
STARTCHAR uni2353
ENCODING 9043
SWIDTH 678 0
DWIDTH 7 0
BBX 6 11 1 -2
BITMAP
FC
A4
A4
B4
D4
CC
8C
8C
84
84
FC
ENDCHAR
STARTCHAR uni2354
ENCODING 9044
SWIDTH 678 0
DWIDTH 7 0
BBX 6 11 1 -2
BITMAP
FC
84
84
84
FC
D4
B4
A4
84
84
FC
ENDCHAR
STARTCHAR uni2355
ENCODING 9045
SWIDTH 678 0
DWIDTH 7 0
BBX 7 10 0 -2
BITMAP
FE
10
10
18
34
54
34
18
10
10
ENDCHAR
STARTCHAR uni2356
ENCODING 9046
SWIDTH 712 0
DWIDTH 8 0
BBX 7 11 0 -3
BITMAP
10
10
10
10
10
FE
10
10
10
18
10
ENDCHAR
STARTCHAR uni2357
ENCODING 9047
SWIDTH 678 0
DWIDTH 7 0
BBX 6 11 1 -2
BITMAP
FC
A4
A4
A4
A4
A4
A4
A4
F4
A4
FC
ENDCHAR
STARTCHAR uni2358
ENCODING 9048
SWIDTH 678 0
DWIDTH 7 0
BBX 6 7 1 -1
BITMAP
20
20
00
00
00
00
FC
ENDCHAR
STARTCHAR uni2359
ENCODING 9049
SWIDTH 688 0
DWIDTH 8 0
BBX 7 9 0 -1
BITMAP
10
18
28
24
24
44
42
FE
FE
ENDCHAR
STARTCHAR uni235A
ENCODING 9050
SWIDTH 678 0
DWIDTH 7 0
BBX 6 7 1 -1
BITMAP
20
50
88
50
20
00
FC
ENDCHAR
STARTCHAR uni235B
ENCODING 9051
SWIDTH 678 0
DWIDTH 7 0
BBX 6 6 1 -1
BITMAP
30
48
30
00
00
FC
ENDCHAR
STARTCHAR uni235C
ENCODING 9052
SWIDTH 678 0
DWIDTH 7 0
BBX 6 7 1 -1
BITMAP
70
88
84
84
88
70
FC
ENDCHAR
STARTCHAR uni235D
ENCODING 9053
SWIDTH 726 0
DWIDTH 8 0
BBX 6 8 1 0
BITMAP
78
B4
CC
CC
B4
84
84
84
ENDCHAR
STARTCHAR uni235E
ENCODING 9054
SWIDTH 678 0
DWIDTH 7 0
BBX 6 11 1 -2
BITMAP
FC
84
A4
A4
84
84
84
84
84
84
FC
ENDCHAR
STARTCHAR uni235F
ENCODING 9055
SWIDTH 862 0
DWIDTH 9 0
BBX 8 9 1 -1
BITMAP
3C
42
91
D5
B9
99
A9
42
3C
ENDCHAR
STARTCHAR uni2360
ENCODING 9056
SWIDTH 678 0
DWIDTH 7 0
BBX 6 11 1 -2
BITMAP
FC
84
84
84
84
A4
84
A4
84
84
FC
ENDCHAR
STARTCHAR uni2361
ENCODING 9057
SWIDTH 678 0
DWIDTH 7 0
BBX 7 10 0 -2
BITMAP
2C
00
FE
10
10
10
10
10
10
10
ENDCHAR
STARTCHAR uni2362
ENCODING 9058
SWIDTH 686 0
DWIDTH 8 0
BBX 7 9 0 -1
BITMAP
2C
00
FE
42
44
24
28
28
10
ENDCHAR
STARTCHAR uni2363
ENCODING 9059
SWIDTH 540 0
DWIDTH 6 0
BBX 5 7 0 -1
BITMAP
48
00
20
B0
78
30
48
ENDCHAR
STARTCHAR uni2364
ENCODING 9060
SWIDTH 540 0
DWIDTH 6 0
BBX 4 7 1 0
BITMAP
90
00
60
90
90
90
60
ENDCHAR
STARTCHAR uni2365
ENCODING 9061
SWIDTH 832 0
DWIDTH 9 0
BBX 8 10 1 -1
BITMAP
28
00
3C
C2
82
81
81
82
C2
3C
ENDCHAR
STARTCHAR uni2366
ENCODING 9062
SWIDTH 746 0
DWIDTH 8 0
BBX 7 10 1 -2
BITMAP
10
92
92
92
92
92
92
94
78
10
ENDCHAR
STARTCHAR uni2367
ENCODING 9063
SWIDTH 844 0
DWIDTH 9 0
BBX 8 10 1 -2
BITMAP
10
3F
D0
90
90
90
90
D0
3F
10
ENDCHAR
STARTCHAR uni2368
ENCODING 9064
SWIDTH 554 0
DWIDTH 6 0
BBX 6 4 0 2
BITMAP
48
00
64
98
ENDCHAR
STARTCHAR uni2369
ENCODING 9065
SWIDTH 572 0
DWIDTH 6 0
BBX 5 8 1 0
BITMAP
50
00
80
60
18
10
60
80
ENDCHAR
STARTCHAR uni236A
ENCODING 9066
SWIDTH 347 0
DWIDTH 4 0
BBX 3 5 0 0
BITMAP
E0
00
60
20
40
ENDCHAR
STARTCHAR uni236B
ENCODING 9067
SWIDTH 686 0
DWIDTH 8 0
BBX 7 8 0 0
BITMAP
FE
42
44
66
BE
28
18
10
ENDCHAR
STARTCHAR uni236C
ENCODING 9068
SWIDTH 651 0
DWIDTH 7 0
BBX 7 8 0 0
BITMAP
38
44
44
76
CC
44
24
18
ENDCHAR
STARTCHAR uni236D
ENCODING 9069
SWIDTH 844 0
DWIDTH 9 0
BBX 8 10 1 -2
BITMAP
10
10
10
10
8E
71
10
10
10
10
ENDCHAR
STARTCHAR uni236E
ENCODING 9070
SWIDTH 678 0
DWIDTH 7 0
BBX 6 9 1 -1
BITMAP
20
00
00
00
20
10
20
00
FC
ENDCHAR
STARTCHAR uni236F
ENCODING 9071
SWIDTH 678 0
DWIDTH 7 0
BBX 6 11 1 -2
BITMAP
FC
84
84
94
FC
A4
FC
C4
84
84
FC
ENDCHAR
STARTCHAR uni2370
ENCODING 9072
SWIDTH 678 0
DWIDTH 7 0
BBX 6 11 1 -2
BITMAP
FC
84
B4
D4
94
94
A4
84
A4
84
FC
ENDCHAR
STARTCHAR uni2371
ENCODING 9073
SWIDTH 766 0
DWIDTH 8 0
BBX 8 8 0 0
BITMAP
C1
42
A6
7D
14
18
08
08
ENDCHAR
STARTCHAR uni2372
ENCODING 9074
SWIDTH 766 0
DWIDTH 8 0
BBX 8 8 0 0
BITMAP
08
08
18
14
7D
A6
42
C1
ENDCHAR
STARTCHAR uni2373
ENCODING 9075
SWIDTH 288 0
DWIDTH 3 0
BBX 3 6 0 0
BITMAP
C0
40
40
40
40
60
ENDCHAR
STARTCHAR uni2374
ENCODING 9076
SWIDTH 528 0
DWIDTH 6 0
BBX 4 8 1 -2
BITMAP
60
90
90
90
90
E0
80
80
ENDCHAR
STARTCHAR uni2375
ENCODING 9077
SWIDTH 700 0
DWIDTH 8 0
BBX 7 6 0 0
BITMAP
28
46
52
92
52
7C
ENDCHAR
STARTCHAR uni2376
ENCODING 9078
SWIDTH 561 0
DWIDTH 6 0
BBX 6 7 0 -2
BITMAP
74
48
88
88
98
6C
FC
ENDCHAR
STARTCHAR uni2377
ENCODING 9079
SWIDTH 440 0
DWIDTH 5 0
BBX 5 7 0 -2
BITMAP
30
40
70
80
48
30
78
ENDCHAR
STARTCHAR uni2378
ENCODING 9080
SWIDTH 288 0
DWIDTH 3 0
BBX 3 7 0 -2
BITMAP
C0
40
40
40
40
60
E0
ENDCHAR
STARTCHAR uni2379
ENCODING 9081
SWIDTH 660 0
DWIDTH 7 0
BBX 7 7 0 -2
BITMAP
20
44
92
92
92
6C
7E
ENDCHAR
STARTCHAR uni237A
ENCODING 9082
SWIDTH 589 0
DWIDTH 6 0
BBX 6 6 0 0
BITMAP
34
4C
88
88
58
64
ENDCHAR
STARTCHAR uni237B
ENCODING 9083
SWIDTH 601 0
DWIDTH 7 0
BBX 6 7 0 0
BITMAP
04
08
3C
88
50
50
20
ENDCHAR
STARTCHAR uni237C
ENCODING 9084
SWIDTH 892 0
DWIDTH 10 0
BBX 8 9 1 -2
BITMAP
28
30
40
A0
60
30
BF
C0
E0
ENDCHAR
STARTCHAR uni237D
ENCODING 9085
SWIDTH 747 0
DWIDTH 8 0
BBX 8 3 0 0
BITMAP
E3
22
3C
ENDCHAR
STARTCHAR uni237E
ENCODING 9086
SWIDTH 937 0
DWIDTH 10 0
BBX 9 8 1 0
BITMAP
3C00
4200
4100
8100
8100
FF00
2400
E780
ENDCHAR
STARTCHAR uni237F
ENCODING 9087
SWIDTH 337 0
DWIDTH 4 0
BBX 2 7 1 0
BITMAP
80
80
80
C0
C0
80
80
ENDCHAR
STARTCHAR uni2380
ENCODING 9088
SWIDTH 856 0
DWIDTH 9 0
BBX 9 8 0 -1
BITMAP
0800
1400
0C00
1400
DF80
2200
1400
0800
ENDCHAR
STARTCHAR uni2381
ENCODING 9089
SWIDTH 960 0
DWIDTH 11 0
BBX 10 6 0 1
BITMAP
6000
5000
7000
9540
7800
FFC0
ENDCHAR
STARTCHAR uni2382
ENCODING 9090
SWIDTH 838 0
DWIDTH 9 0
BBX 9 6 0 1
BITMAP
6300
5500
7300
9500
7E80
F780
ENDCHAR
STARTCHAR uni2383
ENCODING 9091
SWIDTH 1115 0
DWIDTH 12 0
BBX 11 8 1 0
BITMAP
C040
2D80
1200
CEE0
1200
2F00
4080
8040
ENDCHAR
STARTCHAR uni2384
ENCODING 9092
SWIDTH 1022 0
DWIDTH 11 0
BBX 10 8 1 0
BITMAP
FF00
9280
9240
A240
A240
9240
9280
FF00
ENDCHAR
STARTCHAR uni2385
ENCODING 9093
SWIDTH 823 0
DWIDTH 9 0
BBX 7 8 1 0
BITMAP
FE
82
82
82
82
82
82
FE
ENDCHAR
STARTCHAR uni2386
ENCODING 9094
SWIDTH 1011 0
DWIDTH 11 0
BBX 11 8 0 0
BITMAP
0200
0500
0A80
FD40
FD60
0A80
0500
0200
ENDCHAR
STARTCHAR uni2387
ENCODING 9095
SWIDTH 695 0
DWIDTH 8 0
BBX 7 8 0 0
BITMAP
E6
20
10
10
08
08
08
06
ENDCHAR
STARTCHAR uni2388
ENCODING 9096
SWIDTH 960 0
DWIDTH 11 0
BBX 10 11 0 -2
BITMAP
0400
0400
0E00
F540
3580
4E80
5E80
6580
9740
0C00
0400
ENDCHAR
STARTCHAR uni2389
ENCODING 9097
SWIDTH 787 0
DWIDTH 9 0
BBX 7 8 1 0
BITMAP
38
C4
82
82
C6
AA
94
78
ENDCHAR
STARTCHAR uni238A
ENCODING 9098
SWIDTH 787 0
DWIDTH 9 0
BBX 7 8 1 0
BITMAP
38
C4
FE
FA
BA
B2
D4
38
ENDCHAR
STARTCHAR uni238B
ENCODING 9099
SWIDTH 805 0
DWIDTH 9 0
BBX 7 7 1 0
BITMAP
E8
C6
A2
92
82
46
38
ENDCHAR
STARTCHAR uni238C
ENCODING 9100
SWIDTH 778 0
DWIDTH 9 0
BBX 8 7 0 0
BITMAP
5C
62
72
62
95
95
62
ENDCHAR
STARTCHAR uni238D
ENCODING 9101
SWIDTH 858 0
DWIDTH 9 0
BBX 9 8 0 0
BITMAP
1E00
2200
2200
2200
2200
2200
2200
E380
ENDCHAR
STARTCHAR uni238E
ENCODING 9102
SWIDTH 746 0
DWIDTH 8 0
BBX 8 8 0 0
BITMAP
1F
24
24
24
24
24
24
F8
ENDCHAR
STARTCHAR uni238F
ENCODING 9103
SWIDTH 813 0
DWIDTH 9 0
BBX 7 8 1 -1
BITMAP
FE
28
44
82
82
44
28
10
ENDCHAR
STARTCHAR uni2390
ENCODING 9104
SWIDTH 813 0
DWIDTH 9 0
BBX 7 8 1 -1
BITMAP
10
28
44
82
82
44
28
FE
ENDCHAR
STARTCHAR uni2391
ENCODING 9105
SWIDTH 813 0
DWIDTH 9 0
BBX 7 8 1 -1
BITMAP
30
48
84
FE
82
44
28
FE
ENDCHAR
STARTCHAR uni2392
ENCODING 9106
SWIDTH 813 0
DWIDTH 9 0
BBX 7 8 1 0
BITMAP
FE
28
44
82
FE
84
48
30
ENDCHAR
STARTCHAR uni2393
ENCODING 9107
SWIDTH 935 0
DWIDTH 10 0
BBX 8 3 1 1
BITMAP
FF
00
DB
ENDCHAR
STARTCHAR uni2394
ENCODING 9108
SWIDTH 948 0
DWIDTH 10 0
BBX 10 9 0 -2
BITMAP
1F00
2080
4080
4040
8040
4040
4080
2080
1F00
ENDCHAR
STARTCHAR uni2395
ENCODING 9109
SWIDTH 678 0
DWIDTH 7 0
BBX 6 11 1 -2
BITMAP
FC
84
84
84
84
84
84
84
84
84
FC
ENDCHAR
STARTCHAR uni2396
ENCODING 9110
SWIDTH 545 0
DWIDTH 6 0
BBX 5 7 1 0
BITMAP
F8
F0
E0
C0
C0
80
80
ENDCHAR
STARTCHAR uni2397
ENCODING 9111
SWIDTH 750 0
DWIDTH 8 0
BBX 6 8 1 0
BITMAP
E8
00
FC
A4
F4
34
E4
3C
ENDCHAR
STARTCHAR uni2398
ENCODING 9112
SWIDTH 750 0
DWIDTH 8 0
BBX 6 8 1 0
BITMAP
F8
88
BC
A4
D4
E4
40
3C
ENDCHAR
STARTCHAR uni2399
ENCODING 9113
SWIDTH 836 0
DWIDTH 9 0
BBX 8 7 1 1
BITMAP
18
7C
BB
A9
B9
81
FE
ENDCHAR
STARTCHAR uni239A
ENCODING 9114
SWIDTH 836 0
DWIDTH 9 0
BBX 8 6 1 1
BITMAP
FE
81
81
81
81
FE
ENDCHAR
STARTCHAR uni239B
ENCODING 9115
SWIDTH 484 0
DWIDTH 5 0
BBX 4 14 1 0
BITMAP
10
20
40
40
80
80
80
80
80
80
80
80
80
80
ENDCHAR
STARTCHAR uni239C
ENCODING 9116
SWIDTH 484 0
DWIDTH 5 0
BBX 1 14 1 0
BITMAP
80
80
80
80
80
80
80
80
80
80
80
80
80
80
ENDCHAR
STARTCHAR uni239D
ENCODING 9117
SWIDTH 484 0
DWIDTH 5 0
BBX 4 14 1 0
BITMAP
80
80
80
80
80
80
80
80
80
80
40
40
20
10
ENDCHAR
STARTCHAR uni239E
ENCODING 9118
SWIDTH 484 0
DWIDTH 5 0
BBX 5 14 0 0
BITMAP
80
40
20
20
10
10
10
18
08
08
08
08
08
08
ENDCHAR
STARTCHAR uni239F
ENCODING 9119
SWIDTH 484 0
DWIDTH 5 0
BBX 1 14 4 0
BITMAP
80
80
80
80
80
80
80
80
80
80
80
80
80
80
ENDCHAR
STARTCHAR uni23A0
ENCODING 9120
SWIDTH 484 0
DWIDTH 5 0
BBX 5 14 0 0
BITMAP
08
08
08
08
08
08
18
10
10
10
20
20
40
80
ENDCHAR
STARTCHAR uni23A1
ENCODING 9121
SWIDTH 585 0
DWIDTH 6 0
BBX 4 14 1 0
BITMAP
F0
C0
C0
C0
C0
C0
C0
C0
C0
C0
C0
C0
C0
C0
ENDCHAR
STARTCHAR uni23A2
ENCODING 9122
SWIDTH 585 0
DWIDTH 6 0
BBX 2 11 1 0
BITMAP
C0
C0
C0
C0
C0
C0
C0
C0
C0
C0
C0
ENDCHAR
STARTCHAR uni23A3
ENCODING 9123
SWIDTH 585 0
DWIDTH 6 0
BBX 4 14 1 0
BITMAP
C0
C0
C0
C0
C0
C0
C0
C0
C0
C0
C0
C0
C0
F0
ENDCHAR
STARTCHAR uni23A4
ENCODING 9124
SWIDTH 585 0
DWIDTH 6 0
BBX 4 14 1 0
BITMAP
F0
10
10
10
10
10
10
10
10
10
10
10
10
10
ENDCHAR
STARTCHAR uni23A5
ENCODING 9125
SWIDTH 585 0
DWIDTH 6 0
BBX 1 11 4 0
BITMAP
80
80
80
80
80
80
80
80
80
80
80
ENDCHAR
STARTCHAR uni23A6
ENCODING 9126
SWIDTH 585 0
DWIDTH 6 0
BBX 4 14 1 0
BITMAP
10
10
10
10
10
10
10
10
10
10
10
10
10
F0
ENDCHAR
STARTCHAR uni23A7
ENCODING 9127
SWIDTH 600 0
DWIDTH 7 0
BBX 3 14 3 0
BITMAP
20
40
80
80
80
80
80
80
80
80
80
80
80
80
ENDCHAR
STARTCHAR uni23A8
ENCODING 9128
SWIDTH 600 0
DWIDTH 7 0
BBX 3 21 1 0
BITMAP
20
20
20
20
20
20
20
20
20
40
80
40
20
20
20
20
20
20
20
20
20
ENDCHAR
STARTCHAR uni23A9
ENCODING 9129
SWIDTH 600 0
DWIDTH 7 0
BBX 3 14 3 0
BITMAP
80
80
80
80
80
80
80
80
80
80
80
80
40
20
ENDCHAR
STARTCHAR uni23AA
ENCODING 9130
SWIDTH 600 0
DWIDTH 7 0
BBX 1 11 3 0
BITMAP
80
80
80
80
80
80
80
80
80
80
80
ENDCHAR
STARTCHAR uni23AB
ENCODING 9131
SWIDTH 600 0
DWIDTH 7 0
BBX 4 14 0 0
BITMAP
C0
20
20
20
10
10
10
10
10
10
10
10
10
10
ENDCHAR
STARTCHAR uni23AC
ENCODING 9132
SWIDTH 600 0
DWIDTH 7 0
BBX 3 21 3 0
BITMAP
80
80
80
80
80
80
80
80
80
80
60
80
80
80
80
80
80
80
80
80
80
ENDCHAR
STARTCHAR uni23AD
ENCODING 9133
SWIDTH 600 0
DWIDTH 7 0
BBX 4 14 0 0
BITMAP
10
10
10
10
10
10
10
10
10
10
20
20
20
C0
ENDCHAR
STARTCHAR uni23AE
ENCODING 9134
SWIDTH 704 0
DWIDTH 8 0
BBX 1 7 3 0
BITMAP
80
80
80
80
80
80
80
ENDCHAR
STARTCHAR uni23AF
ENCODING 9135
SWIDTH 322 0
DWIDTH 4 0
BBX 4 1 0 2
BITMAP
F0
ENDCHAR
STARTCHAR uni23B0
ENCODING 9136
SWIDTH 614 0
DWIDTH 7 0
BBX 6 12 0 -4
BITMAP
04
08
10
10
10
10
10
10
10
10
20
C0
ENDCHAR
STARTCHAR uni23B1
ENCODING 9137
SWIDTH 614 0
DWIDTH 7 0
BBX 6 12 0 -4
BITMAP
C0
20
10
10
10
10
10
10
10
10
08
04
ENDCHAR
STARTCHAR uni23B2
ENCODING 9138
SWIDTH 1517 0
DWIDTH 17 0
BBX 14 17 1 0
BITMAP
FFFC
600C
7004
7004
3000
3800
1800
1C00
1C00
0C00
0E00
0E00
0600
0700
0300
0380
0380
ENDCHAR
STARTCHAR uni23B3
ENCODING 9139
SWIDTH 1517 0
DWIDTH 17 0
BBX 14 17 1 0
BITMAP
0380
0380
0300
0700
0600
0E00
0E00
0C00
1C00
1C00
1800
3800
3004
7004
700C
7FFC
FFFC
ENDCHAR
STARTCHAR uni23B4
ENCODING 9140
SWIDTH 630 0
DWIDTH 7 0
BBX 7 2 0 7
BITMAP
FE
82
ENDCHAR
STARTCHAR uni23B5
ENCODING 9141
SWIDTH 630 0
DWIDTH 7 0
BBX 7 2 0 -3
BITMAP
82
FE
ENDCHAR
STARTCHAR uni23B6
ENCODING 9142
SWIDTH 948 0
DWIDTH 10 0
BBX 9 5 1 0
BITMAP
8080
FF80
0000
FF80
8080
ENDCHAR
ENDFONT
